%TF.GenerationSoftware,KiCad,Pcbnew,9.0.7*%
%TF.CreationDate,2026-01-12T22:55:18+01:00*%
%TF.ProjectId,beta-main,62657461-2d6d-4616-996e-2e6b69636164,rev?*%
%TF.SameCoordinates,Original*%
%TF.FileFunction,Copper,L4,Bot*%
%TF.FilePolarity,Positive*%
%FSLAX46Y46*%
G04 Gerber Fmt 4.6, Leading zero omitted, Abs format (unit mm)*
G04 Created by KiCad (PCBNEW 9.0.7) date 2026-01-12 22:55:18*
%MOMM*%
%LPD*%
G01*
G04 APERTURE LIST*
G04 Aperture macros list*
%AMRoundRect*
0 Rectangle with rounded corners*
0 $1 Rounding radius*
0 $2 $3 $4 $5 $6 $7 $8 $9 X,Y pos of 4 corners*
0 Add a 4 corners polygon primitive as box body*
4,1,4,$2,$3,$4,$5,$6,$7,$8,$9,$2,$3,0*
0 Add four circle primitives for the rounded corners*
1,1,$1+$1,$2,$3*
1,1,$1+$1,$4,$5*
1,1,$1+$1,$6,$7*
1,1,$1+$1,$8,$9*
0 Add four rect primitives between the rounded corners*
20,1,$1+$1,$2,$3,$4,$5,0*
20,1,$1+$1,$4,$5,$6,$7,0*
20,1,$1+$1,$6,$7,$8,$9,0*
20,1,$1+$1,$8,$9,$2,$3,0*%
G04 Aperture macros list end*
%ADD10C,0.200000*%
%TA.AperFunction,NonConductor*%
%ADD11C,0.200000*%
%TD*%
%TA.AperFunction,ComponentPad*%
%ADD12RoundRect,0.250000X0.625000X-0.350000X0.625000X0.350000X-0.625000X0.350000X-0.625000X-0.350000X0*%
%TD*%
%TA.AperFunction,ComponentPad*%
%ADD13O,1.750000X1.200000*%
%TD*%
%TA.AperFunction,ComponentPad*%
%ADD14RoundRect,0.250000X0.550000X0.550000X-0.550000X0.550000X-0.550000X-0.550000X0.550000X-0.550000X0*%
%TD*%
%TA.AperFunction,ComponentPad*%
%ADD15C,1.600000*%
%TD*%
%TA.AperFunction,ComponentPad*%
%ADD16RoundRect,0.250000X-0.725000X0.600000X-0.725000X-0.600000X0.725000X-0.600000X0.725000X0.600000X0*%
%TD*%
%TA.AperFunction,ComponentPad*%
%ADD17O,1.950000X1.700000*%
%TD*%
%TA.AperFunction,ComponentPad*%
%ADD18RoundRect,0.250000X0.350000X0.625000X-0.350000X0.625000X-0.350000X-0.625000X0.350000X-0.625000X0*%
%TD*%
%TA.AperFunction,ComponentPad*%
%ADD19O,1.200000X1.750000*%
%TD*%
%TA.AperFunction,ComponentPad*%
%ADD20C,5.400000*%
%TD*%
%TA.AperFunction,ComponentPad*%
%ADD21RoundRect,0.250000X0.725000X-0.600000X0.725000X0.600000X-0.725000X0.600000X-0.725000X-0.600000X0*%
%TD*%
%TA.AperFunction,ComponentPad*%
%ADD22C,0.800000*%
%TD*%
%TA.AperFunction,ComponentPad*%
%ADD23C,6.400000*%
%TD*%
%TA.AperFunction,ComponentPad*%
%ADD24RoundRect,1.500000X-1.500000X-1.500000X1.500000X-1.500000X1.500000X1.500000X-1.500000X1.500000X0*%
%TD*%
%TA.AperFunction,ComponentPad*%
%ADD25C,6.000000*%
%TD*%
%TA.AperFunction,ComponentPad*%
%ADD26RoundRect,0.250000X-0.625000X0.350000X-0.625000X-0.350000X0.625000X-0.350000X0.625000X0.350000X0*%
%TD*%
%TA.AperFunction,ViaPad*%
%ADD27C,0.600000*%
%TD*%
%TA.AperFunction,Conductor*%
%ADD28C,0.200000*%
%TD*%
%TA.AperFunction,Conductor*%
%ADD29C,0.290000*%
%TD*%
%TA.AperFunction,Conductor*%
%ADD30C,0.500000*%
%TD*%
%TA.AperFunction,Conductor*%
%ADD31C,0.300000*%
%TD*%
G04 APERTURE END LIST*
D10*
D11*
X81845476Y-43410552D02*
X81845476Y-44077219D01*
X81607381Y-43029600D02*
X81369286Y-43743885D01*
X81369286Y-43743885D02*
X81988333Y-43743885D01*
D12*
%TO.P,J15,1,Pin_1*%
%TO.N,+3V3*%
X131050000Y-55500000D03*
D13*
%TO.P,J15,2,Pin_2*%
%TO.N,/Peripherals/SENSOR_SDA*%
X131050000Y-53500000D03*
%TO.P,J15,3,Pin_3*%
%TO.N,/Peripherals/SENSOR_SCL*%
X131050000Y-51500000D03*
%TO.P,J15,4,Pin_4*%
%TO.N,GND*%
X131050000Y-49500000D03*
%TD*%
D12*
%TO.P,J23,1,Pin_1*%
%TO.N,+3V3*%
X64450000Y-121500000D03*
D13*
%TO.P,J23,2,Pin_2*%
%TO.N,/I2S0_SCLK*%
X64450000Y-119500000D03*
%TO.P,J23,3,Pin_3*%
%TO.N,/I2S0_WS*%
X64450000Y-117500000D03*
%TO.P,J23,4,Pin_4*%
%TO.N,/I2S0_SDI1*%
X64450000Y-115500000D03*
%TO.P,J23,5,Pin_5*%
%TO.N,+3V3*%
X64450000Y-113500000D03*
%TO.P,J23,6,Pin_6*%
%TO.N,GND*%
X64450000Y-111500000D03*
%TD*%
D14*
%TO.P,C2,1*%
%TO.N,+BATT*%
X72402651Y-83000000D03*
D15*
%TO.P,C2,2*%
%TO.N,GND*%
X68902651Y-83000000D03*
%TD*%
D16*
%TO.P,J10,1,Pin_1*%
%TO.N,/Peripherals/SIG*%
X71945000Y-61000000D03*
D17*
%TO.P,J10,2,Pin_2*%
%TO.N,+BATT*%
X71945000Y-63500000D03*
%TO.P,J10,3,Pin_3*%
%TO.N,GND*%
X71945000Y-66000000D03*
%TD*%
D18*
%TO.P,J19,1,Pin_1*%
%TO.N,+BATT*%
X121000000Y-150550000D03*
D19*
%TO.P,J19,2,Pin_2*%
%TO.N,Net-(D2-K)*%
X119000000Y-150550000D03*
%TD*%
D20*
%TO.P,MH11,1,1*%
%TO.N,GND*%
X71000000Y-124500000D03*
%TD*%
D21*
%TO.P,J11,1,Pin_1*%
%TO.N,/Peripherals/SIG*%
X128055000Y-66000000D03*
D17*
%TO.P,J11,2,Pin_2*%
%TO.N,+BATT*%
X128055000Y-63500000D03*
%TO.P,J11,3,Pin_3*%
%TO.N,GND*%
X128055000Y-61000000D03*
%TD*%
D21*
%TO.P,J13,1,Pin_1*%
%TO.N,/Peripherals/SIG*%
X128055000Y-150000000D03*
D17*
%TO.P,J13,2,Pin_2*%
%TO.N,+BATT*%
X128055000Y-147500000D03*
%TO.P,J13,3,Pin_3*%
%TO.N,GND*%
X128055000Y-145000000D03*
%TD*%
D18*
%TO.P,J24,1,Pin_1*%
%TO.N,+BATT*%
X114000000Y-150550000D03*
D19*
%TO.P,J24,2,Pin_2*%
%TO.N,Net-(D2-K)*%
X112000000Y-150550000D03*
%TD*%
D22*
%TO.P,MH7,1,1*%
%TO.N,GND*%
X136400000Y-156500000D03*
X135697056Y-158197056D03*
X135697056Y-154802944D03*
X134000000Y-158900000D03*
D23*
X134000000Y-156500000D03*
D22*
X134000000Y-154100000D03*
X132302944Y-158197056D03*
X132302944Y-154802944D03*
X131600000Y-156500000D03*
%TD*%
D18*
%TO.P,J20,1,Pin_1*%
%TO.N,+BATT*%
X81000000Y-150550000D03*
D19*
%TO.P,J20,2,Pin_2*%
%TO.N,Net-(D2-K)*%
X79000000Y-150550000D03*
%TD*%
D24*
%TO.P,J18,1,Pin_1*%
%TO.N,GND*%
X96375000Y-155500000D03*
D25*
%TO.P,J18,2,Pin_2*%
%TO.N,+BATT*%
X103575000Y-155500000D03*
%TD*%
D20*
%TO.P,MH12,1,1*%
%TO.N,GND*%
X129000000Y-124500000D03*
%TD*%
D26*
%TO.P,J14,1,Pin_1*%
%TO.N,+3V3*%
X68950000Y-49500000D03*
D13*
%TO.P,J14,2,Pin_2*%
%TO.N,/Peripherals/SENSOR_SDA*%
X68950000Y-51500000D03*
%TO.P,J14,3,Pin_3*%
%TO.N,/Peripherals/SENSOR_SCL*%
X68950000Y-53500000D03*
%TO.P,J14,4,Pin_4*%
%TO.N,GND*%
X68950000Y-55500000D03*
%TD*%
D12*
%TO.P,J1,1,Pin_1*%
%TO.N,Net-(J1-Pin_1)*%
X64450000Y-91500000D03*
D13*
%TO.P,J1,2,Pin_2*%
%TO.N,Net-(J1-Pin_2)*%
X64450000Y-89500000D03*
%TD*%
D26*
%TO.P,J3,1,Pin_1*%
%TO.N,VBUS*%
X135500000Y-71500000D03*
D13*
%TO.P,J3,2,Pin_2*%
%TO.N,/High Speed Serial/USB3-1-D_N*%
X135500000Y-73500000D03*
%TO.P,J3,3,Pin_3*%
%TO.N,/High Speed Serial/USB3-1-D_P*%
X135500000Y-75500000D03*
%TO.P,J3,4,Pin_4*%
%TO.N,/High Speed Serial/USB3-1-RX_N*%
X135500000Y-77500000D03*
%TO.P,J3,5,Pin_5*%
%TO.N,/High Speed Serial/USB3-1-RX_P*%
X135500000Y-79500000D03*
%TO.P,J3,6,Pin_6*%
%TO.N,/High Speed Serial/USB3-1-TX_N*%
X135500000Y-81500000D03*
%TO.P,J3,7,Pin_7*%
%TO.N,/High Speed Serial/USB3-1-TX_P*%
X135500000Y-83500000D03*
%TO.P,J3,8,Pin_8*%
%TO.N,GND*%
X135500000Y-85500000D03*
%TD*%
D22*
%TO.P,MH5,1,1*%
%TO.N,GND*%
X68400000Y-156500000D03*
X67697056Y-158197056D03*
X67697056Y-154802944D03*
X66000000Y-158900000D03*
D23*
X66000000Y-156500000D03*
D22*
X66000000Y-154100000D03*
X64302944Y-158197056D03*
X64302944Y-154802944D03*
X63600000Y-156500000D03*
%TD*%
D20*
%TO.P,MH9,1,1*%
%TO.N,GND*%
X71000000Y-75500000D03*
%TD*%
D26*
%TO.P,J2,1,Pin_1*%
%TO.N,VBUS*%
X135500000Y-114500000D03*
D13*
%TO.P,J2,2,Pin_2*%
%TO.N,/High Speed Serial/USB3-0-D_N*%
X135500000Y-116500000D03*
%TO.P,J2,3,Pin_3*%
%TO.N,/High Speed Serial/USB3-0-D_P*%
X135500000Y-118500000D03*
%TO.P,J2,4,Pin_4*%
%TO.N,/High Speed Serial/USB3-0-RX_N*%
X135500000Y-120500000D03*
%TO.P,J2,5,Pin_5*%
%TO.N,/High Speed Serial/USB3-0-RX_P*%
X135500000Y-122500000D03*
%TO.P,J2,6,Pin_6*%
%TO.N,/High Speed Serial/USB3-0-TX_N*%
X135500000Y-124500000D03*
%TO.P,J2,7,Pin_7*%
%TO.N,/High Speed Serial/USB3-0-TX_P*%
X135500000Y-126500000D03*
%TO.P,J2,8,Pin_8*%
%TO.N,GND*%
X135500000Y-128500000D03*
%TD*%
D12*
%TO.P,J22,1,Pin_1*%
%TO.N,+3V3*%
X64450000Y-106500000D03*
D13*
%TO.P,J22,2,Pin_2*%
%TO.N,/I2S0_SCLK*%
X64450000Y-104500000D03*
%TO.P,J22,3,Pin_3*%
%TO.N,/I2S0_WS*%
X64450000Y-102500000D03*
%TO.P,J22,4,Pin_4*%
%TO.N,/I2S0_SDI0*%
X64450000Y-100500000D03*
%TO.P,J22,5,Pin_5*%
%TO.N,GND*%
X64450000Y-98500000D03*
%TO.P,J22,6,Pin_6*%
X64450000Y-96500000D03*
%TD*%
D22*
%TO.P,MH3,1,1*%
%TO.N,GND*%
X131600000Y-43500000D03*
X132302944Y-41802944D03*
X132302944Y-45197056D03*
X134000000Y-41100000D03*
D23*
X134000000Y-43500000D03*
D22*
X134000000Y-45900000D03*
X135697056Y-41802944D03*
X135697056Y-45197056D03*
X136400000Y-43500000D03*
%TD*%
D12*
%TO.P,J16,1,Pin_1*%
%TO.N,+3V3*%
X131050000Y-139500000D03*
D13*
%TO.P,J16,2,Pin_2*%
%TO.N,/Peripherals/SENSOR_SDA*%
X131050000Y-137500000D03*
%TO.P,J16,3,Pin_3*%
%TO.N,/Peripherals/SENSOR_SCL*%
X131050000Y-135500000D03*
%TO.P,J16,4,Pin_4*%
%TO.N,GND*%
X131050000Y-133500000D03*
%TD*%
D12*
%TO.P,J21,1,Pin_1*%
%TO.N,/GPIO/PWR_BUT*%
X64450000Y-128500000D03*
D13*
%TO.P,J21,2,Pin_2*%
%TO.N,GND*%
X64450000Y-126500000D03*
%TD*%
D18*
%TO.P,J25,1,Pin_1*%
%TO.N,+BATT*%
X88000000Y-150550000D03*
D19*
%TO.P,J25,2,Pin_2*%
%TO.N,Net-(D2-K)*%
X86000000Y-150550000D03*
%TD*%
D20*
%TO.P,MH10,1,1*%
%TO.N,GND*%
X129000000Y-75500000D03*
%TD*%
D22*
%TO.P,MH1,1,1*%
%TO.N,GND*%
X63600000Y-43500000D03*
X64302944Y-41802944D03*
X64302944Y-45197056D03*
X66000000Y-41100000D03*
D23*
X66000000Y-43500000D03*
D22*
X66000000Y-45900000D03*
X67697056Y-41802944D03*
X67697056Y-45197056D03*
X68400000Y-43500000D03*
%TD*%
D16*
%TO.P,J12,1,Pin_1*%
%TO.N,/Peripherals/SIG*%
X71945000Y-145000000D03*
D17*
%TO.P,J12,2,Pin_2*%
%TO.N,+BATT*%
X71945000Y-147500000D03*
%TO.P,J12,3,Pin_3*%
%TO.N,GND*%
X71945000Y-150000000D03*
%TD*%
D26*
%TO.P,J17,1,Pin_1*%
%TO.N,+3V3*%
X69000000Y-133500000D03*
D13*
%TO.P,J17,2,Pin_2*%
%TO.N,/Peripherals/SENSOR_SDA*%
X69000000Y-135500000D03*
%TO.P,J17,3,Pin_3*%
%TO.N,/Peripherals/SENSOR_SCL*%
X69000000Y-137500000D03*
%TO.P,J17,4,Pin_4*%
%TO.N,GND*%
X69000000Y-139500000D03*
%TD*%
D27*
%TO.N,/GPIO/UART3_TX*%
X80600000Y-100600000D03*
%TO.N,/GPIO/SDI*%
X80600000Y-101600000D03*
%TO.N,+3V3*%
X102266606Y-69766606D03*
X100000000Y-66050000D03*
%TO.N,+BATT*%
X73750000Y-64000000D03*
X88500000Y-148000000D03*
X92500000Y-142500000D03*
X126000000Y-64250000D03*
X73750000Y-147000000D03*
X95250000Y-142500000D03*
X120500000Y-148000000D03*
X113500000Y-148000000D03*
X81500000Y-148000000D03*
X126250000Y-147000000D03*
%TO.N,GND*%
X83600000Y-104000000D03*
X83600000Y-100200000D03*
X82400000Y-94800000D03*
X112800000Y-140600000D03*
X86000000Y-135750000D03*
X117200000Y-58600000D03*
X86000000Y-138750000D03*
X99951539Y-60919263D03*
X66525000Y-96500000D03*
X70750000Y-139000000D03*
X127000000Y-97600000D03*
X97151539Y-65919263D03*
X73750000Y-66500000D03*
X80546860Y-68138919D03*
X100887500Y-138737500D03*
X126250000Y-144500000D03*
X83600000Y-98550000D03*
X119400000Y-106200000D03*
X83600000Y-105800000D03*
X109137500Y-136987500D03*
X73425000Y-101250000D03*
X119400000Y-103800000D03*
X83600000Y-94800000D03*
X86000000Y-137250000D03*
X83600000Y-111800000D03*
X82400000Y-92800000D03*
X116400000Y-96000000D03*
X99000000Y-134250000D03*
X101000000Y-57750000D03*
X73750000Y-149500000D03*
X97950000Y-128400000D03*
X98951539Y-60919263D03*
X99000000Y-138750000D03*
X119400000Y-105000000D03*
X83600000Y-103000000D03*
X99000000Y-140250000D03*
X128500000Y-48750000D03*
X133750000Y-129250000D03*
X114600000Y-100200000D03*
X119400000Y-111000000D03*
X127000000Y-94400000D03*
X127000000Y-70800000D03*
X107000000Y-57750000D03*
X100887500Y-140237500D03*
X97500000Y-70000000D03*
X82400000Y-96650000D03*
X83600000Y-96400000D03*
X95500000Y-65500000D03*
X127000000Y-114400000D03*
X119400000Y-102600000D03*
X100887500Y-137237500D03*
X83750000Y-134250000D03*
X83600000Y-92800000D03*
X114600000Y-112200000D03*
X117600000Y-98320000D03*
X98000000Y-57750000D03*
X101400000Y-132100000D03*
X129500000Y-133000000D03*
X116400000Y-97200000D03*
X117600000Y-96000000D03*
X119400000Y-107400000D03*
X82400000Y-102800000D03*
X126000000Y-61750000D03*
X90000000Y-66000000D03*
X127000000Y-107600000D03*
X83850000Y-61180000D03*
X82400000Y-107000000D03*
X83600000Y-106800000D03*
X91750000Y-136000000D03*
X116400000Y-98400000D03*
X99000000Y-137250000D03*
X83600000Y-93600000D03*
X71000000Y-109000000D03*
X127000000Y-104600000D03*
X119400000Y-112200000D03*
X117600000Y-97200000D03*
X116300000Y-138800000D03*
X116400000Y-94600000D03*
X86000000Y-140250000D03*
X82400000Y-104000000D03*
X127000000Y-101400000D03*
X119400000Y-108600000D03*
X71250000Y-56250000D03*
X119400000Y-109800000D03*
X82400000Y-105800000D03*
X104000000Y-57750000D03*
X66400000Y-127000000D03*
X82400000Y-93600000D03*
X105637500Y-138987500D03*
X117600000Y-94600000D03*
X66500000Y-111500000D03*
X82400000Y-99400000D03*
%TO.N,+5V*%
X105106250Y-137693750D03*
X95650000Y-130000000D03*
X92500000Y-131200000D03*
X99000000Y-135700000D03*
X109200000Y-137800000D03*
X89200000Y-130100000D03*
X88750000Y-134500000D03*
X92000000Y-127000000D03*
X80600000Y-109100000D03*
%TO.N,+3V3*%
X77800000Y-103800000D03*
X87350000Y-61180000D03*
X78400000Y-88000000D03*
X83600000Y-108200000D03*
X82350000Y-61180000D03*
X96500000Y-60921400D03*
X125400000Y-88600000D03*
X112500000Y-134700000D03*
X71500000Y-48750000D03*
X67400000Y-116200000D03*
X66500000Y-106500000D03*
X67400000Y-114800000D03*
X129600000Y-139600000D03*
X70400000Y-133400000D03*
X113300000Y-131700000D03*
X66500000Y-121500000D03*
X85100000Y-67530000D03*
X123400000Y-86600000D03*
X96000000Y-70000000D03*
X128750000Y-56250000D03*
X77049000Y-95600000D03*
X76400000Y-133400000D03*
X107400000Y-127000000D03*
X123600000Y-139200000D03*
X66500000Y-113500000D03*
X92750000Y-57750000D03*
%TO.N,VBUS*%
X124000000Y-114000000D03*
X102600000Y-127000000D03*
%TO.N,/High Speed Serial/USB3-0-D_P*%
X134000000Y-117900000D03*
X118000000Y-117900000D03*
%TO.N,/High Speed Serial/USB3-0-D_N*%
X134000000Y-117100000D03*
X118000000Y-117100000D03*
%TO.N,/High Speed Serial/USB3-1-TX_P*%
X116000000Y-80800000D03*
X126926854Y-79708310D03*
X131201415Y-83998585D03*
X114125412Y-80000000D03*
%TO.N,/High Speed Serial/USB3-1-TX_N*%
X116000000Y-80000000D03*
X114125412Y-80800000D03*
X131750940Y-83417185D03*
X127492540Y-79142624D03*
%TO.N,/High Speed Serial/USB3-1-RX_N*%
X116200000Y-83600000D03*
X114200000Y-84400000D03*
%TO.N,/High Speed Serial/USB3-1-RX_P*%
X114200000Y-83600000D03*
X116200000Y-84400000D03*
%TO.N,/SCL0*%
X85390000Y-108000000D03*
X126750000Y-95445043D03*
%TO.N,/MIPI0_D0_P*%
X122800000Y-99100000D03*
X126994068Y-99100000D03*
%TO.N,/SDA0*%
X127500000Y-96000000D03*
X85400000Y-109000000D03*
%TO.N,/MIPI0_D0_N*%
X122800000Y-99900000D03*
X126994068Y-99900000D03*
%TO.N,/SCL1*%
X85400000Y-103600000D03*
X92800000Y-69200000D03*
%TO.N,/CAM_GPIO0*%
X77600000Y-86200000D03*
X77000000Y-111200000D03*
X77563911Y-60013908D03*
X97000000Y-57750000D03*
%TO.N,/SDA1*%
X92800000Y-70200000D03*
X85400000Y-104400000D03*
%TO.N,/CAM_GPIO1*%
X76200000Y-111200000D03*
X96000000Y-57750000D03*
X76800000Y-60000000D03*
X76800000Y-86200000D03*
%TO.N,/Peripherals/SIG*%
X73800000Y-144600000D03*
X78400000Y-130500000D03*
X125600000Y-150600000D03*
X91350000Y-68400000D03*
X84387500Y-69580000D03*
%TO.N,/Peripherals/SENSOR_SCL*%
X91400000Y-64000000D03*
X70600000Y-137400000D03*
X80600000Y-99500000D03*
X73000000Y-53600000D03*
X89500000Y-127000000D03*
X74150000Y-53600000D03*
X91400000Y-62400000D03*
X89500000Y-124500000D03*
%TO.N,/GPIO/SDI*%
X101500000Y-66000000D03*
%TO.N,/GPIO/UART3_RX*%
X85400000Y-100000000D03*
X89500000Y-65330000D03*
%TO.N,/GPIO/UART3_TX*%
X90000000Y-69500000D03*
%TO.N,/GPIO/I2C2_SCL*%
X85400000Y-99150000D03*
X103000000Y-66000000D03*
%TO.N,/GPIO/I2C2_SDA*%
X85400000Y-102800000D03*
X103750000Y-65000000D03*
%TO.N,/Peripherals/SENSOR_SDA*%
X70600000Y-135400000D03*
X88000000Y-127000000D03*
X85400000Y-98000000D03*
%TO.N,/GPIO/PWR_BUT*%
X66400000Y-128500000D03*
%TO.N,/GPIO/FAN_PWM*%
X79750000Y-130500000D03*
X80600000Y-96000000D03*
%TO.N,Net-(D2-K)*%
X86500000Y-148000000D03*
X111500000Y-148000000D03*
X79500000Y-148000000D03*
X118500000Y-148000000D03*
%TO.N,/I2S0_WS*%
X77800000Y-99800000D03*
X85400000Y-97200000D03*
X66500000Y-102500000D03*
%TO.N,/I2S0_SCLK*%
X66500000Y-119500000D03*
X66500000Y-104500000D03*
%TO.N,/VBUS_EN*%
X114500000Y-94500000D03*
X96850000Y-128400000D03*
%TO.N,/I2S0_SDI0*%
X77800000Y-100800000D03*
X66500000Y-100500000D03*
X80600000Y-98050000D03*
%TO.N,/I2S0_SDI1*%
X80600000Y-103000000D03*
X66500000Y-115500000D03*
X85400000Y-101950000D03*
%TD*%
D28*
%TO.N,/I2S0_SDI0*%
X80600000Y-98050000D02*
X79350000Y-98050000D01*
X78600000Y-98800000D02*
X78600000Y-100400000D01*
X79350000Y-98050000D02*
X78600000Y-98800000D01*
X78600000Y-100400000D02*
X78200000Y-100800000D01*
X78200000Y-100800000D02*
X77800000Y-100800000D01*
%TO.N,/Peripherals/SENSOR_SDA*%
X88000000Y-127000000D02*
X88000000Y-117400000D01*
X88000000Y-117400000D02*
X87800000Y-117200000D01*
X87800000Y-117200000D02*
X81156187Y-117200000D01*
X81156187Y-117200000D02*
X79200000Y-115243813D01*
X83000000Y-98000000D02*
X85400000Y-98000000D01*
X79200000Y-115243813D02*
X79200000Y-99200000D01*
X79200000Y-99200000D02*
X79800000Y-98600000D01*
X79800000Y-98600000D02*
X82400000Y-98600000D01*
X82400000Y-98600000D02*
X83000000Y-98000000D01*
%TO.N,/Peripherals/SENSOR_SCL*%
X80600000Y-99500000D02*
X81150000Y-99500000D01*
X87600000Y-98200000D02*
X87600000Y-64800000D01*
X81150000Y-99500000D02*
X81650000Y-100000000D01*
X81650000Y-100000000D02*
X83000000Y-100000000D01*
X84400000Y-98600000D02*
X87200000Y-98600000D01*
X83000000Y-100000000D02*
X84400000Y-98600000D01*
X87200000Y-98600000D02*
X87600000Y-98200000D01*
X87600000Y-64800000D02*
X88400000Y-64000000D01*
X88400000Y-64000000D02*
X91400000Y-64000000D01*
X80600000Y-99500000D02*
X80100000Y-99500000D01*
X81292480Y-116001000D02*
X88001000Y-116001000D01*
X80100000Y-99500000D02*
X79800000Y-99800000D01*
X79800000Y-99800000D02*
X79800000Y-111800000D01*
X79800000Y-111800000D02*
X80000000Y-112000000D01*
X80000000Y-112000000D02*
X80000000Y-114708520D01*
X80000000Y-114708520D02*
X81292480Y-116001000D01*
X88001000Y-116001000D02*
X89500000Y-117500000D01*
X89500000Y-117500000D02*
X89500000Y-127000000D01*
%TO.N,/GPIO/SDI*%
X80600000Y-101600000D02*
X80800000Y-101400000D01*
X90800000Y-69400000D02*
X90200000Y-68800000D01*
X80800000Y-101400000D02*
X90100000Y-101400000D01*
X90100000Y-101400000D02*
X90800000Y-100700000D01*
X90800000Y-100700000D02*
X90800000Y-69400000D01*
X90200000Y-68800000D02*
X90200000Y-67200000D01*
X90200000Y-67200000D02*
X90800000Y-66600000D01*
X90800000Y-66600000D02*
X101400000Y-66600000D01*
X101400000Y-66600000D02*
X101500000Y-66500000D01*
X101500000Y-66500000D02*
X101500000Y-66000000D01*
%TO.N,/GPIO/UART3_TX*%
X80600000Y-100600000D02*
X80800000Y-100800000D01*
X80800000Y-100800000D02*
X89150000Y-100800000D01*
X90000000Y-99950000D02*
X90000000Y-69500000D01*
X89150000Y-100800000D02*
X90000000Y-99950000D01*
%TO.N,/I2S0_SDI1*%
X81800000Y-101950000D02*
X85400000Y-101950000D01*
X80600000Y-103000000D02*
X80750000Y-103000000D01*
X80750000Y-103000000D02*
X81800000Y-101950000D01*
%TO.N,/Peripherals/SIG*%
X91350000Y-68400000D02*
X91600000Y-68400000D01*
X91600000Y-68400000D02*
X92000000Y-68000000D01*
X92000000Y-68000000D02*
X122600000Y-68000000D01*
X122600000Y-68000000D02*
X124600000Y-66000000D01*
X124600000Y-66000000D02*
X128055000Y-66000000D01*
%TO.N,/Peripherals/SENSOR_SDA*%
X131050000Y-53500000D02*
X121900000Y-53500000D01*
X121900000Y-53500000D02*
X121000000Y-54400000D01*
X121000000Y-54400000D02*
X121000000Y-62200000D01*
X121000000Y-62200000D02*
X120000000Y-63200000D01*
X120000000Y-63200000D02*
X87200000Y-63200000D01*
X87200000Y-63200000D02*
X86800000Y-63600000D01*
%TO.N,/Peripherals/SENSOR_SCL*%
X74150000Y-53600000D02*
X74600000Y-54050000D01*
X121300000Y-51500000D02*
X131050000Y-51500000D01*
X74600000Y-54050000D02*
X74600000Y-59200000D01*
X120200000Y-61800000D02*
X120200000Y-52600000D01*
X74600000Y-59200000D02*
X77800000Y-62400000D01*
X77800000Y-62400000D02*
X119600000Y-62400000D01*
X119600000Y-62400000D02*
X120200000Y-61800000D01*
X120200000Y-52600000D02*
X121300000Y-51500000D01*
%TO.N,/GPIO/I2C2_SCL*%
X103000000Y-66000000D02*
X103000000Y-65200000D01*
X103000000Y-65200000D02*
X102579000Y-64779000D01*
X102579000Y-64779000D02*
X89174612Y-64779000D01*
X89174612Y-64779000D02*
X88400000Y-65553612D01*
X88400000Y-65553612D02*
X88400000Y-98400000D01*
X88400000Y-98400000D02*
X87650000Y-99150000D01*
X87650000Y-99150000D02*
X85400000Y-99150000D01*
%TO.N,/GPIO/I2C2_SDA*%
X85400000Y-102800000D02*
X90400000Y-102800000D01*
X90400000Y-102800000D02*
X91600000Y-101600000D01*
X91600000Y-101600000D02*
X91600000Y-69600000D01*
X91600000Y-69600000D02*
X90800000Y-68800000D01*
X95400000Y-67200000D02*
X103200000Y-67200000D01*
X90800000Y-68800000D02*
X90800000Y-67600000D01*
X90800000Y-67600000D02*
X91221000Y-67179000D01*
X91221000Y-67179000D02*
X95379000Y-67179000D01*
X103800000Y-65050000D02*
X103750000Y-65000000D01*
X95379000Y-67179000D02*
X95400000Y-67200000D01*
X103800000Y-66600000D02*
X103800000Y-65050000D01*
X103200000Y-67200000D02*
X103800000Y-66600000D01*
%TO.N,/I2S0_WS*%
X64450000Y-117500000D02*
X63300000Y-117500000D01*
X63300000Y-117500000D02*
X63100000Y-117300000D01*
X63100000Y-117300000D02*
X63100000Y-102700000D01*
X63100000Y-102700000D02*
X63300000Y-102500000D01*
X63300000Y-102500000D02*
X64450000Y-102500000D01*
%TO.N,+BATT*%
X73250000Y-63500000D02*
X73750000Y-64000000D01*
D29*
X114000000Y-150550000D02*
X114000000Y-148500000D01*
X81000000Y-148500000D02*
X81500000Y-148000000D01*
D28*
X71945000Y-63500000D02*
X73250000Y-63500000D01*
D30*
X128055000Y-147500000D02*
X126750000Y-147500000D01*
X126750000Y-63500000D02*
X126000000Y-64250000D01*
D29*
X121000000Y-148500000D02*
X120500000Y-148000000D01*
D30*
X128055000Y-63500000D02*
X126750000Y-63500000D01*
D29*
X88000000Y-148500000D02*
X88500000Y-148000000D01*
D30*
X73750000Y-147000000D02*
X73250000Y-147500000D01*
D29*
X114000000Y-148500000D02*
X113500000Y-148000000D01*
D30*
X126750000Y-147500000D02*
X126250000Y-147000000D01*
X73250000Y-147500000D02*
X71945000Y-147500000D01*
D29*
X81000000Y-150550000D02*
X81000000Y-148500000D01*
X121000000Y-150550000D02*
X121000000Y-148500000D01*
X88000000Y-150550000D02*
X88000000Y-148500000D01*
D28*
%TO.N,GND*%
X73250000Y-66000000D02*
X73750000Y-66500000D01*
D30*
X126750000Y-145000000D02*
X128055000Y-145000000D01*
D28*
X71945000Y-66000000D02*
X73250000Y-66000000D01*
X64475000Y-96500000D02*
X66525000Y-96500000D01*
D30*
X134500000Y-128500000D02*
X133750000Y-129250000D01*
X70250000Y-139500000D02*
X70750000Y-139000000D01*
D28*
X64450000Y-126500000D02*
X65900000Y-126500000D01*
D30*
X69000000Y-139500000D02*
X70250000Y-139500000D01*
X70500000Y-55500000D02*
X71250000Y-56250000D01*
D28*
X65900000Y-126500000D02*
X66400000Y-127000000D01*
D30*
X130000000Y-133500000D02*
X129500000Y-133000000D01*
X73250000Y-150000000D02*
X71945000Y-150000000D01*
X131050000Y-49500000D02*
X129250000Y-49500000D01*
D28*
X66500000Y-111500000D02*
X64450000Y-111500000D01*
D30*
X131050000Y-133500000D02*
X130000000Y-133500000D01*
X135500000Y-128500000D02*
X134500000Y-128500000D01*
X73750000Y-149500000D02*
X73250000Y-150000000D01*
X126000000Y-61750000D02*
X126750000Y-61000000D01*
X126750000Y-61000000D02*
X128055000Y-61000000D01*
X126250000Y-144500000D02*
X126750000Y-145000000D01*
X68950000Y-55500000D02*
X70500000Y-55500000D01*
D28*
X64450000Y-96500000D02*
X64450000Y-98500000D01*
D30*
X129250000Y-49500000D02*
X128500000Y-48750000D01*
%TO.N,+5V*%
X92000000Y-127000000D02*
X92000000Y-116500000D01*
X81500000Y-115500000D02*
X80600000Y-114600000D01*
X80600000Y-114600000D02*
X80600000Y-109100000D01*
X92000000Y-116500000D02*
X91000000Y-115500000D01*
X91000000Y-115500000D02*
X81500000Y-115500000D01*
D29*
%TO.N,+3V3*%
X69000000Y-133500000D02*
X70300000Y-133500000D01*
D30*
X71500000Y-48750000D02*
X70750000Y-49500000D01*
D31*
X64450000Y-121500000D02*
X66500000Y-121500000D01*
D29*
X70300000Y-133500000D02*
X70400000Y-133400000D01*
D30*
X131050000Y-55500000D02*
X129500000Y-55500000D01*
D29*
X129700000Y-139500000D02*
X129600000Y-139600000D01*
D30*
X129500000Y-55500000D02*
X128750000Y-56250000D01*
D29*
X131050000Y-139500000D02*
X129700000Y-139500000D01*
D31*
X64450000Y-113500000D02*
X66500000Y-113500000D01*
D30*
X70750000Y-49500000D02*
X68950000Y-49500000D01*
D28*
X66500000Y-106500000D02*
X64450000Y-106500000D01*
D31*
X123400000Y-86800000D02*
X123400000Y-86600000D01*
D28*
X67400000Y-116200000D02*
X67400000Y-114800000D01*
D31*
X125400000Y-88600000D02*
X125200000Y-88600000D01*
X125200000Y-88600000D02*
X123400000Y-86800000D01*
D30*
%TO.N,VBUS*%
X102600000Y-127000000D02*
X102600000Y-115600000D01*
X137000000Y-72000000D02*
X137000000Y-114000000D01*
X135500000Y-71500000D02*
X136500000Y-71500000D01*
X124000000Y-114000000D02*
X104200000Y-114000000D01*
X102600000Y-115600000D02*
X104200000Y-114000000D01*
X137000000Y-114000000D02*
X136500000Y-114500000D01*
X136500000Y-114500000D02*
X135500000Y-114500000D01*
X136500000Y-71500000D02*
X137000000Y-72000000D01*
D28*
%TO.N,/SCL0*%
X85390000Y-108000000D02*
X94500000Y-108000000D01*
X122804957Y-91500000D02*
X126750000Y-95445043D01*
X111000000Y-91500000D02*
X122804957Y-91500000D01*
X94500000Y-108000000D02*
X111000000Y-91500000D01*
%TO.N,/SDA0*%
X111500000Y-92500000D02*
X122500000Y-92500000D01*
X95000000Y-109000000D02*
X111500000Y-92500000D01*
X85400000Y-109000000D02*
X95000000Y-109000000D01*
X127496043Y-95996043D02*
X127500000Y-96000000D01*
X122500000Y-92500000D02*
X125996043Y-95996043D01*
X125996043Y-95996043D02*
X127496043Y-95996043D01*
%TO.N,/SCL1*%
X85400000Y-103600000D02*
X90800000Y-103600000D01*
X92400000Y-102000000D02*
X92400000Y-71205612D01*
X90800000Y-103600000D02*
X92400000Y-102000000D01*
X92200000Y-71005612D02*
X92200000Y-69800000D01*
X92400000Y-71205612D02*
X92200000Y-71005612D01*
X92200000Y-69800000D02*
X92800000Y-69200000D01*
%TO.N,/CAM_GPIO0*%
X77000000Y-110600000D02*
X76499000Y-110099000D01*
X77000000Y-111200000D02*
X77000000Y-110600000D01*
X80800000Y-59800000D02*
X77777819Y-59800000D01*
X76499000Y-110099000D02*
X76499000Y-87301000D01*
X76499000Y-87301000D02*
X77600000Y-86200000D01*
X97000000Y-57750000D02*
X97000000Y-59000000D01*
X96200000Y-59800000D02*
X80800000Y-59800000D01*
X77777819Y-59800000D02*
X77563911Y-60013908D01*
X97000000Y-59000000D02*
X96200000Y-59800000D01*
%TO.N,/SDA1*%
X93200000Y-102600000D02*
X91400000Y-104400000D01*
X93205612Y-70896388D02*
X93200000Y-70902001D01*
X93200000Y-70902001D02*
X93200000Y-102600000D01*
X91400000Y-104400000D02*
X85400000Y-104400000D01*
X93205612Y-70605612D02*
X93205612Y-70896388D01*
X92800000Y-70200000D02*
X93205612Y-70605612D01*
%TO.N,/CAM_GPIO1*%
X77600000Y-59200000D02*
X76800000Y-60000000D01*
X80400000Y-59200000D02*
X77600000Y-59200000D01*
X76200000Y-111200000D02*
X76200000Y-110800000D01*
X76000000Y-110600000D02*
X76000000Y-87000000D01*
X96000000Y-57750000D02*
X96000000Y-58800000D01*
X95600000Y-59200000D02*
X80400000Y-59200000D01*
X76200000Y-110800000D02*
X76000000Y-110600000D01*
X76000000Y-87000000D02*
X76800000Y-86200000D01*
X96000000Y-58800000D02*
X95600000Y-59200000D01*
%TO.N,/Peripherals/SIG*%
X74000000Y-61000000D02*
X75600000Y-62600000D01*
X77780000Y-69580000D02*
X84387500Y-69580000D01*
X126500000Y-150000000D02*
X126200000Y-150000000D01*
X78500000Y-129700000D02*
X78500000Y-121750000D01*
X78400000Y-129800000D02*
X78500000Y-129700000D01*
X75600000Y-69160000D02*
X76020000Y-69580000D01*
D29*
X73400000Y-145000000D02*
X73800000Y-144600000D01*
D28*
X75500000Y-70100000D02*
X76020000Y-69580000D01*
X75600000Y-62600000D02*
X75600000Y-69160000D01*
X78400000Y-130500000D02*
X78400000Y-129800000D01*
X76020000Y-69580000D02*
X77780000Y-69580000D01*
X71945000Y-61000000D02*
X74000000Y-61000000D01*
X128055000Y-150000000D02*
X126500000Y-150000000D01*
D29*
X71945000Y-145000000D02*
X73400000Y-145000000D01*
D28*
X126200000Y-150000000D02*
X125600000Y-150600000D01*
X78500000Y-121750000D02*
X75500000Y-118750000D01*
X75500000Y-118750000D02*
X75500000Y-70100000D01*
%TO.N,/Peripherals/SENSOR_SCL*%
X69000000Y-137500000D02*
X70500000Y-137500000D01*
X70500000Y-137500000D02*
X70600000Y-137400000D01*
X73000000Y-53600000D02*
X72900000Y-53500000D01*
X72900000Y-53500000D02*
X68950000Y-53500000D01*
%TO.N,/GPIO/UART3_RX*%
X89200000Y-99300000D02*
X89200000Y-65630000D01*
X85400000Y-100000000D02*
X88500000Y-100000000D01*
X88500000Y-100000000D02*
X89200000Y-99300000D01*
X89200000Y-65630000D02*
X89500000Y-65330000D01*
%TO.N,/Peripherals/SENSOR_SDA*%
X86800000Y-97600000D02*
X86800000Y-63600000D01*
X69000000Y-135500000D02*
X70500000Y-135500000D01*
X73600000Y-52400000D02*
X72700000Y-51500000D01*
X86800000Y-63600000D02*
X86400000Y-63200000D01*
X70500000Y-135500000D02*
X70600000Y-135400000D01*
X86400000Y-98000000D02*
X86800000Y-97600000D01*
X72700000Y-51500000D02*
X68950000Y-51500000D01*
X77600000Y-63200000D02*
X73600000Y-59200000D01*
X86400000Y-63200000D02*
X77600000Y-63200000D01*
X85400000Y-98000000D02*
X86400000Y-98000000D01*
X73600000Y-59200000D02*
X73600000Y-52400000D01*
%TO.N,/GPIO/PWR_BUT*%
X64450000Y-128500000D02*
X66400000Y-128500000D01*
%TO.N,/GPIO/FAN_PWM*%
X79750000Y-130500000D02*
X79750000Y-121950000D01*
X77600000Y-96000000D02*
X80600000Y-96000000D01*
X77200000Y-96400000D02*
X77600000Y-96000000D01*
X77200000Y-109900000D02*
X77200000Y-96400000D01*
X77700000Y-110400000D02*
X77200000Y-109900000D01*
X79750000Y-121950000D02*
X77700000Y-119900000D01*
X77700000Y-119900000D02*
X77700000Y-110400000D01*
D29*
%TO.N,Net-(D2-K)*%
X119000000Y-148500000D02*
X118500000Y-148000000D01*
X119000000Y-150550000D02*
X119000000Y-148500000D01*
X79500000Y-148000000D02*
X79000000Y-148500000D01*
X86000000Y-148500000D02*
X86000000Y-150550000D01*
X79000000Y-148500000D02*
X79000000Y-150550000D01*
X86500000Y-148000000D02*
X86000000Y-148500000D01*
X112000000Y-150550000D02*
X112000000Y-148500000D01*
X112000000Y-148500000D02*
X111500000Y-148000000D01*
D28*
%TO.N,/I2S0_WS*%
X79400000Y-97200000D02*
X85400000Y-97200000D01*
X77800000Y-99800000D02*
X77800000Y-98800000D01*
X64450000Y-102500000D02*
X66500000Y-102500000D01*
X77800000Y-98800000D02*
X79400000Y-97200000D01*
%TO.N,/I2S0_SCLK*%
X66500000Y-104700000D02*
X66500000Y-104500000D01*
X64450000Y-119500000D02*
X66500000Y-119500000D01*
X64450000Y-104500000D02*
X66500000Y-104500000D01*
%TO.N,/VBUS_EN*%
X111000000Y-94500000D02*
X96850000Y-108650000D01*
X114500000Y-94500000D02*
X111000000Y-94500000D01*
X96850000Y-108650000D02*
X96850000Y-128400000D01*
%TO.N,/I2S0_SDI0*%
X64450000Y-100500000D02*
X66500000Y-100500000D01*
%TO.N,/I2S0_SDI1*%
X64450000Y-115500000D02*
X66500000Y-115500000D01*
%TD*%
%TA.AperFunction,Conductor*%
%TO.N,+BATT*%
G36*
X70701526Y-62519685D02*
G01*
X70747281Y-62572489D01*
X70757225Y-62641647D01*
X70734805Y-62696885D01*
X70665379Y-62792442D01*
X70568904Y-62981782D01*
X70503242Y-63183870D01*
X70503242Y-63183873D01*
X70492769Y-63250000D01*
X71540854Y-63250000D01*
X71502370Y-63316657D01*
X71470000Y-63437465D01*
X71470000Y-63562535D01*
X71502370Y-63683343D01*
X71540854Y-63750000D01*
X70492769Y-63750000D01*
X70503242Y-63816126D01*
X70503242Y-63816129D01*
X70568904Y-64018217D01*
X70665379Y-64207557D01*
X70790272Y-64379459D01*
X70790276Y-64379464D01*
X70940535Y-64529723D01*
X70940540Y-64529727D01*
X71105218Y-64649372D01*
X71147884Y-64704701D01*
X71153863Y-64774315D01*
X71121258Y-64836110D01*
X71105218Y-64850008D01*
X70940214Y-64969890D01*
X70940209Y-64969894D01*
X70789890Y-65120213D01*
X70664951Y-65292179D01*
X70568444Y-65481585D01*
X70502753Y-65683760D01*
X70485830Y-65790609D01*
X70469500Y-65893713D01*
X70469500Y-66106287D01*
X70502754Y-66316243D01*
X70536841Y-66421153D01*
X70568444Y-66518414D01*
X70664951Y-66707820D01*
X70789890Y-66879786D01*
X70940213Y-67030109D01*
X71112179Y-67155048D01*
X71112181Y-67155049D01*
X71112184Y-67155051D01*
X71301588Y-67251557D01*
X71503757Y-67317246D01*
X71713713Y-67350500D01*
X71713714Y-67350500D01*
X72176286Y-67350500D01*
X72176287Y-67350500D01*
X72386243Y-67317246D01*
X72588412Y-67251557D01*
X72777816Y-67155051D01*
X72823602Y-67121786D01*
X72949786Y-67030109D01*
X72949786Y-67030107D01*
X72949792Y-67030104D01*
X72961225Y-67018669D01*
X73022546Y-66985184D01*
X73092238Y-66990166D01*
X73136589Y-67018668D01*
X73239707Y-67121786D01*
X73239711Y-67121789D01*
X73370814Y-67209390D01*
X73370827Y-67209397D01*
X73472607Y-67251555D01*
X73516503Y-67269737D01*
X73651064Y-67296503D01*
X73671153Y-67300499D01*
X73671156Y-67300500D01*
X73671158Y-67300500D01*
X73828844Y-67300500D01*
X73828845Y-67300499D01*
X73983497Y-67269737D01*
X74129179Y-67209394D01*
X74260289Y-67121789D01*
X74371789Y-67010289D01*
X74459394Y-66879179D01*
X74519737Y-66733497D01*
X74550500Y-66578842D01*
X74550500Y-66421158D01*
X74550500Y-66421155D01*
X74550499Y-66421153D01*
X74529630Y-66316239D01*
X74519737Y-66266503D01*
X74519735Y-66266498D01*
X74459397Y-66120827D01*
X74459390Y-66120814D01*
X74371789Y-65989711D01*
X74371786Y-65989707D01*
X74260292Y-65878213D01*
X74260288Y-65878210D01*
X74129185Y-65790609D01*
X74129172Y-65790602D01*
X73983501Y-65730264D01*
X73983491Y-65730261D01*
X73828151Y-65699362D01*
X73811394Y-65690596D01*
X73792916Y-65686577D01*
X73767875Y-65667831D01*
X73766241Y-65666977D01*
X73764664Y-65665428D01*
X73764660Y-65665425D01*
X73730520Y-65631284D01*
X73618717Y-65519481D01*
X73618716Y-65519480D01*
X73531904Y-65469360D01*
X73531904Y-65469359D01*
X73531900Y-65469358D01*
X73481785Y-65440423D01*
X73329057Y-65399499D01*
X73325258Y-65398481D01*
X73265598Y-65362115D01*
X73246867Y-65335000D01*
X73225050Y-65292182D01*
X73100109Y-65120213D01*
X72949790Y-64969894D01*
X72949785Y-64969890D01*
X72784781Y-64850008D01*
X72742115Y-64794678D01*
X72736136Y-64725065D01*
X72768741Y-64663270D01*
X72784781Y-64649371D01*
X72949466Y-64529721D01*
X73099723Y-64379464D01*
X73099727Y-64379459D01*
X73224620Y-64207557D01*
X73321095Y-64018217D01*
X73386757Y-63816129D01*
X73386757Y-63816126D01*
X73397231Y-63750000D01*
X72349146Y-63750000D01*
X72387630Y-63683343D01*
X72420000Y-63562535D01*
X72420000Y-63437465D01*
X72387630Y-63316657D01*
X72349146Y-63250000D01*
X73397231Y-63250000D01*
X73386757Y-63183873D01*
X73386757Y-63183870D01*
X73321095Y-62981782D01*
X73224620Y-62792442D01*
X73155195Y-62696885D01*
X73131715Y-62631079D01*
X73147541Y-62563025D01*
X73197647Y-62514330D01*
X73255513Y-62500000D01*
X74599403Y-62500000D01*
X74666442Y-62519685D01*
X74687084Y-62536319D01*
X74963181Y-62812416D01*
X74996666Y-62873739D01*
X74999500Y-62900097D01*
X74999500Y-69080939D01*
X74999499Y-69080943D01*
X74999499Y-69239057D01*
X74999972Y-69240823D01*
X75000000Y-69250643D01*
X74999981Y-69250707D01*
X75000000Y-69250992D01*
X75000000Y-69731798D01*
X74983390Y-69793793D01*
X74976302Y-69806070D01*
X74975115Y-69808127D01*
X74940423Y-69868215D01*
X74899499Y-70020943D01*
X74899499Y-70020945D01*
X74899499Y-70189046D01*
X74899500Y-70189059D01*
X74899500Y-118663330D01*
X74899499Y-118663348D01*
X74899499Y-118829054D01*
X74899498Y-118829054D01*
X74940423Y-118981785D01*
X74969358Y-119031900D01*
X74969359Y-119031904D01*
X74969360Y-119031904D01*
X75019479Y-119118714D01*
X75019481Y-119118717D01*
X75138349Y-119237585D01*
X75138355Y-119237590D01*
X77863181Y-121962416D01*
X77896666Y-122023739D01*
X77899500Y-122050097D01*
X77899500Y-129432664D01*
X77895350Y-129448152D01*
X77896005Y-129461895D01*
X77882889Y-129494661D01*
X77869362Y-129518092D01*
X77869359Y-129518096D01*
X77840425Y-129568209D01*
X77840424Y-129568210D01*
X77840423Y-129568215D01*
X77799499Y-129720943D01*
X77799499Y-129720945D01*
X77799499Y-129889046D01*
X77799500Y-129889059D01*
X77799500Y-129920234D01*
X77779815Y-129987273D01*
X77778602Y-129989125D01*
X77690609Y-130120814D01*
X77690602Y-130120827D01*
X77630264Y-130266498D01*
X77630261Y-130266510D01*
X77599500Y-130421153D01*
X77599500Y-130578846D01*
X77630261Y-130733489D01*
X77630264Y-130733501D01*
X77690602Y-130879172D01*
X77690609Y-130879185D01*
X77778210Y-131010288D01*
X77778213Y-131010292D01*
X77889707Y-131121786D01*
X77889711Y-131121789D01*
X78020814Y-131209390D01*
X78020827Y-131209397D01*
X78166498Y-131269735D01*
X78166503Y-131269737D01*
X78316131Y-131299500D01*
X78321153Y-131300499D01*
X78321156Y-131300500D01*
X78321158Y-131300500D01*
X78478844Y-131300500D01*
X78478845Y-131300499D01*
X78633497Y-131269737D01*
X78779179Y-131209394D01*
X78910289Y-131121789D01*
X78910925Y-131121153D01*
X78987319Y-131044760D01*
X79048642Y-131011275D01*
X79118334Y-131016259D01*
X79162681Y-131044760D01*
X79239707Y-131121786D01*
X79239711Y-131121789D01*
X79370814Y-131209390D01*
X79370827Y-131209397D01*
X79516498Y-131269735D01*
X79516503Y-131269737D01*
X79666131Y-131299500D01*
X79671153Y-131300499D01*
X79671156Y-131300500D01*
X79671158Y-131300500D01*
X79828844Y-131300500D01*
X79828845Y-131300499D01*
X79983497Y-131269737D01*
X80129179Y-131209394D01*
X80260289Y-131121789D01*
X80260925Y-131121153D01*
X91699500Y-131121153D01*
X91699500Y-131278846D01*
X91730261Y-131433489D01*
X91730264Y-131433501D01*
X91790602Y-131579172D01*
X91790609Y-131579185D01*
X91878210Y-131710288D01*
X91878213Y-131710292D01*
X91989707Y-131821786D01*
X91989711Y-131821789D01*
X92120814Y-131909390D01*
X92120827Y-131909397D01*
X92266498Y-131969735D01*
X92266503Y-131969737D01*
X92421153Y-132000499D01*
X92421156Y-132000500D01*
X92421158Y-132000500D01*
X92578844Y-132000500D01*
X92578845Y-132000499D01*
X92733497Y-131969737D01*
X92879179Y-131909394D01*
X93010289Y-131821789D01*
X93121789Y-131710289D01*
X93209394Y-131579179D01*
X93269737Y-131433497D01*
X93300500Y-131278842D01*
X93300500Y-131121158D01*
X93300500Y-131121155D01*
X93300499Y-131121153D01*
X93279634Y-131016259D01*
X93269737Y-130966503D01*
X93254888Y-130930653D01*
X93209397Y-130820827D01*
X93209390Y-130820814D01*
X93121789Y-130689711D01*
X93121786Y-130689707D01*
X93010292Y-130578213D01*
X93010288Y-130578210D01*
X92879185Y-130490609D01*
X92879172Y-130490602D01*
X92733501Y-130430264D01*
X92733489Y-130430261D01*
X92578845Y-130399500D01*
X92578842Y-130399500D01*
X92421158Y-130399500D01*
X92421155Y-130399500D01*
X92266510Y-130430261D01*
X92266498Y-130430264D01*
X92120827Y-130490602D01*
X92120814Y-130490609D01*
X91989711Y-130578210D01*
X91989707Y-130578213D01*
X91878213Y-130689707D01*
X91878210Y-130689711D01*
X91790609Y-130820814D01*
X91790602Y-130820827D01*
X91730264Y-130966498D01*
X91730261Y-130966510D01*
X91699500Y-131121153D01*
X80260925Y-131121153D01*
X80303868Y-131078210D01*
X80354694Y-131027385D01*
X80371786Y-131010292D01*
X80371789Y-131010289D01*
X80459394Y-130879179D01*
X80519737Y-130733497D01*
X80550500Y-130578842D01*
X80550500Y-130421158D01*
X80550500Y-130421155D01*
X80550499Y-130421153D01*
X80519738Y-130266510D01*
X80519737Y-130266503D01*
X80483427Y-130178842D01*
X80459397Y-130120827D01*
X80459390Y-130120814D01*
X80434763Y-130083957D01*
X80392799Y-130021153D01*
X88399500Y-130021153D01*
X88399500Y-130178846D01*
X88430261Y-130333489D01*
X88430264Y-130333501D01*
X88490602Y-130479172D01*
X88490609Y-130479185D01*
X88578210Y-130610288D01*
X88578213Y-130610292D01*
X88689707Y-130721786D01*
X88689711Y-130721789D01*
X88820814Y-130809390D01*
X88820827Y-130809397D01*
X88966498Y-130869735D01*
X88966503Y-130869737D01*
X89116131Y-130899500D01*
X89121153Y-130900499D01*
X89121156Y-130900500D01*
X89121158Y-130900500D01*
X89278844Y-130900500D01*
X89278845Y-130900499D01*
X89433497Y-130869737D01*
X89551592Y-130820821D01*
X89579172Y-130809397D01*
X89579172Y-130809396D01*
X89579179Y-130809394D01*
X89710289Y-130721789D01*
X89821789Y-130610289D01*
X89909394Y-130479179D01*
X89969737Y-130333497D01*
X90000500Y-130178842D01*
X90000500Y-130021158D01*
X90000500Y-130021155D01*
X89984209Y-129939258D01*
X89984209Y-129939257D01*
X89980608Y-129921153D01*
X94849500Y-129921153D01*
X94849500Y-130078846D01*
X94880261Y-130233489D01*
X94880264Y-130233501D01*
X94940602Y-130379172D01*
X94940609Y-130379185D01*
X95028210Y-130510288D01*
X95028213Y-130510292D01*
X95139707Y-130621786D01*
X95139711Y-130621789D01*
X95270814Y-130709390D01*
X95270827Y-130709397D01*
X95416498Y-130769735D01*
X95416503Y-130769737D01*
X95571153Y-130800499D01*
X95571156Y-130800500D01*
X95571158Y-130800500D01*
X95728844Y-130800500D01*
X95728845Y-130800499D01*
X95883497Y-130769737D01*
X96029179Y-130709394D01*
X96160289Y-130621789D01*
X96271789Y-130510289D01*
X96359394Y-130379179D01*
X96419737Y-130233497D01*
X96450500Y-130078842D01*
X96450500Y-129921158D01*
X96450500Y-129921155D01*
X96450499Y-129921153D01*
X96442126Y-129879060D01*
X96419737Y-129766503D01*
X96417163Y-129760288D01*
X96359397Y-129620827D01*
X96359390Y-129620814D01*
X96271789Y-129489711D01*
X96271786Y-129489707D01*
X96160292Y-129378213D01*
X96160288Y-129378210D01*
X96029185Y-129290609D01*
X96029172Y-129290602D01*
X95883501Y-129230264D01*
X95883489Y-129230261D01*
X95728845Y-129199500D01*
X95728842Y-129199500D01*
X95571158Y-129199500D01*
X95571155Y-129199500D01*
X95416510Y-129230261D01*
X95416498Y-129230264D01*
X95270827Y-129290602D01*
X95270814Y-129290609D01*
X95139711Y-129378210D01*
X95139707Y-129378213D01*
X95028213Y-129489707D01*
X95028210Y-129489711D01*
X94940609Y-129620814D01*
X94940602Y-129620827D01*
X94880264Y-129766498D01*
X94880261Y-129766510D01*
X94849500Y-129921153D01*
X89980608Y-129921153D01*
X89978834Y-129912237D01*
X89969737Y-129866503D01*
X89969735Y-129866498D01*
X89909397Y-129720827D01*
X89909390Y-129720814D01*
X89821789Y-129589711D01*
X89821786Y-129589707D01*
X89710292Y-129478213D01*
X89710288Y-129478210D01*
X89579185Y-129390609D01*
X89579172Y-129390602D01*
X89433501Y-129330264D01*
X89433489Y-129330261D01*
X89278845Y-129299500D01*
X89278842Y-129299500D01*
X89121158Y-129299500D01*
X89121155Y-129299500D01*
X88966510Y-129330261D01*
X88966498Y-129330264D01*
X88820827Y-129390602D01*
X88820814Y-129390609D01*
X88689711Y-129478210D01*
X88689707Y-129478213D01*
X88578213Y-129589707D01*
X88578210Y-129589711D01*
X88490609Y-129720814D01*
X88490602Y-129720827D01*
X88430264Y-129866498D01*
X88430261Y-129866510D01*
X88399500Y-130021153D01*
X80392799Y-130021153D01*
X80371398Y-129989125D01*
X80350520Y-129922448D01*
X80350500Y-129920234D01*
X80350500Y-128124000D01*
X80370185Y-128056961D01*
X80422989Y-128011206D01*
X80474500Y-128000000D01*
X95963652Y-128000000D01*
X96030691Y-128019685D01*
X96076446Y-128072489D01*
X96086390Y-128141647D01*
X96081233Y-128160434D01*
X96082031Y-128160676D01*
X96080261Y-128166510D01*
X96049500Y-128321153D01*
X96049500Y-128478846D01*
X96080261Y-128633489D01*
X96080264Y-128633501D01*
X96140602Y-128779172D01*
X96140609Y-128779185D01*
X96228210Y-128910288D01*
X96228213Y-128910292D01*
X96339707Y-129021786D01*
X96339711Y-129021789D01*
X96470814Y-129109390D01*
X96470827Y-129109397D01*
X96615530Y-129169334D01*
X96616503Y-129169737D01*
X96766131Y-129199500D01*
X96771153Y-129200499D01*
X96771156Y-129200500D01*
X96771158Y-129200500D01*
X96928844Y-129200500D01*
X96928845Y-129200499D01*
X97083497Y-129169737D01*
X97229179Y-129109394D01*
X97331111Y-129041284D01*
X97397786Y-129020408D01*
X97465166Y-129038892D01*
X97468847Y-129041257D01*
X97570821Y-129109394D01*
X97570823Y-129109395D01*
X97570827Y-129109397D01*
X97715530Y-129169334D01*
X97716503Y-129169737D01*
X97866131Y-129199500D01*
X97871153Y-129200499D01*
X97871156Y-129200500D01*
X97871158Y-129200500D01*
X98028844Y-129200500D01*
X98028845Y-129200499D01*
X98183497Y-129169737D01*
X98329179Y-129109394D01*
X98460289Y-129021789D01*
X98571789Y-128910289D01*
X98659394Y-128779179D01*
X98719737Y-128633497D01*
X98750500Y-128478842D01*
X98750500Y-128321158D01*
X98750500Y-128321155D01*
X98750499Y-128321153D01*
X98719738Y-128166510D01*
X98719737Y-128166503D01*
X98719732Y-128166492D01*
X98717969Y-128160676D01*
X98720549Y-128159893D01*
X98714314Y-128102008D01*
X98745576Y-128039523D01*
X98805657Y-128003858D01*
X98836348Y-128000000D01*
X121500000Y-128000000D01*
X121500000Y-124320259D01*
X125799500Y-124320259D01*
X125799500Y-124679740D01*
X125839746Y-125036935D01*
X125839748Y-125036951D01*
X125919737Y-125387407D01*
X125919741Y-125387419D01*
X126038465Y-125726711D01*
X126194432Y-126050579D01*
X126194434Y-126050582D01*
X126385685Y-126354956D01*
X126552891Y-126564626D01*
X126597709Y-126620827D01*
X126609812Y-126636003D01*
X126863997Y-126890188D01*
X127145044Y-127114315D01*
X127449418Y-127305566D01*
X127773292Y-127461536D01*
X128028119Y-127550703D01*
X128112580Y-127580258D01*
X128112592Y-127580262D01*
X128463052Y-127660252D01*
X128820260Y-127700499D01*
X128820261Y-127700500D01*
X128820264Y-127700500D01*
X129179739Y-127700500D01*
X129179739Y-127700499D01*
X129536948Y-127660252D01*
X129887408Y-127580262D01*
X130226708Y-127461536D01*
X130550582Y-127305566D01*
X130854956Y-127114315D01*
X131136003Y-126890188D01*
X131390188Y-126636003D01*
X131614315Y-126354956D01*
X131805566Y-126050582D01*
X131961536Y-125726708D01*
X132080262Y-125387408D01*
X132160252Y-125036948D01*
X132200500Y-124679736D01*
X132200500Y-124320264D01*
X132160252Y-123963052D01*
X132080262Y-123612592D01*
X131961536Y-123273292D01*
X131805566Y-122949418D01*
X131614315Y-122645044D01*
X131390188Y-122363997D01*
X131136003Y-122109812D01*
X130854956Y-121885685D01*
X130550582Y-121694434D01*
X130550579Y-121694432D01*
X130226711Y-121538465D01*
X129887419Y-121419741D01*
X129887407Y-121419737D01*
X129536951Y-121339748D01*
X129536935Y-121339746D01*
X129179740Y-121299500D01*
X129179736Y-121299500D01*
X128820264Y-121299500D01*
X128820259Y-121299500D01*
X128463064Y-121339746D01*
X128463048Y-121339748D01*
X128112592Y-121419737D01*
X128112580Y-121419741D01*
X127773288Y-121538465D01*
X127449420Y-121694432D01*
X127145045Y-121885684D01*
X126863997Y-122109811D01*
X126609811Y-122363997D01*
X126385684Y-122645045D01*
X126194432Y-122949420D01*
X126038465Y-123273288D01*
X125919741Y-123612580D01*
X125919737Y-123612592D01*
X125839748Y-123963048D01*
X125839746Y-123963064D01*
X125799500Y-124320259D01*
X121500000Y-124320259D01*
X121500000Y-121551362D01*
X121519685Y-121484323D01*
X121536319Y-121463681D01*
X123266511Y-119733489D01*
X125000000Y-118000000D01*
X125000000Y-114321153D01*
X126199500Y-114321153D01*
X126199500Y-114478846D01*
X126230261Y-114633489D01*
X126230264Y-114633501D01*
X126290602Y-114779172D01*
X126290609Y-114779185D01*
X126378210Y-114910288D01*
X126378213Y-114910292D01*
X126489707Y-115021786D01*
X126489711Y-115021789D01*
X126620814Y-115109390D01*
X126620827Y-115109397D01*
X126765530Y-115169334D01*
X126766503Y-115169737D01*
X126921153Y-115200499D01*
X126921156Y-115200500D01*
X126921158Y-115200500D01*
X127078844Y-115200500D01*
X127078845Y-115200499D01*
X127233497Y-115169737D01*
X127379179Y-115109394D01*
X127510289Y-115021789D01*
X127621789Y-114910289D01*
X127709394Y-114779179D01*
X127769737Y-114633497D01*
X127800500Y-114478842D01*
X127800500Y-114321158D01*
X127800500Y-114321155D01*
X127800499Y-114321153D01*
X127783063Y-114233497D01*
X127769737Y-114166503D01*
X127769735Y-114166498D01*
X127709397Y-114020827D01*
X127709390Y-114020814D01*
X127621789Y-113889711D01*
X127621786Y-113889707D01*
X127510292Y-113778213D01*
X127510288Y-113778210D01*
X127379185Y-113690609D01*
X127379172Y-113690602D01*
X127233501Y-113630264D01*
X127233489Y-113630261D01*
X127078845Y-113599500D01*
X127078842Y-113599500D01*
X126921158Y-113599500D01*
X126921155Y-113599500D01*
X126766510Y-113630261D01*
X126766498Y-113630264D01*
X126620827Y-113690602D01*
X126620814Y-113690609D01*
X126489711Y-113778210D01*
X126489707Y-113778213D01*
X126378213Y-113889707D01*
X126378210Y-113889711D01*
X126290609Y-114020814D01*
X126290602Y-114020827D01*
X126230264Y-114166498D01*
X126230261Y-114166510D01*
X126199500Y-114321153D01*
X125000000Y-114321153D01*
X125000000Y-107521153D01*
X126199500Y-107521153D01*
X126199500Y-107678846D01*
X126230261Y-107833489D01*
X126230264Y-107833501D01*
X126290602Y-107979172D01*
X126290609Y-107979185D01*
X126378210Y-108110288D01*
X126378213Y-108110292D01*
X126489707Y-108221786D01*
X126489711Y-108221789D01*
X126620814Y-108309390D01*
X126620827Y-108309397D01*
X126758695Y-108366503D01*
X126766503Y-108369737D01*
X126871418Y-108390606D01*
X126921153Y-108400499D01*
X126921156Y-108400500D01*
X126921158Y-108400500D01*
X127078844Y-108400500D01*
X127078845Y-108400499D01*
X127233497Y-108369737D01*
X127379179Y-108309394D01*
X127510289Y-108221789D01*
X127621789Y-108110289D01*
X127709394Y-107979179D01*
X127769737Y-107833497D01*
X127800500Y-107678842D01*
X127800500Y-107521158D01*
X127800500Y-107521155D01*
X127800499Y-107521153D01*
X127779686Y-107416520D01*
X127769737Y-107366503D01*
X127742398Y-107300500D01*
X127709397Y-107220827D01*
X127709390Y-107220814D01*
X127621789Y-107089711D01*
X127621786Y-107089707D01*
X127510292Y-106978213D01*
X127510288Y-106978210D01*
X127379185Y-106890609D01*
X127379172Y-106890602D01*
X127233501Y-106830264D01*
X127233489Y-106830261D01*
X127078845Y-106799500D01*
X127078842Y-106799500D01*
X126921158Y-106799500D01*
X126921155Y-106799500D01*
X126766510Y-106830261D01*
X126766498Y-106830264D01*
X126620827Y-106890602D01*
X126620814Y-106890609D01*
X126489711Y-106978210D01*
X126489707Y-106978213D01*
X126378213Y-107089707D01*
X126378210Y-107089711D01*
X126290609Y-107220814D01*
X126290602Y-107220827D01*
X126230264Y-107366498D01*
X126230261Y-107366510D01*
X126199500Y-107521153D01*
X125000000Y-107521153D01*
X125000000Y-104521153D01*
X126199500Y-104521153D01*
X126199500Y-104678846D01*
X126230261Y-104833489D01*
X126230264Y-104833501D01*
X126290602Y-104979172D01*
X126290609Y-104979185D01*
X126378210Y-105110288D01*
X126378213Y-105110292D01*
X126489707Y-105221786D01*
X126489711Y-105221789D01*
X126620814Y-105309390D01*
X126620827Y-105309397D01*
X126766498Y-105369735D01*
X126766503Y-105369737D01*
X126921153Y-105400499D01*
X126921156Y-105400500D01*
X126921158Y-105400500D01*
X127078844Y-105400500D01*
X127078845Y-105400499D01*
X127233497Y-105369737D01*
X127379179Y-105309394D01*
X127510289Y-105221789D01*
X127621789Y-105110289D01*
X127709394Y-104979179D01*
X127769737Y-104833497D01*
X127800500Y-104678842D01*
X127800500Y-104521158D01*
X127800500Y-104521155D01*
X127800499Y-104521153D01*
X127780734Y-104421789D01*
X127769737Y-104366503D01*
X127728314Y-104266498D01*
X127709397Y-104220827D01*
X127709390Y-104220814D01*
X127621789Y-104089711D01*
X127621786Y-104089707D01*
X127510292Y-103978213D01*
X127510288Y-103978210D01*
X127379185Y-103890609D01*
X127379172Y-103890602D01*
X127233501Y-103830264D01*
X127233489Y-103830261D01*
X127078845Y-103799500D01*
X127078842Y-103799500D01*
X126921158Y-103799500D01*
X126921155Y-103799500D01*
X126766510Y-103830261D01*
X126766498Y-103830264D01*
X126620827Y-103890602D01*
X126620814Y-103890609D01*
X126489711Y-103978210D01*
X126489707Y-103978213D01*
X126378213Y-104089707D01*
X126378210Y-104089711D01*
X126290609Y-104220814D01*
X126290602Y-104220827D01*
X126230264Y-104366498D01*
X126230261Y-104366510D01*
X126199500Y-104521153D01*
X125000000Y-104521153D01*
X125000000Y-96148597D01*
X125019685Y-96081558D01*
X125072489Y-96035803D01*
X125141647Y-96025859D01*
X125205203Y-96054884D01*
X125211681Y-96060916D01*
X125511182Y-96360417D01*
X125511192Y-96360428D01*
X125515522Y-96364758D01*
X125515523Y-96364759D01*
X125627327Y-96476563D01*
X125627329Y-96476564D01*
X125627333Y-96476567D01*
X125764252Y-96555616D01*
X125764259Y-96555620D01*
X125876062Y-96585577D01*
X125916985Y-96596543D01*
X125916986Y-96596543D01*
X126707363Y-96596543D01*
X126774402Y-96616228D01*
X126820157Y-96669032D01*
X126830101Y-96738190D01*
X126801076Y-96801746D01*
X126754815Y-96835104D01*
X126620827Y-96890602D01*
X126620814Y-96890609D01*
X126489711Y-96978210D01*
X126489707Y-96978213D01*
X126378213Y-97089707D01*
X126378210Y-97089711D01*
X126290609Y-97220814D01*
X126290602Y-97220827D01*
X126230264Y-97366498D01*
X126230261Y-97366510D01*
X126199500Y-97521153D01*
X126199500Y-97678846D01*
X126230261Y-97833489D01*
X126230264Y-97833501D01*
X126290602Y-97979172D01*
X126290609Y-97979185D01*
X126378210Y-98110288D01*
X126378213Y-98110292D01*
X126489707Y-98221786D01*
X126489711Y-98221789D01*
X126524322Y-98244916D01*
X126569127Y-98298529D01*
X126577834Y-98367854D01*
X126547679Y-98430881D01*
X126524323Y-98451119D01*
X126483781Y-98478208D01*
X126483775Y-98478213D01*
X126372281Y-98589707D01*
X126372278Y-98589711D01*
X126284677Y-98720814D01*
X126284670Y-98720827D01*
X126224332Y-98866498D01*
X126224329Y-98866510D01*
X126193568Y-99021153D01*
X126193568Y-99178846D01*
X126224329Y-99333489D01*
X126224332Y-99333501D01*
X126273642Y-99452548D01*
X126281111Y-99522018D01*
X126273642Y-99547452D01*
X126224332Y-99666498D01*
X126224329Y-99666510D01*
X126193568Y-99821153D01*
X126193568Y-99978846D01*
X126224329Y-100133489D01*
X126224332Y-100133501D01*
X126284670Y-100279172D01*
X126284677Y-100279185D01*
X126372278Y-100410288D01*
X126372281Y-100410292D01*
X126483776Y-100521787D01*
X126483779Y-100521789D01*
X126518389Y-100544915D01*
X126524321Y-100548878D01*
X126569127Y-100602491D01*
X126577834Y-100671815D01*
X126547680Y-100734843D01*
X126524324Y-100755082D01*
X126489709Y-100778211D01*
X126378213Y-100889707D01*
X126378210Y-100889711D01*
X126290609Y-101020814D01*
X126290602Y-101020827D01*
X126230264Y-101166498D01*
X126230261Y-101166510D01*
X126199500Y-101321153D01*
X126199500Y-101478846D01*
X126230261Y-101633489D01*
X126230264Y-101633501D01*
X126290602Y-101779172D01*
X126290609Y-101779185D01*
X126378210Y-101910288D01*
X126378213Y-101910292D01*
X126489707Y-102021786D01*
X126489711Y-102021789D01*
X126620814Y-102109390D01*
X126620827Y-102109397D01*
X126766498Y-102169735D01*
X126766503Y-102169737D01*
X126916131Y-102199500D01*
X126921153Y-102200499D01*
X126921156Y-102200500D01*
X126921158Y-102200500D01*
X127078844Y-102200500D01*
X127078845Y-102200499D01*
X127233497Y-102169737D01*
X127351592Y-102120821D01*
X127379172Y-102109397D01*
X127379172Y-102109396D01*
X127379179Y-102109394D01*
X127510289Y-102021789D01*
X127621789Y-101910289D01*
X127709394Y-101779179D01*
X127769737Y-101633497D01*
X127800500Y-101478842D01*
X127800500Y-101321158D01*
X127800500Y-101321155D01*
X127800499Y-101321153D01*
X127796391Y-101300499D01*
X127769737Y-101166503D01*
X127742398Y-101100500D01*
X127709397Y-101020827D01*
X127709390Y-101020814D01*
X127621789Y-100889711D01*
X127621786Y-100889707D01*
X127510292Y-100778213D01*
X127510288Y-100778210D01*
X127469745Y-100751120D01*
X127424940Y-100697508D01*
X127416233Y-100628183D01*
X127446387Y-100565155D01*
X127469744Y-100544916D01*
X127504357Y-100521789D01*
X127615857Y-100410289D01*
X127703462Y-100279179D01*
X127763805Y-100133497D01*
X127794568Y-99978842D01*
X127794568Y-99821158D01*
X127794568Y-99821155D01*
X127794567Y-99821153D01*
X127776488Y-99730263D01*
X127763805Y-99666503D01*
X127714493Y-99547452D01*
X127707024Y-99477983D01*
X127714493Y-99452548D01*
X127763803Y-99333501D01*
X127763805Y-99333497D01*
X127794568Y-99178842D01*
X127794568Y-99021158D01*
X127794568Y-99021155D01*
X127794567Y-99021153D01*
X127778780Y-98941789D01*
X127763805Y-98866503D01*
X127748805Y-98830289D01*
X127703465Y-98720827D01*
X127703458Y-98720814D01*
X127615857Y-98589711D01*
X127615854Y-98589707D01*
X127504360Y-98478213D01*
X127504354Y-98478208D01*
X127469744Y-98455082D01*
X127424940Y-98401470D01*
X127416233Y-98332145D01*
X127446388Y-98269117D01*
X127469747Y-98248878D01*
X127475677Y-98244916D01*
X127510289Y-98221789D01*
X127621789Y-98110289D01*
X127709394Y-97979179D01*
X127769737Y-97833497D01*
X127800500Y-97678842D01*
X127800500Y-97521158D01*
X127800500Y-97521155D01*
X127800499Y-97521153D01*
X127796291Y-97500000D01*
X127769737Y-97366503D01*
X127763425Y-97351265D01*
X127709397Y-97220827D01*
X127709390Y-97220814D01*
X127621789Y-97089711D01*
X127621786Y-97089707D01*
X127537476Y-97005397D01*
X127503991Y-96944074D01*
X127508975Y-96874382D01*
X127550847Y-96818449D01*
X127600965Y-96796099D01*
X127733497Y-96769737D01*
X127879179Y-96709394D01*
X128010289Y-96621789D01*
X128121789Y-96510289D01*
X128209394Y-96379179D01*
X128269737Y-96233497D01*
X128300500Y-96078842D01*
X128300500Y-95921158D01*
X128300500Y-95921155D01*
X128300499Y-95921153D01*
X128274531Y-95790606D01*
X128269737Y-95766503D01*
X128265462Y-95756181D01*
X128209397Y-95620827D01*
X128209390Y-95620814D01*
X128121789Y-95489711D01*
X128121786Y-95489707D01*
X128010292Y-95378213D01*
X128010288Y-95378210D01*
X127879185Y-95290609D01*
X127879172Y-95290602D01*
X127733501Y-95230264D01*
X127733491Y-95230261D01*
X127600965Y-95203900D01*
X127539054Y-95171515D01*
X127504480Y-95110799D01*
X127508220Y-95041030D01*
X127537474Y-94994603D01*
X127621789Y-94910289D01*
X127709394Y-94779179D01*
X127769737Y-94633497D01*
X127800500Y-94478842D01*
X127800500Y-94321158D01*
X127800500Y-94321155D01*
X127800499Y-94321153D01*
X127794245Y-94289711D01*
X127769737Y-94166503D01*
X127728904Y-94067922D01*
X127709397Y-94020827D01*
X127709390Y-94020814D01*
X127621789Y-93889711D01*
X127621786Y-93889707D01*
X127510292Y-93778213D01*
X127510288Y-93778210D01*
X127379185Y-93690609D01*
X127379172Y-93690602D01*
X127233501Y-93630264D01*
X127233489Y-93630261D01*
X127078845Y-93599500D01*
X127078842Y-93599500D01*
X126921158Y-93599500D01*
X126921155Y-93599500D01*
X126766510Y-93630261D01*
X126766498Y-93630264D01*
X126620827Y-93690602D01*
X126620814Y-93690609D01*
X126489711Y-93778210D01*
X126489707Y-93778213D01*
X126378213Y-93889707D01*
X126378210Y-93889711D01*
X126328249Y-93964484D01*
X126274637Y-94009289D01*
X126205312Y-94017996D01*
X126142285Y-93987842D01*
X126137466Y-93983274D01*
X125036319Y-92882127D01*
X125002834Y-92820804D01*
X125000000Y-92794446D01*
X125000000Y-89486348D01*
X125019685Y-89419309D01*
X125072489Y-89373554D01*
X125141647Y-89363610D01*
X125160434Y-89368766D01*
X125160676Y-89367969D01*
X125166492Y-89369732D01*
X125166503Y-89369737D01*
X125321153Y-89400499D01*
X125321156Y-89400500D01*
X125321158Y-89400500D01*
X125478844Y-89400500D01*
X125478845Y-89400499D01*
X125633497Y-89369737D01*
X125779179Y-89309394D01*
X125910289Y-89221789D01*
X126021789Y-89110289D01*
X126109394Y-88979179D01*
X126169737Y-88833497D01*
X126200500Y-88678842D01*
X126200500Y-88521158D01*
X126200500Y-88521155D01*
X126200499Y-88521153D01*
X126192338Y-88480127D01*
X126169737Y-88366503D01*
X126114645Y-88233497D01*
X126109397Y-88220827D01*
X126109390Y-88220814D01*
X126021789Y-88089711D01*
X126021786Y-88089707D01*
X125910292Y-87978213D01*
X125910288Y-87978210D01*
X125779185Y-87890609D01*
X125779172Y-87890602D01*
X125633501Y-87830264D01*
X125633489Y-87830261D01*
X125478845Y-87799500D01*
X125478842Y-87799500D01*
X125370808Y-87799500D01*
X125303769Y-87779815D01*
X125283127Y-87763181D01*
X125036319Y-87516373D01*
X125002834Y-87455050D01*
X125000000Y-87428692D01*
X125000000Y-83919738D01*
X130400915Y-83919738D01*
X130400915Y-84077431D01*
X130431676Y-84232074D01*
X130431679Y-84232086D01*
X130492017Y-84377757D01*
X130492024Y-84377770D01*
X130579625Y-84508873D01*
X130579628Y-84508877D01*
X130691122Y-84620371D01*
X130691126Y-84620374D01*
X130822229Y-84707975D01*
X130822242Y-84707982D01*
X130967913Y-84768320D01*
X130967918Y-84768322D01*
X131122568Y-84799084D01*
X131122571Y-84799085D01*
X131122573Y-84799085D01*
X131280259Y-84799085D01*
X131280260Y-84799084D01*
X131434912Y-84768322D01*
X131580594Y-84707979D01*
X131711704Y-84620374D01*
X131823204Y-84508874D01*
X131910809Y-84377764D01*
X131943020Y-84299999D01*
X131971325Y-84231665D01*
X132015166Y-84177261D01*
X132038434Y-84164556D01*
X132130112Y-84126582D01*
X132130112Y-84126581D01*
X132130119Y-84126579D01*
X132261229Y-84038974D01*
X132372729Y-83927474D01*
X132460334Y-83796364D01*
X132520677Y-83650682D01*
X132551440Y-83496027D01*
X132551440Y-83338343D01*
X132551440Y-83338340D01*
X132551439Y-83338338D01*
X132544715Y-83304534D01*
X132520677Y-83183688D01*
X132486987Y-83102352D01*
X132460337Y-83038012D01*
X132460330Y-83037999D01*
X132372729Y-82906896D01*
X132372726Y-82906892D01*
X132261232Y-82795398D01*
X132261228Y-82795395D01*
X132130125Y-82707794D01*
X132130112Y-82707787D01*
X131984441Y-82647449D01*
X131984429Y-82647446D01*
X131829785Y-82616685D01*
X131829782Y-82616685D01*
X131672098Y-82616685D01*
X131672095Y-82616685D01*
X131517450Y-82647446D01*
X131517438Y-82647449D01*
X131371767Y-82707787D01*
X131371754Y-82707794D01*
X131240651Y-82795395D01*
X131240647Y-82795398D01*
X131129153Y-82906892D01*
X131129150Y-82906896D01*
X131041549Y-83037999D01*
X131041542Y-83038012D01*
X130981030Y-83184104D01*
X130937189Y-83238508D01*
X130913922Y-83251213D01*
X130822239Y-83289189D01*
X130822229Y-83289194D01*
X130691126Y-83376795D01*
X130691122Y-83376798D01*
X130579628Y-83488292D01*
X130579625Y-83488296D01*
X130492024Y-83619399D01*
X130492017Y-83619412D01*
X130431679Y-83765083D01*
X130431676Y-83765095D01*
X130400915Y-83919738D01*
X125000000Y-83919738D01*
X125000000Y-75320259D01*
X125799500Y-75320259D01*
X125799500Y-75679740D01*
X125839746Y-76036935D01*
X125839748Y-76036951D01*
X125919737Y-76387407D01*
X125919741Y-76387419D01*
X126038465Y-76726711D01*
X126194432Y-77050579D01*
X126194434Y-77050582D01*
X126385685Y-77354956D01*
X126609812Y-77636003D01*
X126863997Y-77890188D01*
X127145044Y-78114315D01*
X127235118Y-78170912D01*
X127281409Y-78223246D01*
X127292058Y-78292300D01*
X127263683Y-78356148D01*
X127216599Y-78390467D01*
X127113364Y-78433228D01*
X127113354Y-78433233D01*
X126982251Y-78520834D01*
X126982247Y-78520837D01*
X126870753Y-78632331D01*
X126870750Y-78632335D01*
X126783149Y-78763438D01*
X126783144Y-78763448D01*
X126733833Y-78882495D01*
X126689992Y-78936899D01*
X126666725Y-78949603D01*
X126547678Y-78998914D01*
X126547668Y-78998919D01*
X126416565Y-79086520D01*
X126416561Y-79086523D01*
X126305067Y-79198017D01*
X126305064Y-79198021D01*
X126217463Y-79329124D01*
X126217456Y-79329137D01*
X126157118Y-79474808D01*
X126157115Y-79474820D01*
X126126354Y-79629463D01*
X126126354Y-79787156D01*
X126157115Y-79941799D01*
X126157118Y-79941811D01*
X126217456Y-80087482D01*
X126217463Y-80087495D01*
X126305064Y-80218598D01*
X126305067Y-80218602D01*
X126416561Y-80330096D01*
X126416565Y-80330099D01*
X126547668Y-80417700D01*
X126547681Y-80417707D01*
X126693352Y-80478045D01*
X126693357Y-80478047D01*
X126848007Y-80508809D01*
X126848010Y-80508810D01*
X126848012Y-80508810D01*
X127005698Y-80508810D01*
X127005699Y-80508809D01*
X127160351Y-80478047D01*
X127306033Y-80417704D01*
X127437143Y-80330099D01*
X127548643Y-80218599D01*
X127636248Y-80087489D01*
X127639830Y-80078842D01*
X127685560Y-79968439D01*
X127729400Y-79914035D01*
X127752669Y-79901330D01*
X127871712Y-79852021D01*
X127871712Y-79852020D01*
X127871719Y-79852018D01*
X128002829Y-79764413D01*
X128114329Y-79652913D01*
X128201934Y-79521803D01*
X128262277Y-79376121D01*
X128293040Y-79221466D01*
X128293040Y-79063782D01*
X128293040Y-79063779D01*
X128293039Y-79063777D01*
X128267162Y-78933687D01*
X128262277Y-78909127D01*
X128219315Y-78805408D01*
X128211847Y-78735940D01*
X128243122Y-78673461D01*
X128303211Y-78637809D01*
X128361467Y-78637066D01*
X128463052Y-78660252D01*
X128820260Y-78700499D01*
X128820261Y-78700500D01*
X128820264Y-78700500D01*
X129179739Y-78700500D01*
X129179739Y-78700499D01*
X129536948Y-78660252D01*
X129887408Y-78580262D01*
X130226708Y-78461536D01*
X130550582Y-78305566D01*
X130854956Y-78114315D01*
X131136003Y-77890188D01*
X131390188Y-77636003D01*
X131614315Y-77354956D01*
X131805566Y-77050582D01*
X131961536Y-76726708D01*
X132080262Y-76387408D01*
X132160252Y-76036948D01*
X132200500Y-75679736D01*
X132200500Y-75320264D01*
X132160252Y-74963052D01*
X132080262Y-74612592D01*
X131961536Y-74273292D01*
X131805566Y-73949418D01*
X131614315Y-73645044D01*
X131390188Y-73363997D01*
X131136003Y-73109812D01*
X130854956Y-72885685D01*
X130550582Y-72694434D01*
X130550579Y-72694432D01*
X130226711Y-72538465D01*
X129887419Y-72419741D01*
X129887407Y-72419737D01*
X129536951Y-72339748D01*
X129536935Y-72339746D01*
X129179740Y-72299500D01*
X129179736Y-72299500D01*
X128820264Y-72299500D01*
X128820259Y-72299500D01*
X128463064Y-72339746D01*
X128463048Y-72339748D01*
X128112592Y-72419737D01*
X128112580Y-72419741D01*
X127773288Y-72538465D01*
X127449420Y-72694432D01*
X127145045Y-72885684D01*
X126863997Y-73109811D01*
X126609811Y-73363997D01*
X126385684Y-73645045D01*
X126194432Y-73949420D01*
X126038465Y-74273288D01*
X125919741Y-74612580D01*
X125919737Y-74612592D01*
X125839748Y-74963048D01*
X125839746Y-74963064D01*
X125799500Y-75320259D01*
X125000000Y-75320259D01*
X125000000Y-70721153D01*
X126199500Y-70721153D01*
X126199500Y-70878846D01*
X126230261Y-71033489D01*
X126230264Y-71033501D01*
X126290602Y-71179172D01*
X126290609Y-71179185D01*
X126378210Y-71310288D01*
X126378213Y-71310292D01*
X126489707Y-71421786D01*
X126489711Y-71421789D01*
X126620814Y-71509390D01*
X126620827Y-71509397D01*
X126766498Y-71569735D01*
X126766503Y-71569737D01*
X126921153Y-71600499D01*
X126921156Y-71600500D01*
X126921158Y-71600500D01*
X127078844Y-71600500D01*
X127078845Y-71600499D01*
X127233497Y-71569737D01*
X127379179Y-71509394D01*
X127510289Y-71421789D01*
X127621789Y-71310289D01*
X127709394Y-71179179D01*
X127769737Y-71033497D01*
X127800500Y-70878842D01*
X127800500Y-70721158D01*
X127800500Y-70721155D01*
X127800499Y-70721153D01*
X127769738Y-70566510D01*
X127769737Y-70566503D01*
X127765920Y-70557288D01*
X127709397Y-70420827D01*
X127709390Y-70420814D01*
X127621789Y-70289711D01*
X127621786Y-70289707D01*
X127510292Y-70178213D01*
X127510288Y-70178210D01*
X127379185Y-70090609D01*
X127379172Y-70090602D01*
X127233501Y-70030264D01*
X127233489Y-70030261D01*
X127078845Y-69999500D01*
X127078842Y-69999500D01*
X126921158Y-69999500D01*
X126921155Y-69999500D01*
X126766510Y-70030261D01*
X126766498Y-70030264D01*
X126620827Y-70090602D01*
X126620814Y-70090609D01*
X126489711Y-70178210D01*
X126489707Y-70178213D01*
X126378213Y-70289707D01*
X126378210Y-70289711D01*
X126290609Y-70420814D01*
X126290602Y-70420827D01*
X126230264Y-70566498D01*
X126230261Y-70566510D01*
X126199500Y-70721153D01*
X125000000Y-70721153D01*
X125000000Y-66724500D01*
X125019685Y-66657461D01*
X125072489Y-66611706D01*
X125124000Y-66600500D01*
X126462465Y-66600500D01*
X126529504Y-66620185D01*
X126575259Y-66672989D01*
X126585823Y-66711898D01*
X126590001Y-66752797D01*
X126590001Y-66752799D01*
X126631880Y-66879179D01*
X126645186Y-66919334D01*
X126737288Y-67068656D01*
X126861344Y-67192712D01*
X127010666Y-67284814D01*
X127177203Y-67339999D01*
X127279991Y-67350500D01*
X128830008Y-67350499D01*
X128932797Y-67339999D01*
X129099334Y-67284814D01*
X129248656Y-67192712D01*
X129372712Y-67068656D01*
X129464814Y-66919334D01*
X129519999Y-66752797D01*
X129530500Y-66650009D01*
X129530499Y-65349992D01*
X129528151Y-65327011D01*
X129519999Y-65247203D01*
X129519998Y-65247200D01*
X129515457Y-65233497D01*
X129464814Y-65080666D01*
X129372712Y-64931344D01*
X129248656Y-64807288D01*
X129099334Y-64715186D01*
X129099332Y-64715185D01*
X129093440Y-64711551D01*
X129046716Y-64659603D01*
X129035493Y-64590641D01*
X129063337Y-64526558D01*
X129070856Y-64518330D01*
X129209728Y-64379458D01*
X129334620Y-64207557D01*
X129431095Y-64018217D01*
X129496757Y-63816129D01*
X129496757Y-63816126D01*
X129507231Y-63750000D01*
X128459146Y-63750000D01*
X128497630Y-63683343D01*
X128530000Y-63562535D01*
X128530000Y-63437465D01*
X128497630Y-63316657D01*
X128459146Y-63250000D01*
X129507231Y-63250000D01*
X129496757Y-63183873D01*
X129496757Y-63183870D01*
X129431095Y-62981782D01*
X129334620Y-62792442D01*
X129265195Y-62696885D01*
X129241715Y-62631079D01*
X129257541Y-62563025D01*
X129307647Y-62514330D01*
X129365513Y-62500000D01*
X133876000Y-62500000D01*
X133943039Y-62519685D01*
X133988794Y-62572489D01*
X134000000Y-62624000D01*
X134000000Y-116182052D01*
X133980315Y-116249091D01*
X133927511Y-116294846D01*
X133900192Y-116303669D01*
X133766508Y-116330261D01*
X133766498Y-116330264D01*
X133620827Y-116390602D01*
X133620814Y-116390609D01*
X133489711Y-116478210D01*
X133489707Y-116478213D01*
X133378213Y-116589707D01*
X133378210Y-116589711D01*
X133290609Y-116720814D01*
X133290602Y-116720827D01*
X133230264Y-116866498D01*
X133230261Y-116866510D01*
X133199500Y-117021153D01*
X133199500Y-117178846D01*
X133230261Y-117333489D01*
X133230264Y-117333501D01*
X133279574Y-117452548D01*
X133287043Y-117522018D01*
X133279574Y-117547452D01*
X133230264Y-117666498D01*
X133230261Y-117666510D01*
X133199500Y-117821153D01*
X133199500Y-117978846D01*
X133230261Y-118133489D01*
X133230264Y-118133501D01*
X133290602Y-118279172D01*
X133290609Y-118279185D01*
X133378210Y-118410288D01*
X133378213Y-118410292D01*
X133489707Y-118521786D01*
X133489711Y-118521789D01*
X133620814Y-118609390D01*
X133620827Y-118609397D01*
X133731098Y-118655072D01*
X133766503Y-118669737D01*
X133818130Y-118680006D01*
X133900191Y-118696330D01*
X133962102Y-118728715D01*
X133996677Y-118789431D01*
X134000000Y-118817947D01*
X134000000Y-127887270D01*
X133980315Y-127954309D01*
X133963681Y-127974951D01*
X133434704Y-128503927D01*
X133394478Y-128530806D01*
X133370826Y-128540603D01*
X133370814Y-128540609D01*
X133239711Y-128628210D01*
X133239707Y-128628213D01*
X133128213Y-128739707D01*
X133128210Y-128739711D01*
X133040609Y-128870814D01*
X133040602Y-128870827D01*
X132980264Y-129016498D01*
X132980261Y-129016510D01*
X132949500Y-129171153D01*
X132949500Y-129328846D01*
X132980261Y-129483489D01*
X132980264Y-129483501D01*
X133040602Y-129629172D01*
X133040609Y-129629185D01*
X133128210Y-129760288D01*
X133128213Y-129760292D01*
X133239707Y-129871786D01*
X133239711Y-129871789D01*
X133370814Y-129959390D01*
X133370827Y-129959397D01*
X133516498Y-130019735D01*
X133516503Y-130019737D01*
X133671153Y-130050499D01*
X133671156Y-130050500D01*
X133671158Y-130050500D01*
X133828843Y-130050500D01*
X133851808Y-130045932D01*
X133921399Y-130052159D01*
X133976577Y-130095021D01*
X133999822Y-130160911D01*
X134000000Y-130167549D01*
X134000000Y-152675500D01*
X133980315Y-152742539D01*
X133927511Y-152788294D01*
X133876000Y-152799500D01*
X133818206Y-152799500D01*
X133735679Y-152807628D01*
X133456369Y-152835137D01*
X133099787Y-152906064D01*
X133099776Y-152906067D01*
X132751834Y-153011614D01*
X132415921Y-153150754D01*
X132415916Y-153150756D01*
X132095279Y-153322140D01*
X132095261Y-153322151D01*
X131792964Y-153524140D01*
X131792950Y-153524150D01*
X131511893Y-153754807D01*
X131254807Y-154011893D01*
X131024150Y-154292950D01*
X131024140Y-154292964D01*
X130822151Y-154595261D01*
X130822140Y-154595279D01*
X130650756Y-154915916D01*
X130650754Y-154915921D01*
X130511614Y-155251834D01*
X130406067Y-155599776D01*
X130406064Y-155599787D01*
X130335137Y-155956369D01*
X130299500Y-156318209D01*
X130299500Y-156681790D01*
X130335137Y-157043630D01*
X130406064Y-157400212D01*
X130406067Y-157400223D01*
X130511614Y-157748165D01*
X130650754Y-158084078D01*
X130650756Y-158084083D01*
X130775545Y-158317547D01*
X130789787Y-158385950D01*
X130764787Y-158451194D01*
X130708482Y-158492564D01*
X130666187Y-158500000D01*
X107000000Y-158500000D01*
X105783128Y-158500000D01*
X105716089Y-158480315D01*
X105670334Y-158427511D01*
X105660390Y-158358353D01*
X105689415Y-158294797D01*
X105704463Y-158280147D01*
X105867659Y-158146213D01*
X105867659Y-158146212D01*
X104979669Y-157258222D01*
X105061711Y-157195269D01*
X105270269Y-156986711D01*
X105333222Y-156904669D01*
X106221212Y-157792659D01*
X106221213Y-157792659D01*
X106389612Y-157587466D01*
X106389622Y-157587453D01*
X106580666Y-157301536D01*
X106580677Y-157301518D01*
X106742773Y-156998255D01*
X106742780Y-156998241D01*
X106874376Y-156680540D01*
X106974207Y-156351443D01*
X106974208Y-156351437D01*
X107041291Y-156014182D01*
X107041294Y-156014165D01*
X107075000Y-155671940D01*
X107075000Y-155328059D01*
X107041294Y-154985834D01*
X107041291Y-154985817D01*
X106974208Y-154648562D01*
X106974207Y-154648556D01*
X106874376Y-154319459D01*
X106742780Y-154001758D01*
X106742773Y-154001744D01*
X106580677Y-153698481D01*
X106580666Y-153698463D01*
X106389622Y-153412546D01*
X106389612Y-153412533D01*
X106221213Y-153207339D01*
X106221212Y-153207338D01*
X105333221Y-154095329D01*
X105270269Y-154013289D01*
X105061711Y-153804731D01*
X104979668Y-153741777D01*
X105867660Y-152853786D01*
X105867659Y-152853785D01*
X105662467Y-152685387D01*
X105662453Y-152685377D01*
X105376536Y-152494333D01*
X105376518Y-152494322D01*
X105073255Y-152332226D01*
X105073241Y-152332219D01*
X104755540Y-152200623D01*
X104426443Y-152100792D01*
X104426437Y-152100791D01*
X104089182Y-152033708D01*
X104089165Y-152033705D01*
X103746941Y-152000000D01*
X103403059Y-152000000D01*
X103060834Y-152033705D01*
X103060817Y-152033708D01*
X102723562Y-152100791D01*
X102723556Y-152100792D01*
X102394459Y-152200623D01*
X102076758Y-152332219D01*
X102076744Y-152332226D01*
X101773481Y-152494322D01*
X101773463Y-152494333D01*
X101487546Y-152685377D01*
X101487532Y-152685387D01*
X101282338Y-152853786D01*
X102170330Y-153741778D01*
X102088289Y-153804731D01*
X101879731Y-154013289D01*
X101816778Y-154095330D01*
X100928786Y-153207338D01*
X100760387Y-153412532D01*
X100760377Y-153412546D01*
X100569333Y-153698463D01*
X100569322Y-153698481D01*
X100407226Y-154001744D01*
X100407219Y-154001758D01*
X100275623Y-154319459D01*
X100175792Y-154648556D01*
X100175791Y-154648562D01*
X100121117Y-154923432D01*
X100088732Y-154985343D01*
X100028017Y-155019917D01*
X99958247Y-155016178D01*
X99901575Y-154975312D01*
X99875994Y-154910294D01*
X99875500Y-154899241D01*
X99875500Y-153928552D01*
X99860196Y-153714572D01*
X99818772Y-153524150D01*
X99799371Y-153434962D01*
X99799370Y-153434960D01*
X99799369Y-153434954D01*
X99699367Y-153166839D01*
X99690584Y-153150754D01*
X99587532Y-152962028D01*
X99562229Y-152915690D01*
X99562224Y-152915682D01*
X99390745Y-152686612D01*
X99390729Y-152686594D01*
X99188405Y-152484270D01*
X99188387Y-152484254D01*
X98959317Y-152312775D01*
X98959309Y-152312770D01*
X98708166Y-152175635D01*
X98708167Y-152175635D01*
X98507502Y-152100791D01*
X98440046Y-152075631D01*
X98440043Y-152075630D01*
X98440037Y-152075628D01*
X98160433Y-152014804D01*
X97946450Y-151999500D01*
X97946448Y-151999500D01*
X94803552Y-151999500D01*
X94803549Y-151999500D01*
X94589566Y-152014804D01*
X94309962Y-152075628D01*
X94041833Y-152175635D01*
X93790690Y-152312770D01*
X93790682Y-152312775D01*
X93561612Y-152484254D01*
X93561594Y-152484270D01*
X93359270Y-152686594D01*
X93359254Y-152686612D01*
X93187775Y-152915682D01*
X93187770Y-152915690D01*
X93050635Y-153166833D01*
X92950628Y-153434962D01*
X92889804Y-153714566D01*
X92874500Y-153928549D01*
X92874500Y-157071450D01*
X92889804Y-157285433D01*
X92950628Y-157565037D01*
X92950630Y-157565043D01*
X92950631Y-157565046D01*
X93035527Y-157792660D01*
X93050635Y-157833166D01*
X93187770Y-158084309D01*
X93187775Y-158084317D01*
X93350498Y-158301690D01*
X93374915Y-158367154D01*
X93360063Y-158435427D01*
X93310658Y-158484832D01*
X93251231Y-158500000D01*
X69333813Y-158500000D01*
X69266774Y-158480315D01*
X69221019Y-158427511D01*
X69211075Y-158358353D01*
X69224455Y-158317547D01*
X69349243Y-158084083D01*
X69349247Y-158084076D01*
X69488386Y-157748164D01*
X69593930Y-157400233D01*
X69593932Y-157400223D01*
X69593935Y-157400212D01*
X69664862Y-157043630D01*
X69669331Y-156998255D01*
X69700500Y-156681794D01*
X69700500Y-156318206D01*
X69664862Y-155956369D01*
X69644411Y-155853553D01*
X69593935Y-155599787D01*
X69593932Y-155599776D01*
X69593931Y-155599773D01*
X69593930Y-155599767D01*
X69488386Y-155251836D01*
X69349247Y-154915924D01*
X69274033Y-154775209D01*
X69177859Y-154595279D01*
X69177858Y-154595277D01*
X69177853Y-154595268D01*
X68975854Y-154292956D01*
X68745197Y-154011899D01*
X68745196Y-154011898D01*
X68745192Y-154011893D01*
X68488106Y-153754807D01*
X68207049Y-153524150D01*
X68207048Y-153524149D01*
X68207044Y-153524146D01*
X67904732Y-153322147D01*
X67904727Y-153322144D01*
X67904720Y-153322140D01*
X67584083Y-153150756D01*
X67584078Y-153150754D01*
X67248165Y-153011614D01*
X66900223Y-152906067D01*
X66900212Y-152906064D01*
X66543630Y-152835137D01*
X66271111Y-152808296D01*
X66181794Y-152799500D01*
X66124000Y-152799500D01*
X66056961Y-152779815D01*
X66011206Y-152727011D01*
X66000000Y-152675500D01*
X66000000Y-144349983D01*
X70469500Y-144349983D01*
X70469500Y-145650001D01*
X70469501Y-145650018D01*
X70480000Y-145752796D01*
X70480001Y-145752799D01*
X70522081Y-145879786D01*
X70535186Y-145919334D01*
X70627288Y-146068656D01*
X70751344Y-146192712D01*
X70846747Y-146251557D01*
X70906558Y-146288448D01*
X70953283Y-146340396D01*
X70964506Y-146409358D01*
X70936663Y-146473441D01*
X70929144Y-146481668D01*
X70790271Y-146620541D01*
X70665379Y-146792442D01*
X70568904Y-146981782D01*
X70503242Y-147183870D01*
X70503242Y-147183873D01*
X70492769Y-147250000D01*
X71540854Y-147250000D01*
X71502370Y-147316657D01*
X71470000Y-147437465D01*
X71470000Y-147562535D01*
X71502370Y-147683343D01*
X71540854Y-147750000D01*
X70492769Y-147750000D01*
X70503242Y-147816126D01*
X70503242Y-147816129D01*
X70568904Y-148018217D01*
X70665379Y-148207557D01*
X70790272Y-148379459D01*
X70790276Y-148379464D01*
X70940535Y-148529723D01*
X70940540Y-148529727D01*
X71105218Y-148649372D01*
X71147884Y-148704701D01*
X71153863Y-148774315D01*
X71121258Y-148836110D01*
X71105218Y-148850008D01*
X70940214Y-148969890D01*
X70940209Y-148969894D01*
X70789890Y-149120213D01*
X70664951Y-149292179D01*
X70568444Y-149481585D01*
X70568443Y-149481587D01*
X70568443Y-149481588D01*
X70543593Y-149558069D01*
X70502753Y-149683760D01*
X70469500Y-149893713D01*
X70469500Y-150106286D01*
X70487640Y-150220821D01*
X70502754Y-150316243D01*
X70562665Y-150500630D01*
X70568444Y-150518414D01*
X70664951Y-150707820D01*
X70789890Y-150879786D01*
X70940213Y-151030109D01*
X71112179Y-151155048D01*
X71112181Y-151155049D01*
X71112184Y-151155051D01*
X71301588Y-151251557D01*
X71503757Y-151317246D01*
X71713713Y-151350500D01*
X71713714Y-151350500D01*
X72176286Y-151350500D01*
X72176287Y-151350500D01*
X72386243Y-151317246D01*
X72588412Y-151251557D01*
X72777816Y-151155051D01*
X72839426Y-151110289D01*
X72949786Y-151030109D01*
X72949788Y-151030106D01*
X72949792Y-151030104D01*
X73100104Y-150879792D01*
X73100108Y-150879786D01*
X73156903Y-150801615D01*
X73212233Y-150758949D01*
X73257221Y-150750500D01*
X73323920Y-150750500D01*
X73421462Y-150731096D01*
X73468913Y-150721658D01*
X73605495Y-150665084D01*
X73670207Y-150621845D01*
X73728416Y-150582952D01*
X74065299Y-150246067D01*
X74105524Y-150219191D01*
X74129179Y-150209394D01*
X74160615Y-150188389D01*
X77899500Y-150188389D01*
X77899500Y-150911610D01*
X77924373Y-151068657D01*
X77926598Y-151082701D01*
X77980127Y-151247445D01*
X78058768Y-151401788D01*
X78160586Y-151541928D01*
X78283072Y-151664414D01*
X78423212Y-151766232D01*
X78577555Y-151844873D01*
X78742299Y-151898402D01*
X78913389Y-151925500D01*
X78913390Y-151925500D01*
X79086610Y-151925500D01*
X79086611Y-151925500D01*
X79257701Y-151898402D01*
X79422445Y-151844873D01*
X79576788Y-151766232D01*
X79716928Y-151664414D01*
X79824836Y-151556505D01*
X79886155Y-151523023D01*
X79955847Y-151528007D01*
X80011781Y-151569878D01*
X80018053Y-151579093D01*
X80057682Y-151643343D01*
X80181654Y-151767315D01*
X80330875Y-151859356D01*
X80330880Y-151859358D01*
X80497302Y-151914505D01*
X80497309Y-151914506D01*
X80600019Y-151924999D01*
X80749999Y-151924999D01*
X80750000Y-151924998D01*
X80750000Y-150830330D01*
X80769745Y-150850075D01*
X80855255Y-150899444D01*
X80950630Y-150925000D01*
X81049370Y-150925000D01*
X81144745Y-150899444D01*
X81230255Y-150850075D01*
X81250000Y-150830330D01*
X81250000Y-151924999D01*
X81399972Y-151924999D01*
X81399986Y-151924998D01*
X81502697Y-151914505D01*
X81669119Y-151859358D01*
X81669124Y-151859356D01*
X81818345Y-151767315D01*
X81942315Y-151643345D01*
X82034356Y-151494124D01*
X82034358Y-151494119D01*
X82089505Y-151327697D01*
X82089506Y-151327690D01*
X82099999Y-151224986D01*
X82100000Y-151224973D01*
X82100000Y-150800000D01*
X81280330Y-150800000D01*
X81300075Y-150780255D01*
X81349444Y-150694745D01*
X81375000Y-150599370D01*
X81375000Y-150500630D01*
X81349444Y-150405255D01*
X81300075Y-150319745D01*
X81280330Y-150300000D01*
X82099999Y-150300000D01*
X82099999Y-150188389D01*
X84899500Y-150188389D01*
X84899500Y-150911610D01*
X84924373Y-151068657D01*
X84926598Y-151082701D01*
X84980127Y-151247445D01*
X85058768Y-151401788D01*
X85160586Y-151541928D01*
X85283072Y-151664414D01*
X85423212Y-151766232D01*
X85577555Y-151844873D01*
X85742299Y-151898402D01*
X85913389Y-151925500D01*
X85913390Y-151925500D01*
X86086610Y-151925500D01*
X86086611Y-151925500D01*
X86257701Y-151898402D01*
X86422445Y-151844873D01*
X86576788Y-151766232D01*
X86716928Y-151664414D01*
X86824836Y-151556505D01*
X86886155Y-151523023D01*
X86955847Y-151528007D01*
X87011781Y-151569878D01*
X87018053Y-151579093D01*
X87057682Y-151643343D01*
X87181654Y-151767315D01*
X87330875Y-151859356D01*
X87330880Y-151859358D01*
X87497302Y-151914505D01*
X87497309Y-151914506D01*
X87600019Y-151924999D01*
X87749999Y-151924999D01*
X87750000Y-151924998D01*
X87750000Y-150830330D01*
X87769745Y-150850075D01*
X87855255Y-150899444D01*
X87950630Y-150925000D01*
X88049370Y-150925000D01*
X88144745Y-150899444D01*
X88230255Y-150850075D01*
X88250000Y-150830330D01*
X88250000Y-151924999D01*
X88399972Y-151924999D01*
X88399986Y-151924998D01*
X88502697Y-151914505D01*
X88669119Y-151859358D01*
X88669124Y-151859356D01*
X88818345Y-151767315D01*
X88942315Y-151643345D01*
X89034356Y-151494124D01*
X89034358Y-151494119D01*
X89089505Y-151327697D01*
X89089506Y-151327690D01*
X89099999Y-151224986D01*
X89100000Y-151224973D01*
X89100000Y-150800000D01*
X88280330Y-150800000D01*
X88300075Y-150780255D01*
X88349444Y-150694745D01*
X88375000Y-150599370D01*
X88375000Y-150500630D01*
X88349444Y-150405255D01*
X88300075Y-150319745D01*
X88280330Y-150300000D01*
X89099999Y-150300000D01*
X89099999Y-149875028D01*
X89099998Y-149875013D01*
X89089505Y-149772302D01*
X89034358Y-149605880D01*
X89034356Y-149605875D01*
X88942315Y-149456654D01*
X88818345Y-149332684D01*
X88669124Y-149240643D01*
X88669119Y-149240641D01*
X88502697Y-149185494D01*
X88502690Y-149185493D01*
X88399986Y-149175000D01*
X88250000Y-149175000D01*
X88250000Y-150269670D01*
X88230255Y-150249925D01*
X88144745Y-150200556D01*
X88049370Y-150175000D01*
X87950630Y-150175000D01*
X87855255Y-150200556D01*
X87769745Y-150249925D01*
X87750000Y-150269670D01*
X87750000Y-149175000D01*
X87600027Y-149175000D01*
X87600012Y-149175001D01*
X87497302Y-149185494D01*
X87330880Y-149240641D01*
X87330875Y-149240643D01*
X87181654Y-149332684D01*
X87057684Y-149456654D01*
X87018053Y-149520907D01*
X87001999Y-149535345D01*
X86989546Y-149552980D01*
X86976538Y-149558246D01*
X86966105Y-149567631D01*
X86944797Y-149571098D01*
X86924783Y-149579202D01*
X86910990Y-149576599D01*
X86897142Y-149578853D01*
X86877343Y-149570250D01*
X86856125Y-149566247D01*
X86838307Y-149553290D01*
X86833060Y-149551010D01*
X86827295Y-149545887D01*
X86826071Y-149544729D01*
X86716928Y-149435586D01*
X86690113Y-149416103D01*
X86684281Y-149410586D01*
X86670572Y-149387054D01*
X86653948Y-149365495D01*
X86652014Y-149355199D01*
X86649110Y-149350214D01*
X86649481Y-149341711D01*
X86645500Y-149320509D01*
X86645500Y-148888394D01*
X86665185Y-148821355D01*
X86717989Y-148775600D01*
X86733484Y-148769742D01*
X86733495Y-148769737D01*
X86733497Y-148769737D01*
X86879179Y-148709394D01*
X87010289Y-148621789D01*
X87121789Y-148510289D01*
X87209394Y-148379179D01*
X87269737Y-148233497D01*
X87300500Y-148078842D01*
X87300500Y-147921158D01*
X87300500Y-147921155D01*
X87300499Y-147921153D01*
X110699500Y-147921153D01*
X110699500Y-148078846D01*
X110730261Y-148233489D01*
X110730263Y-148233497D01*
X110790602Y-148379172D01*
X110790609Y-148379185D01*
X110878210Y-148510288D01*
X110878213Y-148510292D01*
X110989707Y-148621786D01*
X110989711Y-148621789D01*
X111120814Y-148709390D01*
X111120827Y-148709397D01*
X111272131Y-148772068D01*
X111271687Y-148773139D01*
X111324924Y-148808019D01*
X111353388Y-148871828D01*
X111354500Y-148888394D01*
X111354500Y-149320509D01*
X111334815Y-149387548D01*
X111303387Y-149420826D01*
X111283072Y-149435585D01*
X111160588Y-149558069D01*
X111160588Y-149558070D01*
X111160586Y-149558072D01*
X111145493Y-149578846D01*
X111058768Y-149698211D01*
X110980128Y-149852552D01*
X110926597Y-150017302D01*
X110899500Y-150188389D01*
X110899500Y-150911610D01*
X110924373Y-151068657D01*
X110926598Y-151082701D01*
X110980127Y-151247445D01*
X111058768Y-151401788D01*
X111160586Y-151541928D01*
X111283072Y-151664414D01*
X111423212Y-151766232D01*
X111577555Y-151844873D01*
X111742299Y-151898402D01*
X111913389Y-151925500D01*
X111913390Y-151925500D01*
X112086610Y-151925500D01*
X112086611Y-151925500D01*
X112257701Y-151898402D01*
X112422445Y-151844873D01*
X112576788Y-151766232D01*
X112716928Y-151664414D01*
X112824836Y-151556505D01*
X112886155Y-151523023D01*
X112955847Y-151528007D01*
X113011781Y-151569878D01*
X113018053Y-151579093D01*
X113057682Y-151643343D01*
X113181654Y-151767315D01*
X113330875Y-151859356D01*
X113330880Y-151859358D01*
X113497302Y-151914505D01*
X113497309Y-151914506D01*
X113600019Y-151924999D01*
X113749999Y-151924999D01*
X113750000Y-151924998D01*
X113750000Y-150830330D01*
X113769745Y-150850075D01*
X113855255Y-150899444D01*
X113950630Y-150925000D01*
X114049370Y-150925000D01*
X114144745Y-150899444D01*
X114230255Y-150850075D01*
X114250000Y-150830330D01*
X114250000Y-151924999D01*
X114399972Y-151924999D01*
X114399986Y-151924998D01*
X114502697Y-151914505D01*
X114669119Y-151859358D01*
X114669124Y-151859356D01*
X114818345Y-151767315D01*
X114942315Y-151643345D01*
X115034356Y-151494124D01*
X115034358Y-151494119D01*
X115089505Y-151327697D01*
X115089506Y-151327690D01*
X115099999Y-151224986D01*
X115100000Y-151224973D01*
X115100000Y-150800000D01*
X114280330Y-150800000D01*
X114300075Y-150780255D01*
X114349444Y-150694745D01*
X114375000Y-150599370D01*
X114375000Y-150500630D01*
X114349444Y-150405255D01*
X114300075Y-150319745D01*
X114280330Y-150300000D01*
X115099999Y-150300000D01*
X115099999Y-149875028D01*
X115099998Y-149875013D01*
X115089505Y-149772302D01*
X115034358Y-149605880D01*
X115034356Y-149605875D01*
X114942315Y-149456654D01*
X114818345Y-149332684D01*
X114669124Y-149240643D01*
X114669119Y-149240641D01*
X114502697Y-149185494D01*
X114502690Y-149185493D01*
X114399986Y-149175000D01*
X114250000Y-149175000D01*
X114250000Y-150269670D01*
X114230255Y-150249925D01*
X114144745Y-150200556D01*
X114049370Y-150175000D01*
X113950630Y-150175000D01*
X113855255Y-150200556D01*
X113769745Y-150249925D01*
X113750000Y-150269670D01*
X113750000Y-149175000D01*
X113600027Y-149175000D01*
X113600012Y-149175001D01*
X113497302Y-149185494D01*
X113330880Y-149240641D01*
X113330875Y-149240643D01*
X113181654Y-149332684D01*
X113057684Y-149456654D01*
X113018053Y-149520907D01*
X113001999Y-149535345D01*
X112989546Y-149552980D01*
X112976538Y-149558246D01*
X112966105Y-149567631D01*
X112944797Y-149571098D01*
X112924783Y-149579202D01*
X112910990Y-149576599D01*
X112897142Y-149578853D01*
X112877343Y-149570250D01*
X112856125Y-149566247D01*
X112838307Y-149553290D01*
X112833060Y-149551010D01*
X112827295Y-149545887D01*
X112826071Y-149544729D01*
X112716928Y-149435586D01*
X112690113Y-149416103D01*
X112684281Y-149410586D01*
X112670572Y-149387054D01*
X112653948Y-149365495D01*
X112652014Y-149355199D01*
X112649110Y-149350214D01*
X112649481Y-149341711D01*
X112645500Y-149320509D01*
X112645500Y-148436423D01*
X112645499Y-148436419D01*
X112634169Y-148379458D01*
X112620694Y-148311715D01*
X112588295Y-148233497D01*
X112572035Y-148194241D01*
X112501393Y-148088518D01*
X112334027Y-147921153D01*
X117699500Y-147921153D01*
X117699500Y-148078846D01*
X117730261Y-148233489D01*
X117730263Y-148233497D01*
X117790602Y-148379172D01*
X117790609Y-148379185D01*
X117878210Y-148510288D01*
X117878213Y-148510292D01*
X117989707Y-148621786D01*
X117989711Y-148621789D01*
X118120814Y-148709390D01*
X118120827Y-148709397D01*
X118272131Y-148772068D01*
X118271687Y-148773139D01*
X118324924Y-148808019D01*
X118353388Y-148871828D01*
X118354500Y-148888394D01*
X118354500Y-149320509D01*
X118334815Y-149387548D01*
X118303387Y-149420826D01*
X118283072Y-149435585D01*
X118160588Y-149558069D01*
X118160588Y-149558070D01*
X118160586Y-149558072D01*
X118145493Y-149578846D01*
X118058768Y-149698211D01*
X117980128Y-149852552D01*
X117926597Y-150017302D01*
X117899500Y-150188389D01*
X117899500Y-150911610D01*
X117924373Y-151068657D01*
X117926598Y-151082701D01*
X117980127Y-151247445D01*
X118058768Y-151401788D01*
X118160586Y-151541928D01*
X118283072Y-151664414D01*
X118423212Y-151766232D01*
X118577555Y-151844873D01*
X118742299Y-151898402D01*
X118913389Y-151925500D01*
X118913390Y-151925500D01*
X119086610Y-151925500D01*
X119086611Y-151925500D01*
X119257701Y-151898402D01*
X119422445Y-151844873D01*
X119576788Y-151766232D01*
X119716928Y-151664414D01*
X119824836Y-151556505D01*
X119886155Y-151523023D01*
X119955847Y-151528007D01*
X120011781Y-151569878D01*
X120018053Y-151579093D01*
X120057682Y-151643343D01*
X120181654Y-151767315D01*
X120330875Y-151859356D01*
X120330880Y-151859358D01*
X120497302Y-151914505D01*
X120497309Y-151914506D01*
X120600019Y-151924999D01*
X120749999Y-151924999D01*
X120750000Y-151924998D01*
X120750000Y-150830330D01*
X120769745Y-150850075D01*
X120855255Y-150899444D01*
X120950630Y-150925000D01*
X121049370Y-150925000D01*
X121144745Y-150899444D01*
X121230255Y-150850075D01*
X121250000Y-150830330D01*
X121250000Y-151924999D01*
X121399972Y-151924999D01*
X121399986Y-151924998D01*
X121502697Y-151914505D01*
X121669119Y-151859358D01*
X121669124Y-151859356D01*
X121818345Y-151767315D01*
X121942315Y-151643345D01*
X122034356Y-151494124D01*
X122034358Y-151494119D01*
X122089505Y-151327697D01*
X122089506Y-151327690D01*
X122099999Y-151224986D01*
X122100000Y-151224973D01*
X122100000Y-150800000D01*
X121280330Y-150800000D01*
X121300075Y-150780255D01*
X121349444Y-150694745D01*
X121375000Y-150599370D01*
X121375000Y-150521153D01*
X124799500Y-150521153D01*
X124799500Y-150678846D01*
X124830261Y-150833489D01*
X124830264Y-150833501D01*
X124890602Y-150979172D01*
X124890609Y-150979185D01*
X124978210Y-151110288D01*
X124978213Y-151110292D01*
X125089707Y-151221786D01*
X125089711Y-151221789D01*
X125220814Y-151309390D01*
X125220827Y-151309397D01*
X125320060Y-151350500D01*
X125366503Y-151369737D01*
X125521153Y-151400499D01*
X125521156Y-151400500D01*
X125521158Y-151400500D01*
X125678844Y-151400500D01*
X125678845Y-151400499D01*
X125833497Y-151369737D01*
X125946166Y-151323067D01*
X125979172Y-151309397D01*
X125979172Y-151309396D01*
X125979179Y-151309394D01*
X126110289Y-151221789D01*
X126221789Y-151110289D01*
X126309394Y-150979179D01*
X126369737Y-150833497D01*
X126370776Y-150828272D01*
X126403156Y-150766362D01*
X126463869Y-150731784D01*
X126533639Y-150735518D01*
X126590314Y-150776381D01*
X126610100Y-150813453D01*
X126622236Y-150850075D01*
X126645186Y-150919334D01*
X126737288Y-151068656D01*
X126861344Y-151192712D01*
X127010666Y-151284814D01*
X127177203Y-151339999D01*
X127279991Y-151350500D01*
X128830008Y-151350499D01*
X128932797Y-151339999D01*
X129099334Y-151284814D01*
X129248656Y-151192712D01*
X129372712Y-151068656D01*
X129464814Y-150919334D01*
X129519999Y-150752797D01*
X129530500Y-150650009D01*
X129530499Y-149349992D01*
X129519999Y-149247203D01*
X129464814Y-149080666D01*
X129372712Y-148931344D01*
X129248656Y-148807288D01*
X129099334Y-148715186D01*
X129099332Y-148715185D01*
X129093440Y-148711551D01*
X129046716Y-148659603D01*
X129035493Y-148590641D01*
X129063337Y-148526558D01*
X129070856Y-148518330D01*
X129209728Y-148379458D01*
X129334620Y-148207557D01*
X129431095Y-148018217D01*
X129496757Y-147816129D01*
X129496757Y-147816126D01*
X129507231Y-147750000D01*
X128459146Y-147750000D01*
X128497630Y-147683343D01*
X128530000Y-147562535D01*
X128530000Y-147437465D01*
X128497630Y-147316657D01*
X128459146Y-147250000D01*
X129507231Y-147250000D01*
X129496757Y-147183873D01*
X129496757Y-147183870D01*
X129431095Y-146981782D01*
X129334620Y-146792442D01*
X129209727Y-146620540D01*
X129209723Y-146620535D01*
X129059464Y-146470276D01*
X129059459Y-146470272D01*
X128894781Y-146350627D01*
X128852115Y-146295297D01*
X128846136Y-146225684D01*
X128878741Y-146163889D01*
X128894776Y-146149994D01*
X129059792Y-146030104D01*
X129210104Y-145879792D01*
X129210106Y-145879788D01*
X129210109Y-145879786D01*
X129335048Y-145707820D01*
X129335047Y-145707820D01*
X129335051Y-145707816D01*
X129431557Y-145518412D01*
X129497246Y-145316243D01*
X129530500Y-145106287D01*
X129530500Y-144893713D01*
X129497246Y-144683757D01*
X129431557Y-144481588D01*
X129335051Y-144292184D01*
X129335049Y-144292181D01*
X129335048Y-144292179D01*
X129210109Y-144120213D01*
X129059786Y-143969890D01*
X128887820Y-143844951D01*
X128698414Y-143748444D01*
X128698413Y-143748443D01*
X128698412Y-143748443D01*
X128496243Y-143682754D01*
X128496241Y-143682753D01*
X128496240Y-143682753D01*
X128334957Y-143657208D01*
X128286287Y-143649500D01*
X127823713Y-143649500D01*
X127775042Y-143657208D01*
X127613760Y-143682753D01*
X127411585Y-143748444D01*
X127222179Y-143844951D01*
X127050211Y-143969892D01*
X127050201Y-143969900D01*
X127038765Y-143981336D01*
X126977440Y-144014817D01*
X126907749Y-144009828D01*
X126863409Y-143981330D01*
X126760292Y-143878213D01*
X126760288Y-143878210D01*
X126629185Y-143790609D01*
X126629172Y-143790602D01*
X126483501Y-143730264D01*
X126483489Y-143730261D01*
X126328845Y-143699500D01*
X126328842Y-143699500D01*
X126171158Y-143699500D01*
X126171155Y-143699500D01*
X126016510Y-143730261D01*
X126016498Y-143730264D01*
X125870827Y-143790602D01*
X125870814Y-143790609D01*
X125739711Y-143878210D01*
X125739707Y-143878213D01*
X125628213Y-143989707D01*
X125628210Y-143989711D01*
X125540609Y-144120814D01*
X125540602Y-144120827D01*
X125480264Y-144266498D01*
X125480261Y-144266510D01*
X125449500Y-144421153D01*
X125449500Y-144578846D01*
X125480261Y-144733489D01*
X125480264Y-144733501D01*
X125540602Y-144879172D01*
X125540609Y-144879185D01*
X125628210Y-145010288D01*
X125628213Y-145010292D01*
X125739710Y-145121789D01*
X125870815Y-145209390D01*
X125870821Y-145209394D01*
X125894475Y-145219191D01*
X125934703Y-145246071D01*
X126271586Y-145582954D01*
X126291657Y-145596364D01*
X126329793Y-145621845D01*
X126394505Y-145665084D01*
X126394506Y-145665084D01*
X126394507Y-145665085D01*
X126466154Y-145694762D01*
X126531087Y-145721658D01*
X126531091Y-145721658D01*
X126531092Y-145721659D01*
X126676079Y-145750500D01*
X126676082Y-145750500D01*
X126676083Y-145750500D01*
X126742779Y-145750500D01*
X126809818Y-145770185D01*
X126843097Y-145801615D01*
X126899892Y-145879788D01*
X127050209Y-146030105D01*
X127050214Y-146030109D01*
X127215218Y-146149991D01*
X127257884Y-146205320D01*
X127263863Y-146274934D01*
X127231258Y-146336729D01*
X127215218Y-146350627D01*
X127050540Y-146470272D01*
X127050535Y-146470276D01*
X126900276Y-146620535D01*
X126900272Y-146620540D01*
X126775379Y-146792442D01*
X126678904Y-146981782D01*
X126613242Y-147183870D01*
X126613242Y-147183873D01*
X126602769Y-147250000D01*
X127650854Y-147250000D01*
X127612370Y-147316657D01*
X127580000Y-147437465D01*
X127580000Y-147562535D01*
X127612370Y-147683343D01*
X127650854Y-147750000D01*
X126602769Y-147750000D01*
X126613242Y-147816126D01*
X126613242Y-147816129D01*
X126678904Y-148018217D01*
X126775379Y-148207557D01*
X126900272Y-148379459D01*
X126900276Y-148379464D01*
X127039143Y-148518331D01*
X127072628Y-148579654D01*
X127067644Y-148649346D01*
X127025772Y-148705279D01*
X127016559Y-148711551D01*
X126861342Y-148807289D01*
X126737289Y-148931342D01*
X126645187Y-149080663D01*
X126645186Y-149080666D01*
X126592176Y-149240641D01*
X126590001Y-149247204D01*
X126590000Y-149247205D01*
X126585823Y-149288102D01*
X126559427Y-149352793D01*
X126502247Y-149392945D01*
X126462465Y-149399500D01*
X126279057Y-149399500D01*
X126120943Y-149399500D01*
X125968215Y-149440423D01*
X125968214Y-149440423D01*
X125968212Y-149440424D01*
X125968209Y-149440425D01*
X125918096Y-149469359D01*
X125918095Y-149469360D01*
X125874689Y-149494420D01*
X125831285Y-149519479D01*
X125831282Y-149519481D01*
X125719480Y-149631283D01*
X125719480Y-149631284D01*
X125719478Y-149631286D01*
X125644849Y-149705915D01*
X125585337Y-149765427D01*
X125524014Y-149798911D01*
X125521848Y-149799362D01*
X125366508Y-149830261D01*
X125366498Y-149830264D01*
X125220827Y-149890602D01*
X125220814Y-149890609D01*
X125089711Y-149978210D01*
X125089707Y-149978213D01*
X124978213Y-150089707D01*
X124978210Y-150089711D01*
X124890609Y-150220814D01*
X124890602Y-150220827D01*
X124830264Y-150366498D01*
X124830261Y-150366510D01*
X124799500Y-150521153D01*
X121375000Y-150521153D01*
X121375000Y-150500630D01*
X121349444Y-150405255D01*
X121300075Y-150319745D01*
X121280330Y-150300000D01*
X122099999Y-150300000D01*
X122099999Y-149875028D01*
X122099998Y-149875013D01*
X122089505Y-149772302D01*
X122034358Y-149605880D01*
X122034356Y-149605875D01*
X121942315Y-149456654D01*
X121818345Y-149332684D01*
X121669124Y-149240643D01*
X121669119Y-149240641D01*
X121502697Y-149185494D01*
X121502690Y-149185493D01*
X121399986Y-149175000D01*
X121250000Y-149175000D01*
X121250000Y-150269670D01*
X121230255Y-150249925D01*
X121144745Y-150200556D01*
X121049370Y-150175000D01*
X120950630Y-150175000D01*
X120855255Y-150200556D01*
X120769745Y-150249925D01*
X120750000Y-150269670D01*
X120750000Y-149175000D01*
X120600027Y-149175000D01*
X120600012Y-149175001D01*
X120497302Y-149185494D01*
X120330880Y-149240641D01*
X120330875Y-149240643D01*
X120181654Y-149332684D01*
X120057684Y-149456654D01*
X120018053Y-149520907D01*
X120001999Y-149535345D01*
X119989546Y-149552980D01*
X119976538Y-149558246D01*
X119966105Y-149567631D01*
X119944797Y-149571098D01*
X119924783Y-149579202D01*
X119910990Y-149576599D01*
X119897142Y-149578853D01*
X119877343Y-149570250D01*
X119856125Y-149566247D01*
X119838307Y-149553290D01*
X119833060Y-149551010D01*
X119827295Y-149545887D01*
X119826071Y-149544729D01*
X119716928Y-149435586D01*
X119690113Y-149416103D01*
X119684281Y-149410586D01*
X119670572Y-149387054D01*
X119653948Y-149365495D01*
X119652014Y-149355199D01*
X119649110Y-149350214D01*
X119649481Y-149341711D01*
X119645500Y-149320509D01*
X119645500Y-148436423D01*
X119645499Y-148436419D01*
X119634169Y-148379458D01*
X119620694Y-148311715D01*
X119588295Y-148233497D01*
X119572035Y-148194241D01*
X119501393Y-148088518D01*
X119318768Y-147905894D01*
X119285285Y-147844574D01*
X119284861Y-147842542D01*
X119269737Y-147766503D01*
X119235291Y-147683343D01*
X119209397Y-147620827D01*
X119209390Y-147620814D01*
X119121789Y-147489711D01*
X119121786Y-147489707D01*
X119010292Y-147378213D01*
X119010288Y-147378210D01*
X118879185Y-147290609D01*
X118879172Y-147290602D01*
X118733501Y-147230264D01*
X118733489Y-147230261D01*
X118578845Y-147199500D01*
X118578842Y-147199500D01*
X118421158Y-147199500D01*
X118421155Y-147199500D01*
X118266510Y-147230261D01*
X118266498Y-147230264D01*
X118120827Y-147290602D01*
X118120814Y-147290609D01*
X117989711Y-147378210D01*
X117989707Y-147378213D01*
X117878213Y-147489707D01*
X117878210Y-147489711D01*
X117790609Y-147620814D01*
X117790602Y-147620827D01*
X117730264Y-147766498D01*
X117730261Y-147766510D01*
X117699500Y-147921153D01*
X112334027Y-147921153D01*
X112318768Y-147905894D01*
X112285285Y-147844574D01*
X112284861Y-147842542D01*
X112269737Y-147766503D01*
X112235291Y-147683343D01*
X112209397Y-147620827D01*
X112209390Y-147620814D01*
X112121789Y-147489711D01*
X112121786Y-147489707D01*
X112010292Y-147378213D01*
X112010288Y-147378210D01*
X111879185Y-147290609D01*
X111879172Y-147290602D01*
X111733501Y-147230264D01*
X111733489Y-147230261D01*
X111578845Y-147199500D01*
X111578842Y-147199500D01*
X111421158Y-147199500D01*
X111421155Y-147199500D01*
X111266510Y-147230261D01*
X111266498Y-147230264D01*
X111120827Y-147290602D01*
X111120814Y-147290609D01*
X110989711Y-147378210D01*
X110989707Y-147378213D01*
X110878213Y-147489707D01*
X110878210Y-147489711D01*
X110790609Y-147620814D01*
X110790602Y-147620827D01*
X110730264Y-147766498D01*
X110730261Y-147766510D01*
X110699500Y-147921153D01*
X87300499Y-147921153D01*
X87279608Y-147816129D01*
X87269737Y-147766503D01*
X87262901Y-147750000D01*
X87209397Y-147620827D01*
X87209390Y-147620814D01*
X87121789Y-147489711D01*
X87121786Y-147489707D01*
X87010292Y-147378213D01*
X87010288Y-147378210D01*
X86879185Y-147290609D01*
X86879172Y-147290602D01*
X86733501Y-147230264D01*
X86733489Y-147230261D01*
X86578845Y-147199500D01*
X86578842Y-147199500D01*
X86421158Y-147199500D01*
X86421155Y-147199500D01*
X86266510Y-147230261D01*
X86266498Y-147230264D01*
X86120827Y-147290602D01*
X86120814Y-147290609D01*
X85989711Y-147378210D01*
X85989707Y-147378213D01*
X85878213Y-147489707D01*
X85878210Y-147489711D01*
X85790609Y-147620814D01*
X85790602Y-147620827D01*
X85730264Y-147766498D01*
X85730261Y-147766508D01*
X85715164Y-147842407D01*
X85682779Y-147904318D01*
X85681228Y-147905896D01*
X85498613Y-148088511D01*
X85498608Y-148088517D01*
X85498608Y-148088518D01*
X85427969Y-148194235D01*
X85427963Y-148194244D01*
X85427962Y-148194246D01*
X85411705Y-148233496D01*
X85411705Y-148233497D01*
X85379306Y-148311714D01*
X85379304Y-148311722D01*
X85354500Y-148436419D01*
X85354500Y-149320509D01*
X85334815Y-149387548D01*
X85303387Y-149420826D01*
X85283072Y-149435585D01*
X85160588Y-149558069D01*
X85160588Y-149558070D01*
X85160586Y-149558072D01*
X85145493Y-149578846D01*
X85058768Y-149698211D01*
X84980128Y-149852552D01*
X84926597Y-150017302D01*
X84899500Y-150188389D01*
X82099999Y-150188389D01*
X82099999Y-149875028D01*
X82099998Y-149875013D01*
X82089505Y-149772302D01*
X82034358Y-149605880D01*
X82034356Y-149605875D01*
X81942315Y-149456654D01*
X81818345Y-149332684D01*
X81669124Y-149240643D01*
X81669119Y-149240641D01*
X81502697Y-149185494D01*
X81502690Y-149185493D01*
X81399986Y-149175000D01*
X81250000Y-149175000D01*
X81250000Y-150269670D01*
X81230255Y-150249925D01*
X81144745Y-150200556D01*
X81049370Y-150175000D01*
X80950630Y-150175000D01*
X80855255Y-150200556D01*
X80769745Y-150249925D01*
X80750000Y-150269670D01*
X80750000Y-149175000D01*
X80600027Y-149175000D01*
X80600012Y-149175001D01*
X80497302Y-149185494D01*
X80330880Y-149240641D01*
X80330875Y-149240643D01*
X80181654Y-149332684D01*
X80057684Y-149456654D01*
X80018053Y-149520907D01*
X80001999Y-149535345D01*
X79989546Y-149552980D01*
X79976538Y-149558246D01*
X79966105Y-149567631D01*
X79944797Y-149571098D01*
X79924783Y-149579202D01*
X79910990Y-149576599D01*
X79897142Y-149578853D01*
X79877343Y-149570250D01*
X79856125Y-149566247D01*
X79838307Y-149553290D01*
X79833060Y-149551010D01*
X79827295Y-149545887D01*
X79826071Y-149544729D01*
X79716928Y-149435586D01*
X79690113Y-149416103D01*
X79684281Y-149410586D01*
X79670572Y-149387054D01*
X79653948Y-149365495D01*
X79652014Y-149355199D01*
X79649110Y-149350214D01*
X79649481Y-149341711D01*
X79645500Y-149320509D01*
X79645500Y-148888394D01*
X79665185Y-148821355D01*
X79717989Y-148775600D01*
X79733484Y-148769742D01*
X79733495Y-148769737D01*
X79733497Y-148769737D01*
X79879179Y-148709394D01*
X80010289Y-148621789D01*
X80121789Y-148510289D01*
X80209394Y-148379179D01*
X80269737Y-148233497D01*
X80300500Y-148078842D01*
X80300500Y-147921158D01*
X80300500Y-147921155D01*
X80300499Y-147921153D01*
X80279608Y-147816129D01*
X80269737Y-147766503D01*
X80262901Y-147750000D01*
X80209397Y-147620827D01*
X80209390Y-147620814D01*
X80121789Y-147489711D01*
X80121786Y-147489707D01*
X80010292Y-147378213D01*
X80010288Y-147378210D01*
X79879185Y-147290609D01*
X79879172Y-147290602D01*
X79733501Y-147230264D01*
X79733489Y-147230261D01*
X79578845Y-147199500D01*
X79578842Y-147199500D01*
X79421158Y-147199500D01*
X79421155Y-147199500D01*
X79266510Y-147230261D01*
X79266498Y-147230264D01*
X79120827Y-147290602D01*
X79120814Y-147290609D01*
X78989711Y-147378210D01*
X78989707Y-147378213D01*
X78878213Y-147489707D01*
X78878210Y-147489711D01*
X78790609Y-147620814D01*
X78790602Y-147620827D01*
X78730264Y-147766498D01*
X78730261Y-147766508D01*
X78715164Y-147842407D01*
X78682779Y-147904318D01*
X78681228Y-147905896D01*
X78498613Y-148088511D01*
X78498608Y-148088517D01*
X78498608Y-148088518D01*
X78427969Y-148194235D01*
X78427963Y-148194244D01*
X78427962Y-148194246D01*
X78411705Y-148233496D01*
X78411705Y-148233497D01*
X78379306Y-148311714D01*
X78379304Y-148311722D01*
X78354500Y-148436419D01*
X78354500Y-149320509D01*
X78334815Y-149387548D01*
X78303387Y-149420826D01*
X78283072Y-149435585D01*
X78160588Y-149558069D01*
X78160588Y-149558070D01*
X78160586Y-149558072D01*
X78145493Y-149578846D01*
X78058768Y-149698211D01*
X77980128Y-149852552D01*
X77926597Y-150017302D01*
X77899500Y-150188389D01*
X74160615Y-150188389D01*
X74260289Y-150121789D01*
X74260292Y-150121786D01*
X74286243Y-150095836D01*
X74371786Y-150010292D01*
X74371789Y-150010289D01*
X74459394Y-149879179D01*
X74519737Y-149733497D01*
X74550500Y-149578842D01*
X74550500Y-149421158D01*
X74550500Y-149421155D01*
X74550499Y-149421153D01*
X74544888Y-149392945D01*
X74519737Y-149266503D01*
X74511743Y-149247203D01*
X74459397Y-149120827D01*
X74459390Y-149120814D01*
X74371789Y-148989711D01*
X74371786Y-148989707D01*
X74260292Y-148878213D01*
X74260288Y-148878210D01*
X74129185Y-148790609D01*
X74129172Y-148790602D01*
X73983501Y-148730264D01*
X73983489Y-148730261D01*
X73828845Y-148699500D01*
X73828842Y-148699500D01*
X73671158Y-148699500D01*
X73671155Y-148699500D01*
X73516510Y-148730261D01*
X73516498Y-148730264D01*
X73370827Y-148790602D01*
X73370814Y-148790609D01*
X73239711Y-148878210D01*
X73136589Y-148981332D01*
X73136437Y-148981414D01*
X73136355Y-148981565D01*
X73105813Y-148998135D01*
X73075266Y-149014816D01*
X73075094Y-149014803D01*
X73074943Y-149014886D01*
X73040253Y-149012312D01*
X73005574Y-149009832D01*
X73005377Y-149009724D01*
X73005265Y-149009716D01*
X73004714Y-149009361D01*
X72974333Y-148992718D01*
X72967380Y-148987484D01*
X72949792Y-148969896D01*
X72783986Y-148849432D01*
X72783091Y-148848758D01*
X72762831Y-148821544D01*
X72742115Y-148794678D01*
X72742021Y-148793589D01*
X72741369Y-148792713D01*
X72739039Y-148758868D01*
X72736136Y-148725065D01*
X72736645Y-148724098D01*
X72736571Y-148723009D01*
X72752900Y-148693292D01*
X72768741Y-148663270D01*
X72769994Y-148662184D01*
X72770219Y-148661775D01*
X72770880Y-148661416D01*
X72784781Y-148649371D01*
X72949466Y-148529721D01*
X73099723Y-148379464D01*
X73099727Y-148379459D01*
X73224620Y-148207557D01*
X73321095Y-148018217D01*
X73386757Y-147816129D01*
X73386757Y-147816126D01*
X73397231Y-147750000D01*
X72349146Y-147750000D01*
X72387630Y-147683343D01*
X72420000Y-147562535D01*
X72420000Y-147437465D01*
X72387630Y-147316657D01*
X72349146Y-147250000D01*
X73397231Y-147250000D01*
X73386757Y-147183873D01*
X73386757Y-147183870D01*
X73321095Y-146981782D01*
X73224620Y-146792442D01*
X73099727Y-146620540D01*
X73099723Y-146620535D01*
X72960856Y-146481668D01*
X72927371Y-146420345D01*
X72932355Y-146350653D01*
X72974227Y-146294720D01*
X72983441Y-146288448D01*
X72989331Y-146284814D01*
X72989334Y-146284814D01*
X73138656Y-146192712D01*
X73262712Y-146068656D01*
X73354814Y-145919334D01*
X73409999Y-145752797D01*
X73410765Y-145745298D01*
X73418452Y-145726455D01*
X73421362Y-145706312D01*
X73431382Y-145694762D01*
X73437158Y-145680606D01*
X73453812Y-145668910D01*
X73467151Y-145653537D01*
X73487250Y-145645428D01*
X73494337Y-145640452D01*
X73499265Y-145638896D01*
X73504529Y-145637353D01*
X73588285Y-145620694D01*
X73647022Y-145596364D01*
X73705759Y-145572035D01*
X73811482Y-145501392D01*
X73894103Y-145418769D01*
X73955424Y-145385286D01*
X73957512Y-145384850D01*
X74033497Y-145369737D01*
X74179179Y-145309394D01*
X74310289Y-145221789D01*
X74421789Y-145110289D01*
X74509394Y-144979179D01*
X74569737Y-144833497D01*
X74600500Y-144678842D01*
X74600500Y-144521158D01*
X74600500Y-144521155D01*
X74584209Y-144439258D01*
X74584209Y-144439257D01*
X74569738Y-144366510D01*
X74569737Y-144366503D01*
X74562894Y-144349983D01*
X74509397Y-144220827D01*
X74509390Y-144220814D01*
X74421789Y-144089711D01*
X74421786Y-144089707D01*
X74310292Y-143978213D01*
X74310288Y-143978210D01*
X74179185Y-143890609D01*
X74179172Y-143890602D01*
X74033501Y-143830264D01*
X74033489Y-143830261D01*
X73878845Y-143799500D01*
X73878842Y-143799500D01*
X73721158Y-143799500D01*
X73721155Y-143799500D01*
X73566510Y-143830261D01*
X73566498Y-143830264D01*
X73420828Y-143890602D01*
X73420814Y-143890610D01*
X73386231Y-143913717D01*
X73319553Y-143934593D01*
X73252174Y-143916107D01*
X73229662Y-143898294D01*
X73138657Y-143807289D01*
X73138656Y-143807288D01*
X73043253Y-143748443D01*
X72989336Y-143715187D01*
X72989331Y-143715185D01*
X72987862Y-143714698D01*
X72822797Y-143660001D01*
X72822795Y-143660000D01*
X72720010Y-143649500D01*
X71169998Y-143649500D01*
X71169981Y-143649501D01*
X71067203Y-143660000D01*
X71067200Y-143660001D01*
X70900668Y-143715185D01*
X70900663Y-143715187D01*
X70751342Y-143807289D01*
X70627289Y-143931342D01*
X70535187Y-144080663D01*
X70535185Y-144080668D01*
X70522083Y-144120208D01*
X70480001Y-144247203D01*
X70480001Y-144247204D01*
X70480000Y-144247204D01*
X70469500Y-144349983D01*
X66000000Y-144349983D01*
X66000000Y-133099983D01*
X67624500Y-133099983D01*
X67624500Y-133900001D01*
X67624501Y-133900019D01*
X67635000Y-134002796D01*
X67635001Y-134002799D01*
X67690185Y-134169331D01*
X67690187Y-134169336D01*
X67722460Y-134221659D01*
X67782288Y-134318656D01*
X67906344Y-134442712D01*
X67944916Y-134466503D01*
X67970543Y-134482310D01*
X68017268Y-134534258D01*
X68028489Y-134603221D01*
X68000646Y-134667303D01*
X67993128Y-134675530D01*
X67885585Y-134783073D01*
X67783768Y-134923211D01*
X67705128Y-135077552D01*
X67651597Y-135242302D01*
X67639108Y-135321155D01*
X67624500Y-135413389D01*
X67624500Y-135586611D01*
X67651598Y-135757701D01*
X67705127Y-135922445D01*
X67783768Y-136076788D01*
X67885586Y-136216928D01*
X68008072Y-136339414D01*
X68008078Y-136339418D01*
X68091023Y-136399683D01*
X68133689Y-136455013D01*
X68139667Y-136524626D01*
X68107061Y-136586421D01*
X68091023Y-136600317D01*
X68008078Y-136660581D01*
X68008069Y-136660588D01*
X67885588Y-136783069D01*
X67885588Y-136783070D01*
X67885586Y-136783072D01*
X67872925Y-136800499D01*
X67783768Y-136923211D01*
X67705128Y-137077552D01*
X67651597Y-137242302D01*
X67624500Y-137413389D01*
X67624500Y-137586610D01*
X67650028Y-137747792D01*
X67651598Y-137757701D01*
X67705127Y-137922445D01*
X67783768Y-138076788D01*
X67885586Y-138216928D01*
X68008072Y-138339414D01*
X68008078Y-138339418D01*
X68091023Y-138399683D01*
X68133689Y-138455013D01*
X68139667Y-138524626D01*
X68107061Y-138586421D01*
X68091023Y-138600317D01*
X68008078Y-138660581D01*
X68008069Y-138660588D01*
X67885588Y-138783069D01*
X67885588Y-138783070D01*
X67885586Y-138783072D01*
X67852332Y-138828842D01*
X67783768Y-138923211D01*
X67705128Y-139077552D01*
X67651597Y-139242302D01*
X67624500Y-139413389D01*
X67624500Y-139586610D01*
X67651524Y-139757238D01*
X67651598Y-139757701D01*
X67705127Y-139922445D01*
X67783768Y-140076788D01*
X67885586Y-140216928D01*
X68008072Y-140339414D01*
X68148212Y-140441232D01*
X68302555Y-140519873D01*
X68467299Y-140573402D01*
X68638389Y-140600500D01*
X68638390Y-140600500D01*
X69361610Y-140600500D01*
X69361611Y-140600500D01*
X69532701Y-140573402D01*
X69697445Y-140519873D01*
X69851788Y-140441232D01*
X69991928Y-140339414D01*
X70044523Y-140286819D01*
X70105846Y-140253334D01*
X70132204Y-140250500D01*
X70323920Y-140250500D01*
X70421462Y-140231096D01*
X70468913Y-140221658D01*
X70605495Y-140165084D01*
X70654729Y-140132186D01*
X70728416Y-140082952D01*
X71065297Y-139746069D01*
X71105524Y-139719191D01*
X71129179Y-139709394D01*
X71260289Y-139621789D01*
X71371789Y-139510289D01*
X71459394Y-139379179D01*
X71519737Y-139233497D01*
X71550500Y-139078842D01*
X71550500Y-138921158D01*
X71550500Y-138921155D01*
X71550499Y-138921153D01*
X71544422Y-138890602D01*
X71519737Y-138766503D01*
X71500955Y-138721158D01*
X71459397Y-138620827D01*
X71459390Y-138620814D01*
X71371789Y-138489711D01*
X71371786Y-138489707D01*
X71260292Y-138378213D01*
X71260288Y-138378210D01*
X71129185Y-138290609D01*
X71129180Y-138290607D01*
X71129179Y-138290606D01*
X71109654Y-138282518D01*
X71083491Y-138271681D01*
X71029088Y-138227839D01*
X71007024Y-138161545D01*
X71024304Y-138093845D01*
X71062056Y-138054017D01*
X71110289Y-138021789D01*
X71221789Y-137910289D01*
X71309394Y-137779179D01*
X71369737Y-137633497D01*
X71400500Y-137478842D01*
X71400500Y-137321158D01*
X71400500Y-137321155D01*
X71400499Y-137321153D01*
X71380577Y-137221001D01*
X71369737Y-137166503D01*
X71366486Y-137158655D01*
X71309397Y-137020827D01*
X71309390Y-137020814D01*
X71221789Y-136889711D01*
X71221786Y-136889707D01*
X71110292Y-136778213D01*
X71110288Y-136778210D01*
X70979185Y-136690609D01*
X70979172Y-136690602D01*
X70833501Y-136630264D01*
X70833489Y-136630261D01*
X70678845Y-136599500D01*
X70678842Y-136599500D01*
X70521158Y-136599500D01*
X70521155Y-136599500D01*
X70366510Y-136630261D01*
X70366498Y-136630264D01*
X70220828Y-136690602D01*
X70220817Y-136690608D01*
X70186218Y-136713727D01*
X70161648Y-136721419D01*
X70138552Y-136732794D01*
X70128854Y-136731687D01*
X70119541Y-136734604D01*
X70094715Y-136727793D01*
X70069132Y-136724875D01*
X70058844Y-136717952D01*
X70052161Y-136716119D01*
X70038897Y-136706668D01*
X70034060Y-136702718D01*
X69991928Y-136660586D01*
X69906150Y-136598264D01*
X69903431Y-136596044D01*
X69885597Y-136569999D01*
X69866311Y-136544988D01*
X69866001Y-136541380D01*
X69863956Y-136538394D01*
X69863033Y-136506827D01*
X69860332Y-136475374D01*
X69862020Y-136472173D01*
X69861915Y-136468554D01*
X69878206Y-136441498D01*
X69892938Y-136413579D01*
X69897287Y-136409810D01*
X69897957Y-136408698D01*
X69899379Y-136407997D01*
X69908976Y-136399682D01*
X69912808Y-136396898D01*
X69991928Y-136339414D01*
X70114414Y-136216928D01*
X70141626Y-136179472D01*
X70196953Y-136136809D01*
X70266566Y-136130828D01*
X70289391Y-136137796D01*
X70366503Y-136169737D01*
X70521153Y-136200499D01*
X70521156Y-136200500D01*
X70521158Y-136200500D01*
X70678844Y-136200500D01*
X70678845Y-136200499D01*
X70833497Y-136169737D01*
X70979179Y-136109394D01*
X71110289Y-136021789D01*
X71221789Y-135910289D01*
X71309394Y-135779179D01*
X71354139Y-135671153D01*
X85199500Y-135671153D01*
X85199500Y-135828846D01*
X85230261Y-135983489D01*
X85230264Y-135983501D01*
X85290602Y-136129172D01*
X85290609Y-136129185D01*
X85378210Y-136260288D01*
X85378213Y-136260292D01*
X85489707Y-136371786D01*
X85489710Y-136371788D01*
X85489711Y-136371789D01*
X85500771Y-136379179D01*
X85527289Y-136396898D01*
X85572093Y-136450511D01*
X85580800Y-136519836D01*
X85550645Y-136582863D01*
X85527289Y-136603102D01*
X85489707Y-136628213D01*
X85378213Y-136739707D01*
X85378210Y-136739711D01*
X85290609Y-136870814D01*
X85290602Y-136870827D01*
X85230264Y-137016498D01*
X85230261Y-137016510D01*
X85199500Y-137171153D01*
X85199500Y-137328846D01*
X85230261Y-137483489D01*
X85230264Y-137483501D01*
X85290602Y-137629172D01*
X85290609Y-137629185D01*
X85378210Y-137760288D01*
X85378213Y-137760292D01*
X85489707Y-137871786D01*
X85489710Y-137871788D01*
X85489711Y-137871789D01*
X85500267Y-137878842D01*
X85527289Y-137896898D01*
X85572093Y-137950511D01*
X85580800Y-138019836D01*
X85550645Y-138082863D01*
X85527289Y-138103102D01*
X85489707Y-138128213D01*
X85378213Y-138239707D01*
X85378210Y-138239711D01*
X85290609Y-138370814D01*
X85290602Y-138370827D01*
X85230264Y-138516498D01*
X85230261Y-138516510D01*
X85199500Y-138671153D01*
X85199500Y-138828846D01*
X85230261Y-138983489D01*
X85230264Y-138983501D01*
X85290602Y-139129172D01*
X85290609Y-139129185D01*
X85378210Y-139260288D01*
X85378213Y-139260292D01*
X85489707Y-139371786D01*
X85489710Y-139371788D01*
X85489711Y-139371789D01*
X85500771Y-139379179D01*
X85527289Y-139396898D01*
X85572093Y-139450511D01*
X85580800Y-139519836D01*
X85550645Y-139582863D01*
X85527289Y-139603102D01*
X85489707Y-139628213D01*
X85378213Y-139739707D01*
X85378210Y-139739711D01*
X85290609Y-139870814D01*
X85290602Y-139870827D01*
X85230264Y-140016498D01*
X85230261Y-140016510D01*
X85199500Y-140171153D01*
X85199500Y-140328846D01*
X85230261Y-140483489D01*
X85230264Y-140483501D01*
X85290602Y-140629172D01*
X85290609Y-140629185D01*
X85378210Y-140760288D01*
X85378213Y-140760292D01*
X85489707Y-140871786D01*
X85489711Y-140871789D01*
X85620814Y-140959390D01*
X85620827Y-140959397D01*
X85766498Y-141019735D01*
X85766503Y-141019737D01*
X85858312Y-141037999D01*
X85921153Y-141050499D01*
X85921156Y-141050500D01*
X85921158Y-141050500D01*
X86078844Y-141050500D01*
X86078845Y-141050499D01*
X86233497Y-141019737D01*
X86379179Y-140959394D01*
X86510289Y-140871789D01*
X86621789Y-140760289D01*
X86709394Y-140629179D01*
X86769737Y-140483497D01*
X86800500Y-140328842D01*
X86800500Y-140171158D01*
X86800500Y-140171155D01*
X86800499Y-140171153D01*
X86798013Y-140158653D01*
X86769737Y-140016503D01*
X86764059Y-140002795D01*
X86709397Y-139870827D01*
X86709390Y-139870814D01*
X86621789Y-139739711D01*
X86621786Y-139739707D01*
X86510292Y-139628213D01*
X86510284Y-139628207D01*
X86472712Y-139603102D01*
X86427906Y-139549490D01*
X86419199Y-139480165D01*
X86449353Y-139417138D01*
X86472712Y-139396898D01*
X86499279Y-139379145D01*
X86510289Y-139371789D01*
X86621789Y-139260289D01*
X86709394Y-139129179D01*
X86712719Y-139121153D01*
X86749026Y-139033497D01*
X86769737Y-138983497D01*
X86800500Y-138828842D01*
X86800500Y-138671158D01*
X86800500Y-138671155D01*
X86800499Y-138671153D01*
X86785043Y-138593450D01*
X86769737Y-138516503D01*
X86762901Y-138500000D01*
X86709397Y-138370827D01*
X86709390Y-138370814D01*
X86621789Y-138239711D01*
X86621786Y-138239707D01*
X86510292Y-138128213D01*
X86510284Y-138128207D01*
X86472712Y-138103102D01*
X86427906Y-138049490D01*
X86419199Y-137980165D01*
X86449353Y-137917138D01*
X86472712Y-137896898D01*
X86499733Y-137878842D01*
X86510289Y-137871789D01*
X86621789Y-137760289D01*
X86709394Y-137629179D01*
X86769737Y-137483497D01*
X86800500Y-137328842D01*
X86800500Y-137171158D01*
X86800500Y-137171156D01*
X86800500Y-137171155D01*
X86800499Y-137171153D01*
X86779651Y-137066344D01*
X86769737Y-137016503D01*
X86756423Y-136984359D01*
X86709397Y-136870827D01*
X86709390Y-136870814D01*
X86621789Y-136739711D01*
X86621786Y-136739707D01*
X86510292Y-136628213D01*
X86510284Y-136628207D01*
X86472712Y-136603102D01*
X86427906Y-136549490D01*
X86419199Y-136480165D01*
X86449353Y-136417138D01*
X86472712Y-136396898D01*
X86499279Y-136379145D01*
X86510289Y-136371789D01*
X86621789Y-136260289D01*
X86709394Y-136129179D01*
X86769737Y-135983497D01*
X86782138Y-135921153D01*
X90949500Y-135921153D01*
X90949500Y-136078846D01*
X90980261Y-136233489D01*
X90980264Y-136233501D01*
X91040602Y-136379172D01*
X91040609Y-136379185D01*
X91128210Y-136510288D01*
X91128213Y-136510292D01*
X91239707Y-136621786D01*
X91239711Y-136621789D01*
X91370814Y-136709390D01*
X91370827Y-136709397D01*
X91444013Y-136739711D01*
X91516503Y-136769737D01*
X91671153Y-136800499D01*
X91671156Y-136800500D01*
X91671158Y-136800500D01*
X91828844Y-136800500D01*
X91828845Y-136800499D01*
X91983497Y-136769737D01*
X92129179Y-136709394D01*
X92260289Y-136621789D01*
X92371789Y-136510289D01*
X92459394Y-136379179D01*
X92519737Y-136233497D01*
X92550500Y-136078842D01*
X92550500Y-135921158D01*
X92550500Y-135921155D01*
X92550499Y-135921153D01*
X92532137Y-135828842D01*
X92519737Y-135766503D01*
X92516091Y-135757701D01*
X92459397Y-135620827D01*
X92459390Y-135620814D01*
X92371789Y-135489711D01*
X92371786Y-135489707D01*
X92260292Y-135378213D01*
X92260288Y-135378210D01*
X92129185Y-135290609D01*
X92129172Y-135290602D01*
X91983501Y-135230264D01*
X91983489Y-135230261D01*
X91828845Y-135199500D01*
X91828842Y-135199500D01*
X91671158Y-135199500D01*
X91671155Y-135199500D01*
X91516510Y-135230261D01*
X91516498Y-135230264D01*
X91370827Y-135290602D01*
X91370814Y-135290609D01*
X91239711Y-135378210D01*
X91239707Y-135378213D01*
X91128213Y-135489707D01*
X91128210Y-135489711D01*
X91040609Y-135620814D01*
X91040602Y-135620827D01*
X90980264Y-135766498D01*
X90980261Y-135766510D01*
X90949500Y-135921153D01*
X86782138Y-135921153D01*
X86783261Y-135915506D01*
X86788161Y-135890875D01*
X86788161Y-135890874D01*
X86800500Y-135828844D01*
X86800500Y-135671155D01*
X86800499Y-135671153D01*
X86769737Y-135516503D01*
X86769735Y-135516498D01*
X86709397Y-135370827D01*
X86709390Y-135370814D01*
X86621789Y-135239711D01*
X86621786Y-135239707D01*
X86510292Y-135128213D01*
X86510288Y-135128210D01*
X86379185Y-135040609D01*
X86379172Y-135040602D01*
X86233501Y-134980264D01*
X86233489Y-134980261D01*
X86078845Y-134949500D01*
X86078842Y-134949500D01*
X85921158Y-134949500D01*
X85921155Y-134949500D01*
X85766510Y-134980261D01*
X85766498Y-134980264D01*
X85620827Y-135040602D01*
X85620814Y-135040609D01*
X85489711Y-135128210D01*
X85489707Y-135128213D01*
X85378213Y-135239707D01*
X85378210Y-135239711D01*
X85290609Y-135370814D01*
X85290602Y-135370827D01*
X85230264Y-135516498D01*
X85230261Y-135516510D01*
X85199500Y-135671153D01*
X71354139Y-135671153D01*
X71369737Y-135633497D01*
X71400500Y-135478842D01*
X71400500Y-135321158D01*
X71400500Y-135321155D01*
X71400499Y-135321153D01*
X71378447Y-135210292D01*
X71369737Y-135166503D01*
X71333569Y-135079185D01*
X71309397Y-135020827D01*
X71309390Y-135020814D01*
X71221789Y-134889711D01*
X71221786Y-134889707D01*
X71110292Y-134778213D01*
X71110288Y-134778210D01*
X70979185Y-134690609D01*
X70979172Y-134690602D01*
X70833501Y-134630264D01*
X70833489Y-134630261D01*
X70678845Y-134599500D01*
X70678842Y-134599500D01*
X70521158Y-134599500D01*
X70521155Y-134599500D01*
X70366510Y-134630261D01*
X70366498Y-134630264D01*
X70220828Y-134690602D01*
X70220817Y-134690608D01*
X70186218Y-134713727D01*
X70155915Y-134723214D01*
X70126174Y-134734308D01*
X70122818Y-134733577D01*
X70119541Y-134734604D01*
X70088926Y-134726205D01*
X70057901Y-134719456D01*
X70054185Y-134716674D01*
X70052161Y-134716119D01*
X70029647Y-134698305D01*
X70006872Y-134675530D01*
X69973387Y-134614207D01*
X69978371Y-134544515D01*
X70020243Y-134488582D01*
X70029457Y-134482310D01*
X70055084Y-134466503D01*
X70093656Y-134442712D01*
X70217712Y-134318656D01*
X70254259Y-134259402D01*
X70306206Y-134212679D01*
X70359797Y-134200500D01*
X70478844Y-134200500D01*
X70478845Y-134200499D01*
X70633497Y-134169737D01*
X70751592Y-134120821D01*
X70779172Y-134109397D01*
X70779172Y-134109396D01*
X70779179Y-134109394D01*
X70910289Y-134021789D01*
X71021789Y-133910289D01*
X71109394Y-133779179D01*
X71169737Y-133633497D01*
X71200500Y-133478842D01*
X71200500Y-133321158D01*
X71200500Y-133321155D01*
X71200499Y-133321153D01*
X75599500Y-133321153D01*
X75599500Y-133478846D01*
X75630261Y-133633489D01*
X75630264Y-133633501D01*
X75690602Y-133779172D01*
X75690609Y-133779185D01*
X75778210Y-133910288D01*
X75778213Y-133910292D01*
X75889707Y-134021786D01*
X75889711Y-134021789D01*
X76020814Y-134109390D01*
X76020827Y-134109397D01*
X76155272Y-134165085D01*
X76166503Y-134169737D01*
X76293930Y-134195084D01*
X76321153Y-134200499D01*
X76321156Y-134200500D01*
X76321158Y-134200500D01*
X76478844Y-134200500D01*
X76478845Y-134200499D01*
X76626378Y-134171153D01*
X82949500Y-134171153D01*
X82949500Y-134328846D01*
X82980261Y-134483489D01*
X82980264Y-134483501D01*
X83040602Y-134629172D01*
X83040609Y-134629185D01*
X83128210Y-134760288D01*
X83128213Y-134760292D01*
X83239707Y-134871786D01*
X83239711Y-134871789D01*
X83370814Y-134959390D01*
X83370827Y-134959397D01*
X83516498Y-135019735D01*
X83516503Y-135019737D01*
X83671153Y-135050499D01*
X83671156Y-135050500D01*
X83671158Y-135050500D01*
X83828844Y-135050500D01*
X83828845Y-135050499D01*
X83983497Y-135019737D01*
X84129179Y-134959394D01*
X84260289Y-134871789D01*
X84371789Y-134760289D01*
X84459394Y-134629179D01*
X84462719Y-134621153D01*
X84515466Y-134493808D01*
X84519737Y-134483497D01*
X84532138Y-134421153D01*
X87949500Y-134421153D01*
X87949500Y-134578846D01*
X87980261Y-134733489D01*
X87980264Y-134733501D01*
X88040602Y-134879172D01*
X88040609Y-134879185D01*
X88128210Y-135010288D01*
X88128213Y-135010292D01*
X88239707Y-135121786D01*
X88239711Y-135121789D01*
X88370814Y-135209390D01*
X88370827Y-135209397D01*
X88516498Y-135269735D01*
X88516503Y-135269737D01*
X88671153Y-135300499D01*
X88671156Y-135300500D01*
X88671158Y-135300500D01*
X88828844Y-135300500D01*
X88828845Y-135300499D01*
X88983497Y-135269737D01*
X89129179Y-135209394D01*
X89260289Y-135121789D01*
X89371789Y-135010289D01*
X89459394Y-134879179D01*
X89519737Y-134733497D01*
X89550500Y-134578842D01*
X89550500Y-134421158D01*
X89550500Y-134421155D01*
X89550499Y-134421153D01*
X89530543Y-134320827D01*
X89519737Y-134266503D01*
X89480242Y-134171153D01*
X98199500Y-134171153D01*
X98199500Y-134328846D01*
X98230261Y-134483489D01*
X98230264Y-134483501D01*
X98290602Y-134629172D01*
X98290609Y-134629185D01*
X98378210Y-134760288D01*
X98378213Y-134760292D01*
X98489707Y-134871786D01*
X98489713Y-134871791D01*
X98489879Y-134871902D01*
X98489945Y-134871982D01*
X98494419Y-134875653D01*
X98493722Y-134876501D01*
X98534681Y-134925516D01*
X98543384Y-134994842D01*
X98513226Y-135057868D01*
X98494331Y-135074240D01*
X98494419Y-135074347D01*
X98490428Y-135077621D01*
X98489879Y-135078098D01*
X98489713Y-135078208D01*
X98489707Y-135078213D01*
X98378213Y-135189707D01*
X98378210Y-135189711D01*
X98290609Y-135320814D01*
X98290602Y-135320827D01*
X98230264Y-135466498D01*
X98230261Y-135466510D01*
X98199500Y-135621153D01*
X98199500Y-135778846D01*
X98230261Y-135933489D01*
X98230264Y-135933501D01*
X98290602Y-136079172D01*
X98290609Y-136079185D01*
X98378210Y-136210288D01*
X98378213Y-136210292D01*
X98489707Y-136321786D01*
X98489711Y-136321789D01*
X98564703Y-136371898D01*
X98609508Y-136425511D01*
X98618215Y-136494836D01*
X98588060Y-136557863D01*
X98564703Y-136578102D01*
X98489711Y-136628210D01*
X98489707Y-136628213D01*
X98378213Y-136739707D01*
X98378210Y-136739711D01*
X98290609Y-136870814D01*
X98290602Y-136870827D01*
X98230264Y-137016498D01*
X98230261Y-137016510D01*
X98199500Y-137171153D01*
X98199500Y-137328846D01*
X98230261Y-137483489D01*
X98230264Y-137483501D01*
X98290602Y-137629172D01*
X98290609Y-137629185D01*
X98378210Y-137760288D01*
X98378213Y-137760292D01*
X98489707Y-137871786D01*
X98489710Y-137871788D01*
X98489711Y-137871789D01*
X98500267Y-137878842D01*
X98527289Y-137896898D01*
X98572093Y-137950511D01*
X98580800Y-138019836D01*
X98550645Y-138082863D01*
X98527289Y-138103102D01*
X98489707Y-138128213D01*
X98378213Y-138239707D01*
X98378210Y-138239711D01*
X98290609Y-138370814D01*
X98290602Y-138370827D01*
X98230264Y-138516498D01*
X98230261Y-138516510D01*
X98199500Y-138671153D01*
X98199500Y-138828846D01*
X98230261Y-138983489D01*
X98230264Y-138983501D01*
X98290602Y-139129172D01*
X98290609Y-139129185D01*
X98378210Y-139260288D01*
X98378213Y-139260292D01*
X98489707Y-139371786D01*
X98489710Y-139371788D01*
X98489711Y-139371789D01*
X98500771Y-139379179D01*
X98527289Y-139396898D01*
X98572093Y-139450511D01*
X98580800Y-139519836D01*
X98550645Y-139582863D01*
X98527289Y-139603102D01*
X98489707Y-139628213D01*
X98378213Y-139739707D01*
X98378210Y-139739711D01*
X98290609Y-139870814D01*
X98290602Y-139870827D01*
X98230264Y-140016498D01*
X98230261Y-140016510D01*
X98199500Y-140171153D01*
X98199500Y-140328846D01*
X98230261Y-140483489D01*
X98230264Y-140483501D01*
X98290602Y-140629172D01*
X98290609Y-140629185D01*
X98378210Y-140760288D01*
X98378213Y-140760292D01*
X98489707Y-140871786D01*
X98489711Y-140871789D01*
X98620814Y-140959390D01*
X98620827Y-140959397D01*
X98766498Y-141019735D01*
X98766503Y-141019737D01*
X98858312Y-141037999D01*
X98921153Y-141050499D01*
X98921156Y-141050500D01*
X98921158Y-141050500D01*
X99078844Y-141050500D01*
X99078845Y-141050499D01*
X99233497Y-141019737D01*
X99379179Y-140959394D01*
X99510289Y-140871789D01*
X99621789Y-140760289D01*
X99709394Y-140629179D01*
X99769737Y-140483497D01*
X99800500Y-140328842D01*
X99800500Y-140171158D01*
X99800500Y-140171155D01*
X99800499Y-140171153D01*
X99798013Y-140158653D01*
X99769737Y-140016503D01*
X99764059Y-140002795D01*
X99709397Y-139870827D01*
X99709390Y-139870814D01*
X99621789Y-139739711D01*
X99621786Y-139739707D01*
X99510292Y-139628213D01*
X99510284Y-139628207D01*
X99472712Y-139603102D01*
X99427906Y-139549490D01*
X99419199Y-139480165D01*
X99449353Y-139417138D01*
X99472712Y-139396898D01*
X99499279Y-139379145D01*
X99510289Y-139371789D01*
X99621789Y-139260289D01*
X99709394Y-139129179D01*
X99712719Y-139121153D01*
X99749026Y-139033497D01*
X99769737Y-138983497D01*
X99800500Y-138828842D01*
X99800500Y-138671158D01*
X99800500Y-138671155D01*
X99800499Y-138671153D01*
X99785043Y-138593450D01*
X99769737Y-138516503D01*
X99762901Y-138500000D01*
X99709397Y-138370827D01*
X99709390Y-138370814D01*
X99621789Y-138239711D01*
X99621786Y-138239707D01*
X99510292Y-138128213D01*
X99510284Y-138128207D01*
X99472712Y-138103102D01*
X99427906Y-138049490D01*
X99419199Y-137980165D01*
X99449353Y-137917138D01*
X99472712Y-137896898D01*
X99499733Y-137878842D01*
X99510289Y-137871789D01*
X99621789Y-137760289D01*
X99709394Y-137629179D01*
X99769737Y-137483497D01*
X99800500Y-137328842D01*
X99800500Y-137171158D01*
X99800499Y-137171155D01*
X99798012Y-137158653D01*
X100087000Y-137158653D01*
X100087000Y-137316346D01*
X100117761Y-137470989D01*
X100117764Y-137471001D01*
X100178102Y-137616672D01*
X100178109Y-137616685D01*
X100265710Y-137747788D01*
X100265713Y-137747792D01*
X100377207Y-137859286D01*
X100377210Y-137859288D01*
X100377211Y-137859289D01*
X100395914Y-137871786D01*
X100414789Y-137884398D01*
X100459593Y-137938011D01*
X100468300Y-138007336D01*
X100438145Y-138070363D01*
X100414789Y-138090602D01*
X100377207Y-138115713D01*
X100265713Y-138227207D01*
X100265710Y-138227211D01*
X100178109Y-138358314D01*
X100178102Y-138358327D01*
X100117764Y-138503998D01*
X100117761Y-138504010D01*
X100087000Y-138658653D01*
X100087000Y-138816346D01*
X100117761Y-138970989D01*
X100117764Y-138971001D01*
X100178102Y-139116672D01*
X100178109Y-139116685D01*
X100265710Y-139247788D01*
X100265713Y-139247792D01*
X100377207Y-139359286D01*
X100377210Y-139359288D01*
X100377211Y-139359289D01*
X100388271Y-139366679D01*
X100414789Y-139384398D01*
X100459593Y-139438011D01*
X100468300Y-139507336D01*
X100438145Y-139570363D01*
X100414789Y-139590602D01*
X100377207Y-139615713D01*
X100265713Y-139727207D01*
X100265710Y-139727211D01*
X100178109Y-139858314D01*
X100178102Y-139858327D01*
X100117764Y-140003998D01*
X100117761Y-140004010D01*
X100087000Y-140158653D01*
X100087000Y-140316346D01*
X100117761Y-140470989D01*
X100117764Y-140471001D01*
X100178102Y-140616672D01*
X100178109Y-140616685D01*
X100265710Y-140747788D01*
X100265713Y-140747792D01*
X100377207Y-140859286D01*
X100377211Y-140859289D01*
X100508314Y-140946890D01*
X100508327Y-140946897D01*
X100653998Y-141007235D01*
X100654003Y-141007237D01*
X100808653Y-141037999D01*
X100808656Y-141038000D01*
X100808658Y-141038000D01*
X100966344Y-141038000D01*
X100966345Y-141037999D01*
X101120997Y-141007237D01*
X101266679Y-140946894D01*
X101397789Y-140859289D01*
X101509289Y-140747789D01*
X101596894Y-140616679D01*
X101636462Y-140521153D01*
X111999500Y-140521153D01*
X111999500Y-140678846D01*
X112030261Y-140833489D01*
X112030264Y-140833501D01*
X112090602Y-140979172D01*
X112090609Y-140979185D01*
X112178210Y-141110288D01*
X112178213Y-141110292D01*
X112289707Y-141221786D01*
X112289711Y-141221789D01*
X112420814Y-141309390D01*
X112420827Y-141309397D01*
X112566498Y-141369735D01*
X112566503Y-141369737D01*
X112721153Y-141400499D01*
X112721156Y-141400500D01*
X112721158Y-141400500D01*
X112878844Y-141400500D01*
X112878845Y-141400499D01*
X113033497Y-141369737D01*
X113179179Y-141309394D01*
X113310289Y-141221789D01*
X113421789Y-141110289D01*
X113509394Y-140979179D01*
X113569737Y-140833497D01*
X113600500Y-140678842D01*
X113600500Y-140521158D01*
X113600500Y-140521155D01*
X113600499Y-140521153D01*
X113600244Y-140519871D01*
X113569737Y-140366503D01*
X113565026Y-140355129D01*
X113509397Y-140220827D01*
X113509390Y-140220814D01*
X113421789Y-140089711D01*
X113421786Y-140089707D01*
X113310292Y-139978213D01*
X113310288Y-139978210D01*
X113179185Y-139890609D01*
X113179172Y-139890602D01*
X113033501Y-139830264D01*
X113033489Y-139830261D01*
X112878845Y-139799500D01*
X112878842Y-139799500D01*
X112721158Y-139799500D01*
X112721155Y-139799500D01*
X112566510Y-139830261D01*
X112566498Y-139830264D01*
X112420827Y-139890602D01*
X112420814Y-139890609D01*
X112289711Y-139978210D01*
X112289707Y-139978213D01*
X112178213Y-140089707D01*
X112178210Y-140089711D01*
X112090609Y-140220814D01*
X112090602Y-140220827D01*
X112030264Y-140366498D01*
X112030261Y-140366510D01*
X111999500Y-140521153D01*
X101636462Y-140521153D01*
X101657237Y-140470997D01*
X101688000Y-140316342D01*
X101688000Y-140158658D01*
X101688000Y-140158655D01*
X101687999Y-140158653D01*
X101682735Y-140132189D01*
X101657237Y-140004003D01*
X101657235Y-140003998D01*
X101596897Y-139858327D01*
X101596890Y-139858314D01*
X101509289Y-139727211D01*
X101509286Y-139727207D01*
X101397792Y-139615713D01*
X101397784Y-139615707D01*
X101360212Y-139590602D01*
X101315406Y-139536990D01*
X101306699Y-139467665D01*
X101336853Y-139404638D01*
X101360212Y-139384398D01*
X101387000Y-139366498D01*
X101397789Y-139359289D01*
X101509289Y-139247789D01*
X101596894Y-139116679D01*
X101657237Y-138970997D01*
X101688000Y-138816342D01*
X101688000Y-138658658D01*
X101688000Y-138658655D01*
X101687999Y-138658653D01*
X101677986Y-138608314D01*
X101657237Y-138504003D01*
X101651686Y-138490602D01*
X101596897Y-138358327D01*
X101596890Y-138358314D01*
X101509289Y-138227211D01*
X101509286Y-138227207D01*
X101397792Y-138115713D01*
X101397784Y-138115707D01*
X101360212Y-138090602D01*
X101315406Y-138036990D01*
X101306699Y-137967665D01*
X101336853Y-137904638D01*
X101360212Y-137884398D01*
X101386779Y-137866645D01*
X101397789Y-137859289D01*
X101509289Y-137747789D01*
X101596894Y-137616679D01*
X101597630Y-137614903D01*
X104305750Y-137614903D01*
X104305750Y-137772596D01*
X104336511Y-137927239D01*
X104336514Y-137927251D01*
X104396852Y-138072922D01*
X104396859Y-138072935D01*
X104484460Y-138204038D01*
X104484463Y-138204042D01*
X104595957Y-138315536D01*
X104595961Y-138315539D01*
X104727064Y-138403140D01*
X104727068Y-138403142D01*
X104727071Y-138403144D01*
X104856647Y-138456816D01*
X104911048Y-138500654D01*
X104933113Y-138566948D01*
X104923753Y-138618827D01*
X104867764Y-138753998D01*
X104867761Y-138754010D01*
X104837000Y-138908653D01*
X104837000Y-139066346D01*
X104867761Y-139220989D01*
X104867764Y-139221001D01*
X104928102Y-139366672D01*
X104928109Y-139366685D01*
X105015710Y-139497788D01*
X105015713Y-139497792D01*
X105127207Y-139609286D01*
X105127211Y-139609289D01*
X105258314Y-139696890D01*
X105258327Y-139696897D01*
X105361691Y-139739711D01*
X105404003Y-139757237D01*
X105558653Y-139787999D01*
X105558656Y-139788000D01*
X105558658Y-139788000D01*
X105716344Y-139788000D01*
X105716345Y-139787999D01*
X105870997Y-139757237D01*
X106016679Y-139696894D01*
X106147789Y-139609289D01*
X106259289Y-139497789D01*
X106346894Y-139366679D01*
X106407237Y-139220997D01*
X106438000Y-139066342D01*
X106438000Y-138908658D01*
X106438000Y-138908655D01*
X106437999Y-138908653D01*
X106422124Y-138828844D01*
X106407237Y-138754003D01*
X106393630Y-138721153D01*
X115499500Y-138721153D01*
X115499500Y-138878846D01*
X115530261Y-139033489D01*
X115530264Y-139033501D01*
X115590602Y-139179172D01*
X115590609Y-139179185D01*
X115678210Y-139310288D01*
X115678213Y-139310292D01*
X115789707Y-139421786D01*
X115789711Y-139421789D01*
X115920814Y-139509390D01*
X115920827Y-139509397D01*
X116017622Y-139549490D01*
X116066503Y-139569737D01*
X116171398Y-139590602D01*
X116221153Y-139600499D01*
X116221156Y-139600500D01*
X116221158Y-139600500D01*
X116378844Y-139600500D01*
X116378845Y-139600499D01*
X116533497Y-139569737D01*
X116679179Y-139509394D01*
X116810289Y-139421789D01*
X116921789Y-139310289D01*
X117009394Y-139179179D01*
X117030105Y-139129179D01*
X117033429Y-139121153D01*
X122799500Y-139121153D01*
X122799500Y-139278846D01*
X122830261Y-139433489D01*
X122830264Y-139433501D01*
X122890602Y-139579172D01*
X122890609Y-139579185D01*
X122978210Y-139710288D01*
X122978213Y-139710292D01*
X123089707Y-139821786D01*
X123089711Y-139821789D01*
X123220814Y-139909390D01*
X123220827Y-139909397D01*
X123366498Y-139969735D01*
X123366503Y-139969737D01*
X123521153Y-140000499D01*
X123521156Y-140000500D01*
X123521158Y-140000500D01*
X123678844Y-140000500D01*
X123678845Y-140000499D01*
X123833497Y-139969737D01*
X123979179Y-139909394D01*
X124110289Y-139821789D01*
X124221789Y-139710289D01*
X124309394Y-139579179D01*
X124321692Y-139549490D01*
X124343105Y-139497792D01*
X124369737Y-139433497D01*
X124400500Y-139278842D01*
X124400500Y-139121158D01*
X124400500Y-139121155D01*
X124400499Y-139121153D01*
X124394244Y-139089707D01*
X124369737Y-138966503D01*
X124369735Y-138966498D01*
X124309397Y-138820827D01*
X124309390Y-138820814D01*
X124221789Y-138689711D01*
X124221786Y-138689707D01*
X124110292Y-138578213D01*
X124110288Y-138578210D01*
X123979185Y-138490609D01*
X123979172Y-138490602D01*
X123833501Y-138430264D01*
X123833489Y-138430261D01*
X123678845Y-138399500D01*
X123678842Y-138399500D01*
X123521158Y-138399500D01*
X123521155Y-138399500D01*
X123366510Y-138430261D01*
X123366498Y-138430264D01*
X123220827Y-138490602D01*
X123220814Y-138490609D01*
X123089711Y-138578210D01*
X123089707Y-138578213D01*
X122978213Y-138689707D01*
X122978210Y-138689711D01*
X122890609Y-138820814D01*
X122890602Y-138820827D01*
X122830264Y-138966498D01*
X122830261Y-138966510D01*
X122799500Y-139121153D01*
X117033429Y-139121153D01*
X117055603Y-139067621D01*
X117055605Y-139067614D01*
X117069737Y-139033497D01*
X117100500Y-138878842D01*
X117100500Y-138721158D01*
X117100500Y-138721155D01*
X117100499Y-138721153D01*
X117092580Y-138681342D01*
X117069737Y-138566503D01*
X117052391Y-138524626D01*
X117009397Y-138420827D01*
X117009390Y-138420814D01*
X116921789Y-138289711D01*
X116921786Y-138289707D01*
X116810292Y-138178213D01*
X116810288Y-138178210D01*
X116679185Y-138090609D01*
X116679172Y-138090602D01*
X116533501Y-138030264D01*
X116533489Y-138030261D01*
X116378845Y-137999500D01*
X116378842Y-137999500D01*
X116221158Y-137999500D01*
X116221155Y-137999500D01*
X116066510Y-138030261D01*
X116066498Y-138030264D01*
X115920827Y-138090602D01*
X115920814Y-138090609D01*
X115789711Y-138178210D01*
X115789707Y-138178213D01*
X115678213Y-138289707D01*
X115678210Y-138289711D01*
X115590609Y-138420814D01*
X115590602Y-138420827D01*
X115530264Y-138566498D01*
X115530261Y-138566510D01*
X115499500Y-138721153D01*
X106393630Y-138721153D01*
X106377141Y-138681344D01*
X106346897Y-138608327D01*
X106346890Y-138608314D01*
X106259289Y-138477211D01*
X106259286Y-138477207D01*
X106147792Y-138365713D01*
X106147788Y-138365710D01*
X106016685Y-138278109D01*
X106016672Y-138278102D01*
X105887105Y-138224435D01*
X105832701Y-138180595D01*
X105810636Y-138114301D01*
X105819995Y-138062423D01*
X105875987Y-137927247D01*
X105906750Y-137772592D01*
X105906750Y-137614908D01*
X105906750Y-137614905D01*
X105906749Y-137614903D01*
X105897122Y-137566505D01*
X105875987Y-137460253D01*
X105869727Y-137445140D01*
X105815647Y-137314577D01*
X105815640Y-137314564D01*
X105728039Y-137183461D01*
X105728036Y-137183457D01*
X105616542Y-137071963D01*
X105616538Y-137071960D01*
X105517373Y-137005700D01*
X105517351Y-137005686D01*
X105485429Y-136984356D01*
X105485422Y-136984352D01*
X105339751Y-136924014D01*
X105339739Y-136924011D01*
X105262530Y-136908653D01*
X108337000Y-136908653D01*
X108337000Y-137066346D01*
X108367761Y-137220989D01*
X108367764Y-137221001D01*
X108428102Y-137366672D01*
X108428106Y-137366679D01*
X108443709Y-137390030D01*
X108464587Y-137456708D01*
X108455168Y-137506374D01*
X108430264Y-137566497D01*
X108430261Y-137566505D01*
X108399500Y-137721153D01*
X108399500Y-137878846D01*
X108430261Y-138033489D01*
X108430264Y-138033501D01*
X108490602Y-138179172D01*
X108490609Y-138179185D01*
X108578210Y-138310288D01*
X108578213Y-138310292D01*
X108689707Y-138421786D01*
X108689711Y-138421789D01*
X108820814Y-138509390D01*
X108820827Y-138509397D01*
X108966498Y-138569735D01*
X108966503Y-138569737D01*
X109120238Y-138600317D01*
X109121153Y-138600499D01*
X109121156Y-138600500D01*
X109121158Y-138600500D01*
X109278844Y-138600500D01*
X109278845Y-138600499D01*
X109289179Y-138598443D01*
X109314287Y-138593450D01*
X109314292Y-138593449D01*
X109399800Y-138576439D01*
X109433497Y-138569737D01*
X109579179Y-138509394D01*
X109710289Y-138421789D01*
X109821789Y-138310289D01*
X109909394Y-138179179D01*
X109969737Y-138033497D01*
X110000500Y-137878842D01*
X110000500Y-137721158D01*
X110000500Y-137721155D01*
X110000499Y-137721153D01*
X109982204Y-137629179D01*
X109969737Y-137566503D01*
X109930179Y-137471001D01*
X109909397Y-137420827D01*
X109909389Y-137420813D01*
X109893791Y-137397469D01*
X109872912Y-137330792D01*
X109882331Y-137281124D01*
X109907237Y-137220997D01*
X109938000Y-137066342D01*
X109938000Y-136908658D01*
X109938000Y-136908655D01*
X109937999Y-136908653D01*
X109916486Y-136800500D01*
X109907237Y-136754003D01*
X109901317Y-136739711D01*
X109846897Y-136608327D01*
X109846890Y-136608314D01*
X109759289Y-136477211D01*
X109759286Y-136477207D01*
X109647792Y-136365713D01*
X109647788Y-136365710D01*
X109516685Y-136278109D01*
X109516672Y-136278102D01*
X109371001Y-136217764D01*
X109370989Y-136217761D01*
X109216345Y-136187000D01*
X109216342Y-136187000D01*
X109058658Y-136187000D01*
X109058655Y-136187000D01*
X108904010Y-136217761D01*
X108903998Y-136217764D01*
X108758327Y-136278102D01*
X108758314Y-136278109D01*
X108627211Y-136365710D01*
X108627207Y-136365713D01*
X108515713Y-136477207D01*
X108515710Y-136477211D01*
X108428109Y-136608314D01*
X108428102Y-136608327D01*
X108367764Y-136753998D01*
X108367761Y-136754010D01*
X108337000Y-136908653D01*
X105262530Y-136908653D01*
X105185095Y-136893250D01*
X105185092Y-136893250D01*
X105027408Y-136893250D01*
X105027405Y-136893250D01*
X104872760Y-136924011D01*
X104872748Y-136924014D01*
X104727077Y-136984352D01*
X104727064Y-136984359D01*
X104595961Y-137071960D01*
X104595957Y-137071963D01*
X104484463Y-137183457D01*
X104484460Y-137183461D01*
X104396859Y-137314564D01*
X104396852Y-137314577D01*
X104336514Y-137460248D01*
X104336511Y-137460260D01*
X104305750Y-137614903D01*
X101597630Y-137614903D01*
X101617677Y-137566505D01*
X101619807Y-137561363D01*
X101619807Y-137561361D01*
X101642583Y-137506374D01*
X101657237Y-137470997D01*
X101688000Y-137316342D01*
X101688000Y-137158658D01*
X101688000Y-137158655D01*
X101687999Y-137158653D01*
X101657237Y-137004003D01*
X101624105Y-136924014D01*
X101596897Y-136858327D01*
X101596890Y-136858314D01*
X101509289Y-136727211D01*
X101509286Y-136727207D01*
X101397792Y-136615713D01*
X101397788Y-136615710D01*
X101266685Y-136528109D01*
X101266672Y-136528102D01*
X101121001Y-136467764D01*
X101120989Y-136467761D01*
X100966345Y-136437000D01*
X100966342Y-136437000D01*
X100808658Y-136437000D01*
X100808655Y-136437000D01*
X100654010Y-136467761D01*
X100653998Y-136467764D01*
X100508327Y-136528102D01*
X100508314Y-136528109D01*
X100377211Y-136615710D01*
X100377207Y-136615713D01*
X100265713Y-136727207D01*
X100265710Y-136727211D01*
X100178109Y-136858314D01*
X100178102Y-136858327D01*
X100117764Y-137003998D01*
X100117761Y-137004010D01*
X100087000Y-137158653D01*
X99798012Y-137158653D01*
X99770596Y-137020821D01*
X99769737Y-137016503D01*
X99756423Y-136984359D01*
X99709397Y-136870827D01*
X99709390Y-136870814D01*
X99621789Y-136739711D01*
X99621786Y-136739707D01*
X99510292Y-136628213D01*
X99510288Y-136628210D01*
X99435296Y-136578102D01*
X99390491Y-136524490D01*
X99381784Y-136455165D01*
X99411938Y-136392138D01*
X99435296Y-136371898D01*
X99483911Y-136339414D01*
X99510289Y-136321789D01*
X99621789Y-136210289D01*
X99709394Y-136079179D01*
X99769737Y-135933497D01*
X99800500Y-135778842D01*
X99800500Y-135621158D01*
X99800500Y-135621155D01*
X99800499Y-135621153D01*
X99779684Y-135516510D01*
X99769737Y-135466503D01*
X99746080Y-135409390D01*
X99709397Y-135320827D01*
X99709390Y-135320814D01*
X99621789Y-135189711D01*
X99621786Y-135189707D01*
X99510292Y-135078213D01*
X99510286Y-135078208D01*
X99510130Y-135078104D01*
X99510066Y-135078028D01*
X99505581Y-135074347D01*
X99506279Y-135073496D01*
X99465323Y-135024494D01*
X99456613Y-134955169D01*
X99486766Y-134892140D01*
X99505669Y-134875760D01*
X99505581Y-134875653D01*
X99509610Y-134872346D01*
X99510130Y-134871896D01*
X99510286Y-134871791D01*
X99510285Y-134871791D01*
X99510289Y-134871789D01*
X99621789Y-134760289D01*
X99709394Y-134629179D01*
X99709395Y-134629176D01*
X99709397Y-134629173D01*
X99712719Y-134621153D01*
X111699500Y-134621153D01*
X111699500Y-134778846D01*
X111730261Y-134933489D01*
X111730264Y-134933501D01*
X111790602Y-135079172D01*
X111790609Y-135079185D01*
X111878210Y-135210288D01*
X111878213Y-135210292D01*
X111989707Y-135321786D01*
X111989711Y-135321789D01*
X112120814Y-135409390D01*
X112120827Y-135409397D01*
X112258683Y-135466498D01*
X112266503Y-135469737D01*
X112421153Y-135500499D01*
X112421156Y-135500500D01*
X112421158Y-135500500D01*
X112578844Y-135500500D01*
X112578845Y-135500499D01*
X112733497Y-135469737D01*
X112879179Y-135409394D01*
X113010289Y-135321789D01*
X113121789Y-135210289D01*
X113209394Y-135079179D01*
X113211396Y-135074347D01*
X113246082Y-134990606D01*
X113269737Y-134933497D01*
X113300500Y-134778842D01*
X113300500Y-134621158D01*
X113300500Y-134621155D01*
X113300499Y-134621153D01*
X113293590Y-134586421D01*
X113269737Y-134466503D01*
X113259882Y-134442710D01*
X113209397Y-134320827D01*
X113209390Y-134320814D01*
X113121789Y-134189711D01*
X113121786Y-134189707D01*
X113010292Y-134078213D01*
X113010288Y-134078210D01*
X112879185Y-133990609D01*
X112879172Y-133990602D01*
X112733501Y-133930264D01*
X112733489Y-133930261D01*
X112578845Y-133899500D01*
X112578842Y-133899500D01*
X112421158Y-133899500D01*
X112421155Y-133899500D01*
X112266510Y-133930261D01*
X112266498Y-133930264D01*
X112120827Y-133990602D01*
X112120814Y-133990609D01*
X111989711Y-134078210D01*
X111989707Y-134078213D01*
X111878213Y-134189707D01*
X111878210Y-134189711D01*
X111790609Y-134320814D01*
X111790602Y-134320827D01*
X111730264Y-134466498D01*
X111730261Y-134466510D01*
X111699500Y-134621153D01*
X99712719Y-134621153D01*
X99734895Y-134567614D01*
X99734895Y-134567613D01*
X99738559Y-134558768D01*
X99769737Y-134483497D01*
X99800500Y-134328842D01*
X99800500Y-134171158D01*
X99800500Y-134171155D01*
X99800499Y-134171153D01*
X99788213Y-134109390D01*
X99769737Y-134016503D01*
X99764060Y-134002797D01*
X99709397Y-133870827D01*
X99709390Y-133870814D01*
X99621789Y-133739711D01*
X99621786Y-133739707D01*
X99510292Y-133628213D01*
X99510288Y-133628210D01*
X99379185Y-133540609D01*
X99379172Y-133540602D01*
X99233501Y-133480264D01*
X99233489Y-133480261D01*
X99078845Y-133449500D01*
X99078842Y-133449500D01*
X98921158Y-133449500D01*
X98921155Y-133449500D01*
X98766510Y-133480261D01*
X98766498Y-133480264D01*
X98620827Y-133540602D01*
X98620814Y-133540609D01*
X98489711Y-133628210D01*
X98489707Y-133628213D01*
X98378213Y-133739707D01*
X98378210Y-133739711D01*
X98290609Y-133870814D01*
X98290602Y-133870827D01*
X98230264Y-134016498D01*
X98230261Y-134016510D01*
X98199500Y-134171153D01*
X89480242Y-134171153D01*
X89477728Y-134165084D01*
X89459397Y-134120827D01*
X89459390Y-134120814D01*
X89371789Y-133989711D01*
X89371786Y-133989707D01*
X89260292Y-133878213D01*
X89260288Y-133878210D01*
X89129185Y-133790609D01*
X89129172Y-133790602D01*
X88983501Y-133730264D01*
X88983489Y-133730261D01*
X88828845Y-133699500D01*
X88828842Y-133699500D01*
X88671158Y-133699500D01*
X88671155Y-133699500D01*
X88516510Y-133730261D01*
X88516498Y-133730264D01*
X88370827Y-133790602D01*
X88370814Y-133790609D01*
X88239711Y-133878210D01*
X88239707Y-133878213D01*
X88128213Y-133989707D01*
X88128210Y-133989711D01*
X88040609Y-134120814D01*
X88040602Y-134120827D01*
X87980264Y-134266498D01*
X87980261Y-134266510D01*
X87949500Y-134421153D01*
X84532138Y-134421153D01*
X84548398Y-134339411D01*
X84550500Y-134328844D01*
X84550500Y-134171155D01*
X84550499Y-134171153D01*
X84538213Y-134109390D01*
X84519737Y-134016503D01*
X84514060Y-134002797D01*
X84459397Y-133870827D01*
X84459390Y-133870814D01*
X84371789Y-133739711D01*
X84371786Y-133739707D01*
X84260292Y-133628213D01*
X84260288Y-133628210D01*
X84129185Y-133540609D01*
X84129172Y-133540602D01*
X83983501Y-133480264D01*
X83983489Y-133480261D01*
X83828845Y-133449500D01*
X83828842Y-133449500D01*
X83671158Y-133449500D01*
X83671155Y-133449500D01*
X83516510Y-133480261D01*
X83516498Y-133480264D01*
X83370827Y-133540602D01*
X83370814Y-133540609D01*
X83239711Y-133628210D01*
X83239707Y-133628213D01*
X83128213Y-133739707D01*
X83128210Y-133739711D01*
X83040609Y-133870814D01*
X83040602Y-133870827D01*
X82980264Y-134016498D01*
X82980261Y-134016510D01*
X82949500Y-134171153D01*
X76626378Y-134171153D01*
X76633497Y-134169737D01*
X76751592Y-134120821D01*
X76779172Y-134109397D01*
X76779172Y-134109396D01*
X76779179Y-134109394D01*
X76779185Y-134109390D01*
X76850164Y-134061964D01*
X76881224Y-134041209D01*
X76910289Y-134021789D01*
X77021789Y-133910289D01*
X77109394Y-133779179D01*
X77169737Y-133633497D01*
X77200500Y-133478842D01*
X77200500Y-133321158D01*
X77200500Y-133321155D01*
X77200499Y-133321153D01*
X77169738Y-133166510D01*
X77169737Y-133166503D01*
X77132893Y-133077552D01*
X77109397Y-133020827D01*
X77109390Y-133020814D01*
X77042798Y-132921153D01*
X128699500Y-132921153D01*
X128699500Y-133078846D01*
X128730261Y-133233489D01*
X128730264Y-133233501D01*
X128790602Y-133379172D01*
X128790609Y-133379185D01*
X128878210Y-133510288D01*
X128878213Y-133510292D01*
X128989710Y-133621789D01*
X129120815Y-133709390D01*
X129120821Y-133709394D01*
X129144475Y-133719191D01*
X129184703Y-133746071D01*
X129521578Y-134082947D01*
X129521581Y-134082950D01*
X129521584Y-134082952D01*
X129582322Y-134123535D01*
X129644505Y-134165084D01*
X129703960Y-134189711D01*
X129769672Y-134216930D01*
X129781087Y-134221658D01*
X129781091Y-134221658D01*
X129781092Y-134221659D01*
X129926071Y-134250498D01*
X129926072Y-134250498D01*
X129926082Y-134250500D01*
X129926083Y-134250500D01*
X129926091Y-134250500D01*
X129929704Y-134250856D01*
X129931485Y-134251575D01*
X129932057Y-134251689D01*
X129932035Y-134251797D01*
X129947722Y-134258130D01*
X129967000Y-134260544D01*
X129986376Y-134273736D01*
X129994493Y-134277014D01*
X129997034Y-134279080D01*
X130001301Y-134282643D01*
X130058072Y-134339414D01*
X130144398Y-134402133D01*
X130147615Y-134404820D01*
X130164803Y-134430521D01*
X130183689Y-134455013D01*
X130184058Y-134459313D01*
X130186456Y-134462899D01*
X130187020Y-134493808D01*
X130189667Y-134524626D01*
X130187653Y-134528442D01*
X130187732Y-134532757D01*
X130171492Y-134559070D01*
X130157061Y-134586421D01*
X130151799Y-134590980D01*
X130151037Y-134592215D01*
X130149554Y-134592925D01*
X130141023Y-134600317D01*
X130058078Y-134660581D01*
X130058069Y-134660588D01*
X129935588Y-134783069D01*
X129935588Y-134783070D01*
X129935586Y-134783072D01*
X129891859Y-134843256D01*
X129833768Y-134923211D01*
X129755128Y-135077552D01*
X129701597Y-135242302D01*
X129689108Y-135321155D01*
X129674500Y-135413389D01*
X129674500Y-135586611D01*
X129701598Y-135757701D01*
X129755127Y-135922445D01*
X129833768Y-136076788D01*
X129935586Y-136216928D01*
X130058072Y-136339414D01*
X130058078Y-136339418D01*
X130141023Y-136399683D01*
X130183689Y-136455013D01*
X130189667Y-136524626D01*
X130157061Y-136586421D01*
X130141023Y-136600317D01*
X130058078Y-136660581D01*
X130058069Y-136660588D01*
X129935588Y-136783069D01*
X129935588Y-136783070D01*
X129935586Y-136783072D01*
X129922925Y-136800499D01*
X129833768Y-136923211D01*
X129755128Y-137077552D01*
X129701597Y-137242302D01*
X129674500Y-137413389D01*
X129674500Y-137586610D01*
X129700028Y-137747792D01*
X129701598Y-137757701D01*
X129755127Y-137922445D01*
X129833768Y-138076788D01*
X129935586Y-138216928D01*
X129935588Y-138216930D01*
X130043127Y-138324469D01*
X130076612Y-138385792D01*
X130071628Y-138455484D01*
X130029756Y-138511417D01*
X130020544Y-138517688D01*
X129956344Y-138557287D01*
X129832288Y-138681343D01*
X129832285Y-138681347D01*
X129795438Y-138741086D01*
X129743490Y-138787811D01*
X129684934Y-138798126D01*
X129684934Y-138799500D01*
X129521155Y-138799500D01*
X129366510Y-138830261D01*
X129366498Y-138830264D01*
X129220827Y-138890602D01*
X129220814Y-138890609D01*
X129089711Y-138978210D01*
X129089707Y-138978213D01*
X128978213Y-139089707D01*
X128978210Y-139089711D01*
X128890609Y-139220814D01*
X128890602Y-139220827D01*
X128830264Y-139366498D01*
X128830261Y-139366510D01*
X128799500Y-139521153D01*
X128799500Y-139678846D01*
X128830261Y-139833489D01*
X128830264Y-139833501D01*
X128890602Y-139979172D01*
X128890609Y-139979185D01*
X128978210Y-140110288D01*
X128978213Y-140110292D01*
X129089707Y-140221786D01*
X129089711Y-140221789D01*
X129220814Y-140309390D01*
X129220827Y-140309397D01*
X129358683Y-140366498D01*
X129366503Y-140369737D01*
X129521153Y-140400499D01*
X129521156Y-140400500D01*
X129521158Y-140400500D01*
X129678844Y-140400500D01*
X129746750Y-140386992D01*
X129810089Y-140374393D01*
X129879680Y-140380620D01*
X129921961Y-140408329D01*
X129956344Y-140442712D01*
X130105666Y-140534814D01*
X130272203Y-140589999D01*
X130374991Y-140600500D01*
X131725008Y-140600499D01*
X131827797Y-140589999D01*
X131994334Y-140534814D01*
X132143656Y-140442712D01*
X132267712Y-140318656D01*
X132359814Y-140169334D01*
X132414999Y-140002797D01*
X132425500Y-139900009D01*
X132425499Y-139099992D01*
X132424448Y-139089707D01*
X132414999Y-138997203D01*
X132414998Y-138997200D01*
X132408705Y-138978210D01*
X132359814Y-138830666D01*
X132267712Y-138681344D01*
X132143656Y-138557288D01*
X132143652Y-138557285D01*
X132079456Y-138517688D01*
X132032731Y-138465740D01*
X132021510Y-138396777D01*
X132049353Y-138332695D01*
X132056850Y-138324491D01*
X132164414Y-138216928D01*
X132266232Y-138076788D01*
X132344873Y-137922445D01*
X132398402Y-137757701D01*
X132425500Y-137586611D01*
X132425500Y-137413389D01*
X132398402Y-137242299D01*
X132344873Y-137077555D01*
X132266232Y-136923212D01*
X132164414Y-136783072D01*
X132041928Y-136660586D01*
X131958975Y-136600317D01*
X131916311Y-136544988D01*
X131910332Y-136475374D01*
X131942938Y-136413579D01*
X131958976Y-136399682D01*
X131962808Y-136396898D01*
X132041928Y-136339414D01*
X132164414Y-136216928D01*
X132266232Y-136076788D01*
X132344873Y-135922445D01*
X132398402Y-135757701D01*
X132425500Y-135586611D01*
X132425500Y-135413389D01*
X132398402Y-135242299D01*
X132344873Y-135077555D01*
X132266232Y-134923212D01*
X132164414Y-134783072D01*
X132041928Y-134660586D01*
X131958975Y-134600317D01*
X131916311Y-134544988D01*
X131910332Y-134475374D01*
X131942938Y-134413579D01*
X131958976Y-134399682D01*
X132041928Y-134339414D01*
X132164414Y-134216928D01*
X132266232Y-134076788D01*
X132344873Y-133922445D01*
X132398402Y-133757701D01*
X132425500Y-133586611D01*
X132425500Y-133413389D01*
X132398402Y-133242299D01*
X132344873Y-133077555D01*
X132266232Y-132923212D01*
X132164414Y-132783072D01*
X132041928Y-132660586D01*
X131901788Y-132558768D01*
X131747445Y-132480127D01*
X131582701Y-132426598D01*
X131582699Y-132426597D01*
X131582698Y-132426597D01*
X131451271Y-132405781D01*
X131411611Y-132399500D01*
X130688389Y-132399500D01*
X130648728Y-132405781D01*
X130517302Y-132426597D01*
X130352549Y-132480129D01*
X130273157Y-132520581D01*
X130204488Y-132533477D01*
X130139748Y-132507200D01*
X130126223Y-132493891D01*
X130126097Y-132494018D01*
X130010292Y-132378213D01*
X130010288Y-132378210D01*
X129879185Y-132290609D01*
X129879172Y-132290602D01*
X129733501Y-132230264D01*
X129733489Y-132230261D01*
X129578845Y-132199500D01*
X129578842Y-132199500D01*
X129421158Y-132199500D01*
X129421155Y-132199500D01*
X129266510Y-132230261D01*
X129266498Y-132230264D01*
X129120827Y-132290602D01*
X129120814Y-132290609D01*
X128989711Y-132378210D01*
X128989707Y-132378213D01*
X128878213Y-132489707D01*
X128878210Y-132489711D01*
X128790609Y-132620814D01*
X128790602Y-132620827D01*
X128730264Y-132766498D01*
X128730261Y-132766510D01*
X128699500Y-132921153D01*
X77042798Y-132921153D01*
X77021789Y-132889711D01*
X77021786Y-132889707D01*
X76910292Y-132778213D01*
X76910288Y-132778210D01*
X76779185Y-132690609D01*
X76779172Y-132690602D01*
X76633501Y-132630264D01*
X76633489Y-132630261D01*
X76478845Y-132599500D01*
X76478842Y-132599500D01*
X76321158Y-132599500D01*
X76321155Y-132599500D01*
X76166510Y-132630261D01*
X76166498Y-132630264D01*
X76020827Y-132690602D01*
X76020814Y-132690609D01*
X75889711Y-132778210D01*
X75889707Y-132778213D01*
X75778213Y-132889707D01*
X75778210Y-132889711D01*
X75690609Y-133020814D01*
X75690602Y-133020827D01*
X75630264Y-133166498D01*
X75630261Y-133166510D01*
X75599500Y-133321153D01*
X71200499Y-133321153D01*
X71169738Y-133166510D01*
X71169737Y-133166503D01*
X71132893Y-133077552D01*
X71109397Y-133020827D01*
X71109390Y-133020814D01*
X71021789Y-132889711D01*
X71021786Y-132889707D01*
X70910292Y-132778213D01*
X70910288Y-132778210D01*
X70779185Y-132690609D01*
X70779172Y-132690602D01*
X70633501Y-132630264D01*
X70633489Y-132630261D01*
X70478845Y-132599500D01*
X70478842Y-132599500D01*
X70321158Y-132599500D01*
X70276287Y-132608425D01*
X70231613Y-132617311D01*
X70162022Y-132611082D01*
X70119742Y-132583374D01*
X70093657Y-132557289D01*
X70093656Y-132557288D01*
X69991078Y-132494018D01*
X69944336Y-132465187D01*
X69944331Y-132465185D01*
X69942862Y-132464698D01*
X69777797Y-132410001D01*
X69777795Y-132410000D01*
X69675010Y-132399500D01*
X68324998Y-132399500D01*
X68324981Y-132399501D01*
X68222203Y-132410000D01*
X68222200Y-132410001D01*
X68055668Y-132465185D01*
X68055663Y-132465187D01*
X67906342Y-132557289D01*
X67782289Y-132681342D01*
X67690187Y-132830663D01*
X67690186Y-132830666D01*
X67635001Y-132997203D01*
X67635001Y-132997204D01*
X67635000Y-132997204D01*
X67624500Y-133099983D01*
X66000000Y-133099983D01*
X66000000Y-132021153D01*
X100599500Y-132021153D01*
X100599500Y-132178846D01*
X100630261Y-132333489D01*
X100630264Y-132333501D01*
X100690602Y-132479172D01*
X100690609Y-132479185D01*
X100778210Y-132610288D01*
X100778213Y-132610292D01*
X100889707Y-132721786D01*
X100889711Y-132721789D01*
X101020814Y-132809390D01*
X101020827Y-132809397D01*
X101072181Y-132830668D01*
X101166503Y-132869737D01*
X101321153Y-132900499D01*
X101321156Y-132900500D01*
X101321158Y-132900500D01*
X101478844Y-132900500D01*
X101478845Y-132900499D01*
X101633497Y-132869737D01*
X101779179Y-132809394D01*
X101910289Y-132721789D01*
X102021789Y-132610289D01*
X102109394Y-132479179D01*
X102115191Y-132465185D01*
X102169735Y-132333501D01*
X102169737Y-132333497D01*
X102200500Y-132178842D01*
X102200500Y-132021158D01*
X102200500Y-132021155D01*
X102200499Y-132021153D01*
X102178269Y-131909397D01*
X102169737Y-131866503D01*
X102133427Y-131778842D01*
X102109397Y-131720827D01*
X102109390Y-131720814D01*
X102084763Y-131683957D01*
X102042798Y-131621153D01*
X112499500Y-131621153D01*
X112499500Y-131778846D01*
X112530261Y-131933489D01*
X112530264Y-131933501D01*
X112590602Y-132079172D01*
X112590609Y-132079185D01*
X112678210Y-132210288D01*
X112678213Y-132210292D01*
X112789707Y-132321786D01*
X112789711Y-132321789D01*
X112920814Y-132409390D01*
X112920827Y-132409397D01*
X112962355Y-132426598D01*
X113066503Y-132469737D01*
X113187933Y-132493891D01*
X113221153Y-132500499D01*
X113221156Y-132500500D01*
X113221158Y-132500500D01*
X113378844Y-132500500D01*
X113378845Y-132500499D01*
X113533497Y-132469737D01*
X113679179Y-132409394D01*
X113810289Y-132321789D01*
X113921789Y-132210289D01*
X114009394Y-132079179D01*
X114069737Y-131933497D01*
X114100500Y-131778842D01*
X114100500Y-131621158D01*
X114100500Y-131621155D01*
X114100499Y-131621153D01*
X114072066Y-131478211D01*
X114069737Y-131466503D01*
X114038298Y-131390602D01*
X114009397Y-131320827D01*
X114009390Y-131320814D01*
X113921789Y-131189711D01*
X113921786Y-131189707D01*
X113810292Y-131078213D01*
X113810288Y-131078210D01*
X113679185Y-130990609D01*
X113679172Y-130990602D01*
X113533501Y-130930264D01*
X113533489Y-130930261D01*
X113378845Y-130899500D01*
X113378842Y-130899500D01*
X113221158Y-130899500D01*
X113221155Y-130899500D01*
X113066510Y-130930261D01*
X113066498Y-130930264D01*
X112920827Y-130990602D01*
X112920814Y-130990609D01*
X112789711Y-131078210D01*
X112789707Y-131078213D01*
X112678213Y-131189707D01*
X112678210Y-131189711D01*
X112590609Y-131320814D01*
X112590602Y-131320827D01*
X112530264Y-131466498D01*
X112530261Y-131466510D01*
X112499500Y-131621153D01*
X102042798Y-131621153D01*
X102021789Y-131589711D01*
X102021786Y-131589707D01*
X101910292Y-131478213D01*
X101910288Y-131478210D01*
X101779185Y-131390609D01*
X101779172Y-131390602D01*
X101633501Y-131330264D01*
X101633489Y-131330261D01*
X101478845Y-131299500D01*
X101478842Y-131299500D01*
X101321158Y-131299500D01*
X101321155Y-131299500D01*
X101166510Y-131330261D01*
X101166498Y-131330264D01*
X101020827Y-131390602D01*
X101020814Y-131390609D01*
X100889711Y-131478210D01*
X100889707Y-131478213D01*
X100778213Y-131589707D01*
X100778210Y-131589711D01*
X100690609Y-131720814D01*
X100690602Y-131720827D01*
X100630264Y-131866498D01*
X100630261Y-131866510D01*
X100599500Y-132021153D01*
X66000000Y-132021153D01*
X66000000Y-129386348D01*
X66019685Y-129319309D01*
X66072489Y-129273554D01*
X66141647Y-129263610D01*
X66160434Y-129268766D01*
X66160676Y-129267969D01*
X66166492Y-129269732D01*
X66166503Y-129269737D01*
X66316131Y-129299500D01*
X66321153Y-129300499D01*
X66321156Y-129300500D01*
X66321158Y-129300500D01*
X66478844Y-129300500D01*
X66478845Y-129300499D01*
X66633497Y-129269737D01*
X66779179Y-129209394D01*
X66910289Y-129121789D01*
X67021789Y-129010289D01*
X67109394Y-128879179D01*
X67112854Y-128870827D01*
X67123067Y-128846166D01*
X67169737Y-128733497D01*
X67200500Y-128578842D01*
X67200500Y-128421158D01*
X67200500Y-128421155D01*
X67200499Y-128421153D01*
X67198955Y-128413389D01*
X67169737Y-128266503D01*
X67169735Y-128266498D01*
X67109397Y-128120827D01*
X67109390Y-128120814D01*
X67021789Y-127989711D01*
X67021786Y-127989707D01*
X66910292Y-127878213D01*
X66910284Y-127878207D01*
X66872712Y-127853102D01*
X66827906Y-127799490D01*
X66819199Y-127730165D01*
X66849353Y-127667138D01*
X66872712Y-127646898D01*
X66899279Y-127629145D01*
X66910289Y-127621789D01*
X67021789Y-127510289D01*
X67109394Y-127379179D01*
X67169737Y-127233497D01*
X67200500Y-127078842D01*
X67200500Y-126921158D01*
X67200500Y-126921155D01*
X67200499Y-126921153D01*
X67194340Y-126890188D01*
X67169737Y-126766503D01*
X67115683Y-126636003D01*
X67109397Y-126620827D01*
X67109390Y-126620814D01*
X67021789Y-126489711D01*
X67021786Y-126489707D01*
X66910292Y-126378213D01*
X66910288Y-126378210D01*
X66779185Y-126290609D01*
X66779172Y-126290602D01*
X66633501Y-126230264D01*
X66633491Y-126230261D01*
X66478151Y-126199362D01*
X66461394Y-126190596D01*
X66442916Y-126186577D01*
X66417875Y-126167831D01*
X66416241Y-126166977D01*
X66414664Y-126165428D01*
X66414660Y-126165425D01*
X66380520Y-126131284D01*
X66268717Y-126019481D01*
X66268716Y-126019480D01*
X66242907Y-126004579D01*
X66188050Y-125972908D01*
X66188047Y-125972907D01*
X66181904Y-125969360D01*
X66131785Y-125940423D01*
X66083060Y-125927367D01*
X66074655Y-125923721D01*
X66054568Y-125906977D01*
X66032245Y-125893370D01*
X66028163Y-125884966D01*
X66020986Y-125878984D01*
X66013141Y-125854041D01*
X66001717Y-125830523D01*
X66000261Y-125813090D01*
X66000023Y-125812333D01*
X66000157Y-125811842D01*
X66000000Y-125809962D01*
X66000000Y-124320259D01*
X67799500Y-124320259D01*
X67799500Y-124679740D01*
X67839746Y-125036935D01*
X67839748Y-125036951D01*
X67919737Y-125387407D01*
X67919741Y-125387419D01*
X68038465Y-125726711D01*
X68194432Y-126050579D01*
X68194434Y-126050582D01*
X68385685Y-126354956D01*
X68552891Y-126564626D01*
X68597709Y-126620827D01*
X68609812Y-126636003D01*
X68863997Y-126890188D01*
X69145044Y-127114315D01*
X69449418Y-127305566D01*
X69773292Y-127461536D01*
X70028119Y-127550703D01*
X70112580Y-127580258D01*
X70112592Y-127580262D01*
X70463052Y-127660252D01*
X70820260Y-127700499D01*
X70820261Y-127700500D01*
X70820264Y-127700500D01*
X71179739Y-127700500D01*
X71179739Y-127700499D01*
X71536948Y-127660252D01*
X71887408Y-127580262D01*
X72226708Y-127461536D01*
X72550582Y-127305566D01*
X72854956Y-127114315D01*
X73136003Y-126890188D01*
X73390188Y-126636003D01*
X73614315Y-126354956D01*
X73805566Y-126050582D01*
X73961536Y-125726708D01*
X74080262Y-125387408D01*
X74160252Y-125036948D01*
X74200500Y-124679736D01*
X74200500Y-124320264D01*
X74160252Y-123963052D01*
X74080262Y-123612592D01*
X73961536Y-123273292D01*
X73805566Y-122949418D01*
X73614315Y-122645044D01*
X73390188Y-122363997D01*
X73136003Y-122109812D01*
X72854956Y-121885685D01*
X72550582Y-121694434D01*
X72550579Y-121694432D01*
X72226711Y-121538465D01*
X71887419Y-121419741D01*
X71887407Y-121419737D01*
X71536951Y-121339748D01*
X71536935Y-121339746D01*
X71179740Y-121299500D01*
X71179736Y-121299500D01*
X70820264Y-121299500D01*
X70820259Y-121299500D01*
X70463064Y-121339746D01*
X70463048Y-121339748D01*
X70112592Y-121419737D01*
X70112580Y-121419741D01*
X69773288Y-121538465D01*
X69449420Y-121694432D01*
X69145045Y-121885684D01*
X68863997Y-122109811D01*
X68609811Y-122363997D01*
X68385684Y-122645045D01*
X68194432Y-122949420D01*
X68038465Y-123273288D01*
X67919741Y-123612580D01*
X67919737Y-123612592D01*
X67839748Y-123963048D01*
X67839746Y-123963064D01*
X67799500Y-124320259D01*
X66000000Y-124320259D01*
X66000000Y-122344927D01*
X66019685Y-122277888D01*
X66072489Y-122232133D01*
X66141647Y-122222189D01*
X66171450Y-122230365D01*
X66266503Y-122269737D01*
X66421153Y-122300499D01*
X66421156Y-122300500D01*
X66421158Y-122300500D01*
X66578844Y-122300500D01*
X66578845Y-122300499D01*
X66733497Y-122269737D01*
X66879179Y-122209394D01*
X67010289Y-122121789D01*
X67121789Y-122010289D01*
X67209394Y-121879179D01*
X67212806Y-121870943D01*
X67223067Y-121846166D01*
X67269737Y-121733497D01*
X67300500Y-121578842D01*
X67300500Y-121421158D01*
X67300500Y-121421155D01*
X67300499Y-121421153D01*
X67284240Y-121339414D01*
X67269737Y-121266503D01*
X67249203Y-121216928D01*
X67209397Y-121120827D01*
X67209390Y-121120814D01*
X67121789Y-120989711D01*
X67121786Y-120989707D01*
X67010292Y-120878213D01*
X67010288Y-120878210D01*
X66879185Y-120790609D01*
X66879172Y-120790602D01*
X66733501Y-120730264D01*
X66733489Y-120730261D01*
X66578845Y-120699500D01*
X66578842Y-120699500D01*
X66421158Y-120699500D01*
X66421155Y-120699500D01*
X66266510Y-120730261D01*
X66266507Y-120730262D01*
X66266506Y-120730262D01*
X66266503Y-120730263D01*
X66185410Y-120763852D01*
X66171452Y-120769634D01*
X66101982Y-120777102D01*
X66039503Y-120745826D01*
X66003851Y-120685737D01*
X66000000Y-120655072D01*
X66000000Y-120344927D01*
X66019685Y-120277888D01*
X66072489Y-120232133D01*
X66141647Y-120222189D01*
X66171450Y-120230365D01*
X66266503Y-120269737D01*
X66421153Y-120300499D01*
X66421156Y-120300500D01*
X66421158Y-120300500D01*
X66578844Y-120300500D01*
X66578845Y-120300499D01*
X66733497Y-120269737D01*
X66879179Y-120209394D01*
X67010289Y-120121789D01*
X67121789Y-120010289D01*
X67209394Y-119879179D01*
X67269737Y-119733497D01*
X67300500Y-119578842D01*
X67300500Y-119421158D01*
X67300500Y-119421155D01*
X67300499Y-119421153D01*
X67269738Y-119266510D01*
X67269737Y-119266503D01*
X67269735Y-119266498D01*
X67209397Y-119120827D01*
X67209390Y-119120814D01*
X67121789Y-118989711D01*
X67121786Y-118989707D01*
X67010292Y-118878213D01*
X67010288Y-118878210D01*
X66879185Y-118790609D01*
X66879172Y-118790602D01*
X66733501Y-118730264D01*
X66733489Y-118730261D01*
X66578845Y-118699500D01*
X66578842Y-118699500D01*
X66421158Y-118699500D01*
X66421155Y-118699500D01*
X66266510Y-118730261D01*
X66266507Y-118730262D01*
X66266506Y-118730262D01*
X66266503Y-118730263D01*
X66185410Y-118763852D01*
X66171452Y-118769634D01*
X66101982Y-118777102D01*
X66039503Y-118745826D01*
X66003851Y-118685737D01*
X66000000Y-118655072D01*
X66000000Y-116344927D01*
X66019685Y-116277888D01*
X66072489Y-116232133D01*
X66141647Y-116222189D01*
X66171450Y-116230365D01*
X66266503Y-116269737D01*
X66392734Y-116294846D01*
X66421153Y-116300499D01*
X66421156Y-116300500D01*
X66502044Y-116300500D01*
X66569083Y-116320185D01*
X66614838Y-116372989D01*
X66623661Y-116400309D01*
X66630261Y-116433489D01*
X66630264Y-116433501D01*
X66690602Y-116579172D01*
X66690609Y-116579185D01*
X66778210Y-116710288D01*
X66778213Y-116710292D01*
X66889707Y-116821786D01*
X66889711Y-116821789D01*
X67020814Y-116909390D01*
X67020827Y-116909397D01*
X67095732Y-116940423D01*
X67166503Y-116969737D01*
X67321153Y-117000499D01*
X67321156Y-117000500D01*
X67321158Y-117000500D01*
X67478844Y-117000500D01*
X67478845Y-117000499D01*
X67633497Y-116969737D01*
X67779179Y-116909394D01*
X67910289Y-116821789D01*
X68021789Y-116710289D01*
X68109394Y-116579179D01*
X68169737Y-116433497D01*
X68200500Y-116278842D01*
X68200500Y-116121158D01*
X68200500Y-116121155D01*
X68200499Y-116121153D01*
X68188251Y-116059577D01*
X68169737Y-115966503D01*
X68169735Y-115966498D01*
X68109397Y-115820827D01*
X68109390Y-115820814D01*
X68021398Y-115689125D01*
X68015747Y-115671078D01*
X68005523Y-115655169D01*
X68001071Y-115624207D01*
X68000520Y-115622447D01*
X68000500Y-115620234D01*
X68000500Y-115379765D01*
X68020185Y-115312726D01*
X68021398Y-115310874D01*
X68065745Y-115244505D01*
X68109394Y-115179179D01*
X68169737Y-115033497D01*
X68200500Y-114878842D01*
X68200500Y-114721158D01*
X68200500Y-114721155D01*
X68200499Y-114721153D01*
X68195988Y-114698473D01*
X68169737Y-114566503D01*
X68133427Y-114478842D01*
X68109397Y-114420827D01*
X68109390Y-114420814D01*
X68021789Y-114289711D01*
X68021786Y-114289707D01*
X67910292Y-114178213D01*
X67910288Y-114178210D01*
X67779185Y-114090609D01*
X67779172Y-114090602D01*
X67633501Y-114030264D01*
X67633489Y-114030261D01*
X67478845Y-113999500D01*
X67478842Y-113999500D01*
X67345134Y-113999500D01*
X67278095Y-113979815D01*
X67232340Y-113927011D01*
X67222396Y-113857853D01*
X67230573Y-113828047D01*
X67237651Y-113810959D01*
X67269737Y-113733497D01*
X67300500Y-113578842D01*
X67300500Y-113421158D01*
X67300500Y-113421155D01*
X67300499Y-113421153D01*
X67274531Y-113290606D01*
X67269737Y-113266503D01*
X67262694Y-113249500D01*
X67209397Y-113120827D01*
X67209390Y-113120814D01*
X67121789Y-112989711D01*
X67121786Y-112989707D01*
X67010292Y-112878213D01*
X67010288Y-112878210D01*
X66879185Y-112790609D01*
X66879172Y-112790602D01*
X66733501Y-112730264D01*
X66733489Y-112730261D01*
X66578845Y-112699500D01*
X66578842Y-112699500D01*
X66421158Y-112699500D01*
X66421155Y-112699500D01*
X66266510Y-112730261D01*
X66266507Y-112730262D01*
X66266506Y-112730262D01*
X66266503Y-112730263D01*
X66185410Y-112763852D01*
X66171452Y-112769634D01*
X66101982Y-112777102D01*
X66039503Y-112745826D01*
X66003851Y-112685737D01*
X66000000Y-112655072D01*
X66000000Y-112344927D01*
X66019685Y-112277888D01*
X66072489Y-112232133D01*
X66141647Y-112222189D01*
X66171450Y-112230365D01*
X66266503Y-112269737D01*
X66421153Y-112300499D01*
X66421156Y-112300500D01*
X66421158Y-112300500D01*
X66578844Y-112300500D01*
X66578845Y-112300499D01*
X66733497Y-112269737D01*
X66879179Y-112209394D01*
X67010289Y-112121789D01*
X67121789Y-112010289D01*
X67209394Y-111879179D01*
X67269737Y-111733497D01*
X67300500Y-111578842D01*
X67300500Y-111421158D01*
X67300500Y-111421155D01*
X67300499Y-111421153D01*
X67269738Y-111266510D01*
X67269737Y-111266503D01*
X67269735Y-111266498D01*
X67209397Y-111120827D01*
X67209390Y-111120814D01*
X67121789Y-110989711D01*
X67121786Y-110989707D01*
X67010292Y-110878213D01*
X67010288Y-110878210D01*
X66879185Y-110790609D01*
X66879172Y-110790602D01*
X66733501Y-110730264D01*
X66733489Y-110730261D01*
X66578845Y-110699500D01*
X66578842Y-110699500D01*
X66421158Y-110699500D01*
X66421155Y-110699500D01*
X66266510Y-110730261D01*
X66266507Y-110730262D01*
X66266506Y-110730262D01*
X66266503Y-110730263D01*
X66185410Y-110763852D01*
X66171452Y-110769634D01*
X66101982Y-110777102D01*
X66039503Y-110745826D01*
X66003851Y-110685737D01*
X66000000Y-110655072D01*
X66000000Y-108921153D01*
X70199500Y-108921153D01*
X70199500Y-109078846D01*
X70230261Y-109233489D01*
X70230264Y-109233501D01*
X70290602Y-109379172D01*
X70290609Y-109379185D01*
X70378210Y-109510288D01*
X70378213Y-109510292D01*
X70489707Y-109621786D01*
X70489711Y-109621789D01*
X70620814Y-109709390D01*
X70620827Y-109709397D01*
X70766498Y-109769735D01*
X70766503Y-109769737D01*
X70921153Y-109800499D01*
X70921156Y-109800500D01*
X70921158Y-109800500D01*
X71078844Y-109800500D01*
X71078845Y-109800499D01*
X71233497Y-109769737D01*
X71379179Y-109709394D01*
X71510289Y-109621789D01*
X71621789Y-109510289D01*
X71709394Y-109379179D01*
X71769737Y-109233497D01*
X71800500Y-109078842D01*
X71800500Y-108921158D01*
X71800500Y-108921155D01*
X71800499Y-108921153D01*
X71769738Y-108766510D01*
X71769737Y-108766503D01*
X71754228Y-108729060D01*
X71709397Y-108620827D01*
X71709390Y-108620814D01*
X71621789Y-108489711D01*
X71621786Y-108489707D01*
X71510292Y-108378213D01*
X71510288Y-108378210D01*
X71379185Y-108290609D01*
X71379172Y-108290602D01*
X71233501Y-108230264D01*
X71233489Y-108230261D01*
X71078845Y-108199500D01*
X71078842Y-108199500D01*
X70921158Y-108199500D01*
X70921155Y-108199500D01*
X70766510Y-108230261D01*
X70766498Y-108230264D01*
X70620827Y-108290602D01*
X70620814Y-108290609D01*
X70489711Y-108378210D01*
X70489707Y-108378213D01*
X70378213Y-108489707D01*
X70378210Y-108489711D01*
X70290609Y-108620814D01*
X70290602Y-108620827D01*
X70230264Y-108766498D01*
X70230261Y-108766510D01*
X70199500Y-108921153D01*
X66000000Y-108921153D01*
X66000000Y-107344927D01*
X66019685Y-107277888D01*
X66072489Y-107232133D01*
X66141647Y-107222189D01*
X66171450Y-107230365D01*
X66266503Y-107269737D01*
X66371418Y-107290606D01*
X66421153Y-107300499D01*
X66421156Y-107300500D01*
X66421158Y-107300500D01*
X66578844Y-107300500D01*
X66578845Y-107300499D01*
X66733497Y-107269737D01*
X66851592Y-107220821D01*
X66879172Y-107209397D01*
X66879172Y-107209396D01*
X66879179Y-107209394D01*
X67010289Y-107121789D01*
X67121789Y-107010289D01*
X67209394Y-106879179D01*
X67269737Y-106733497D01*
X67300500Y-106578842D01*
X67300500Y-106421158D01*
X67300500Y-106421155D01*
X67300499Y-106421153D01*
X67296291Y-106400000D01*
X67269737Y-106266503D01*
X67269735Y-106266498D01*
X67209397Y-106120827D01*
X67209390Y-106120814D01*
X67121789Y-105989711D01*
X67121786Y-105989707D01*
X67010292Y-105878213D01*
X67010288Y-105878210D01*
X66879185Y-105790609D01*
X66879172Y-105790602D01*
X66733501Y-105730264D01*
X66733489Y-105730261D01*
X66578845Y-105699500D01*
X66578842Y-105699500D01*
X66421158Y-105699500D01*
X66421155Y-105699500D01*
X66266510Y-105730261D01*
X66266507Y-105730262D01*
X66266506Y-105730262D01*
X66266503Y-105730263D01*
X66185410Y-105763852D01*
X66171452Y-105769634D01*
X66101982Y-105777102D01*
X66039503Y-105745826D01*
X66003851Y-105685737D01*
X66000000Y-105655072D01*
X66000000Y-105344927D01*
X66019685Y-105277888D01*
X66072489Y-105232133D01*
X66141647Y-105222189D01*
X66171450Y-105230365D01*
X66266503Y-105269737D01*
X66420323Y-105300334D01*
X66420943Y-105300500D01*
X66421158Y-105300500D01*
X66578842Y-105300500D01*
X66579057Y-105300500D01*
X66579676Y-105300334D01*
X66733497Y-105269737D01*
X66879179Y-105209394D01*
X67010289Y-105121789D01*
X67121789Y-105010289D01*
X67209394Y-104879179D01*
X67269737Y-104733497D01*
X67300500Y-104578842D01*
X67300500Y-104421158D01*
X67300500Y-104421155D01*
X67300499Y-104421153D01*
X67289627Y-104366498D01*
X67269737Y-104266503D01*
X67269735Y-104266498D01*
X67209397Y-104120827D01*
X67209390Y-104120814D01*
X67121789Y-103989711D01*
X67121786Y-103989707D01*
X67010292Y-103878213D01*
X67010288Y-103878210D01*
X66879185Y-103790609D01*
X66879172Y-103790602D01*
X66733501Y-103730264D01*
X66733489Y-103730261D01*
X66578845Y-103699500D01*
X66578842Y-103699500D01*
X66421158Y-103699500D01*
X66421155Y-103699500D01*
X66266510Y-103730261D01*
X66266507Y-103730262D01*
X66266506Y-103730262D01*
X66266503Y-103730263D01*
X66185410Y-103763852D01*
X66171452Y-103769634D01*
X66101982Y-103777102D01*
X66039503Y-103745826D01*
X66003851Y-103685737D01*
X66000000Y-103655072D01*
X66000000Y-103344927D01*
X66019685Y-103277888D01*
X66072489Y-103232133D01*
X66141647Y-103222189D01*
X66171450Y-103230365D01*
X66266503Y-103269737D01*
X66421153Y-103300499D01*
X66421156Y-103300500D01*
X66421158Y-103300500D01*
X66578844Y-103300500D01*
X66578845Y-103300499D01*
X66733497Y-103269737D01*
X66879179Y-103209394D01*
X67010289Y-103121789D01*
X67121789Y-103010289D01*
X67209394Y-102879179D01*
X67269737Y-102733497D01*
X67300500Y-102578842D01*
X67300500Y-102421158D01*
X67300500Y-102421155D01*
X67300499Y-102421153D01*
X67289628Y-102366503D01*
X67269737Y-102266503D01*
X67242398Y-102200500D01*
X67209397Y-102120827D01*
X67209390Y-102120814D01*
X67121789Y-101989711D01*
X67121786Y-101989707D01*
X67010292Y-101878213D01*
X67010288Y-101878210D01*
X66879185Y-101790609D01*
X66879172Y-101790602D01*
X66733501Y-101730264D01*
X66733489Y-101730261D01*
X66578845Y-101699500D01*
X66578842Y-101699500D01*
X66421158Y-101699500D01*
X66421155Y-101699500D01*
X66266510Y-101730261D01*
X66266507Y-101730262D01*
X66266506Y-101730262D01*
X66266503Y-101730263D01*
X66194016Y-101760288D01*
X66171452Y-101769634D01*
X66101982Y-101777102D01*
X66039503Y-101745826D01*
X66003851Y-101685737D01*
X66000000Y-101655072D01*
X66000000Y-101344927D01*
X66019685Y-101277888D01*
X66072489Y-101232133D01*
X66141647Y-101222189D01*
X66171450Y-101230365D01*
X66266503Y-101269737D01*
X66421153Y-101300499D01*
X66421156Y-101300500D01*
X66421158Y-101300500D01*
X66578844Y-101300500D01*
X66578845Y-101300499D01*
X66733497Y-101269737D01*
X66879179Y-101209394D01*
X66936411Y-101171153D01*
X72624500Y-101171153D01*
X72624500Y-101328846D01*
X72655261Y-101483489D01*
X72655264Y-101483501D01*
X72715602Y-101629172D01*
X72715609Y-101629185D01*
X72803210Y-101760288D01*
X72803213Y-101760292D01*
X72914707Y-101871786D01*
X72914711Y-101871789D01*
X73045814Y-101959390D01*
X73045827Y-101959397D01*
X73191498Y-102019735D01*
X73191503Y-102019737D01*
X73346153Y-102050499D01*
X73346156Y-102050500D01*
X73346158Y-102050500D01*
X73503844Y-102050500D01*
X73503845Y-102050499D01*
X73658497Y-102019737D01*
X73804179Y-101959394D01*
X73935289Y-101871789D01*
X74046789Y-101760289D01*
X74134394Y-101629179D01*
X74194737Y-101483497D01*
X74225500Y-101328842D01*
X74225500Y-101171158D01*
X74225500Y-101171155D01*
X74225499Y-101171153D01*
X74206847Y-101077385D01*
X74194737Y-101016503D01*
X74192163Y-101010288D01*
X74134397Y-100870827D01*
X74134390Y-100870814D01*
X74046789Y-100739711D01*
X74046786Y-100739707D01*
X73935292Y-100628213D01*
X73935288Y-100628210D01*
X73804185Y-100540609D01*
X73804172Y-100540602D01*
X73658501Y-100480264D01*
X73658489Y-100480261D01*
X73503845Y-100449500D01*
X73503842Y-100449500D01*
X73346158Y-100449500D01*
X73346155Y-100449500D01*
X73191510Y-100480261D01*
X73191498Y-100480264D01*
X73045827Y-100540602D01*
X73045814Y-100540609D01*
X72914711Y-100628210D01*
X72914707Y-100628213D01*
X72803213Y-100739707D01*
X72803210Y-100739711D01*
X72715609Y-100870814D01*
X72715602Y-100870827D01*
X72655264Y-101016498D01*
X72655261Y-101016510D01*
X72624500Y-101171153D01*
X66936411Y-101171153D01*
X67010289Y-101121789D01*
X67031578Y-101100500D01*
X67054694Y-101077385D01*
X67121786Y-101010292D01*
X67121789Y-101010289D01*
X67209394Y-100879179D01*
X67212854Y-100870827D01*
X67223067Y-100846166D01*
X67269737Y-100733497D01*
X67300500Y-100578842D01*
X67300500Y-100421158D01*
X67300500Y-100421155D01*
X67300499Y-100421153D01*
X67298338Y-100410288D01*
X67269737Y-100266503D01*
X67269735Y-100266498D01*
X67209397Y-100120827D01*
X67209390Y-100120814D01*
X67121789Y-99989711D01*
X67121786Y-99989707D01*
X67010292Y-99878213D01*
X67010288Y-99878210D01*
X66879185Y-99790609D01*
X66879172Y-99790602D01*
X66733501Y-99730264D01*
X66733489Y-99730261D01*
X66578845Y-99699500D01*
X66578842Y-99699500D01*
X66421158Y-99699500D01*
X66421155Y-99699500D01*
X66266510Y-99730261D01*
X66266507Y-99730262D01*
X66266506Y-99730262D01*
X66266503Y-99730263D01*
X66185410Y-99763852D01*
X66171452Y-99769634D01*
X66101982Y-99777102D01*
X66039503Y-99745826D01*
X66003851Y-99685737D01*
X66000000Y-99655072D01*
X66000000Y-97334572D01*
X66019685Y-97267533D01*
X66072489Y-97221778D01*
X66141647Y-97211834D01*
X66171452Y-97220011D01*
X66286182Y-97267533D01*
X66291503Y-97269737D01*
X66446153Y-97300499D01*
X66446156Y-97300500D01*
X66446158Y-97300500D01*
X66603844Y-97300500D01*
X66603845Y-97300499D01*
X66758497Y-97269737D01*
X66876592Y-97220821D01*
X66904172Y-97209397D01*
X66904172Y-97209396D01*
X66904179Y-97209394D01*
X67035289Y-97121789D01*
X67146789Y-97010289D01*
X67234394Y-96879179D01*
X67294737Y-96733497D01*
X67325500Y-96578842D01*
X67325500Y-96421158D01*
X67325500Y-96421155D01*
X67325499Y-96421153D01*
X67313418Y-96360417D01*
X67294737Y-96266503D01*
X67294735Y-96266498D01*
X67234397Y-96120827D01*
X67234390Y-96120814D01*
X67146789Y-95989711D01*
X67146786Y-95989707D01*
X67035292Y-95878213D01*
X67035288Y-95878210D01*
X66904185Y-95790609D01*
X66904172Y-95790602D01*
X66758501Y-95730264D01*
X66758489Y-95730261D01*
X66603845Y-95699500D01*
X66603842Y-95699500D01*
X66446158Y-95699500D01*
X66446155Y-95699500D01*
X66291510Y-95730261D01*
X66291507Y-95730262D01*
X66291506Y-95730262D01*
X66291503Y-95730263D01*
X66228931Y-95756181D01*
X66171452Y-95779989D01*
X66101982Y-95787457D01*
X66039503Y-95756181D01*
X66003851Y-95696092D01*
X66000000Y-95665427D01*
X66000000Y-82897648D01*
X67602151Y-82897648D01*
X67602151Y-83102351D01*
X67634173Y-83304534D01*
X67697432Y-83499223D01*
X67748768Y-83599973D01*
X67774607Y-83650686D01*
X67790366Y-83681613D01*
X67910679Y-83847213D01*
X68055437Y-83991971D01*
X68173065Y-84077431D01*
X68221041Y-84112287D01*
X68323625Y-84164556D01*
X68403427Y-84205218D01*
X68403429Y-84205218D01*
X68403432Y-84205220D01*
X68493110Y-84234358D01*
X68598116Y-84268477D01*
X68699208Y-84284488D01*
X68800299Y-84300500D01*
X68800300Y-84300500D01*
X69005002Y-84300500D01*
X69005003Y-84300500D01*
X69207185Y-84268477D01*
X69401870Y-84205220D01*
X69584261Y-84112287D01*
X69685173Y-84038971D01*
X69749864Y-83991971D01*
X69749866Y-83991968D01*
X69749870Y-83991966D01*
X69894617Y-83847219D01*
X69894619Y-83847215D01*
X69894622Y-83847213D01*
X69959655Y-83757701D01*
X70014938Y-83681610D01*
X70107871Y-83499219D01*
X70171128Y-83304534D01*
X70179573Y-83251213D01*
X70190973Y-83179240D01*
X70203151Y-83102351D01*
X70203151Y-82897648D01*
X70171128Y-82695465D01*
X70126712Y-82558768D01*
X70107871Y-82500781D01*
X70107868Y-82500777D01*
X70107868Y-82500774D01*
X70083607Y-82453160D01*
X70083606Y-82453159D01*
X70077529Y-82441232D01*
X70056527Y-82400013D01*
X71102651Y-82400013D01*
X71102651Y-82750000D01*
X72086965Y-82750000D01*
X72082571Y-82754394D01*
X72029910Y-82845606D01*
X72002651Y-82947339D01*
X72002651Y-83052661D01*
X72029910Y-83154394D01*
X72082571Y-83245606D01*
X72086965Y-83250000D01*
X71102652Y-83250000D01*
X71102652Y-83599986D01*
X71113145Y-83702697D01*
X71168292Y-83869119D01*
X71168294Y-83869124D01*
X71260335Y-84018345D01*
X71384305Y-84142315D01*
X71533526Y-84234356D01*
X71533531Y-84234358D01*
X71699953Y-84289505D01*
X71699960Y-84289506D01*
X71802670Y-84299999D01*
X72152650Y-84299999D01*
X72152651Y-84299998D01*
X72152651Y-83315686D01*
X72157045Y-83320080D01*
X72248257Y-83372741D01*
X72349990Y-83400000D01*
X72455312Y-83400000D01*
X72557045Y-83372741D01*
X72648257Y-83320080D01*
X72652651Y-83315686D01*
X72652651Y-84299999D01*
X73002623Y-84299999D01*
X73002637Y-84299998D01*
X73105348Y-84289505D01*
X73271770Y-84234358D01*
X73271775Y-84234356D01*
X73420996Y-84142315D01*
X73544966Y-84018345D01*
X73637007Y-83869124D01*
X73637009Y-83869119D01*
X73692156Y-83702697D01*
X73692157Y-83702690D01*
X73702650Y-83599986D01*
X73702651Y-83599973D01*
X73702651Y-83250000D01*
X72718337Y-83250000D01*
X72722731Y-83245606D01*
X72775392Y-83154394D01*
X72802651Y-83052661D01*
X72802651Y-82947339D01*
X72775392Y-82845606D01*
X72722731Y-82754394D01*
X72718337Y-82750000D01*
X73702650Y-82750000D01*
X73702650Y-82400028D01*
X73702649Y-82400013D01*
X73692156Y-82297302D01*
X73637009Y-82130880D01*
X73637007Y-82130875D01*
X73544966Y-81981654D01*
X73420996Y-81857684D01*
X73271775Y-81765643D01*
X73271770Y-81765641D01*
X73105348Y-81710494D01*
X73105341Y-81710493D01*
X73002637Y-81700000D01*
X72652651Y-81700000D01*
X72652651Y-82684314D01*
X72648257Y-82679920D01*
X72557045Y-82627259D01*
X72455312Y-82600000D01*
X72349990Y-82600000D01*
X72248257Y-82627259D01*
X72157045Y-82679920D01*
X72152651Y-82684314D01*
X72152651Y-81700000D01*
X71802679Y-81700000D01*
X71802663Y-81700001D01*
X71699953Y-81710494D01*
X71533531Y-81765641D01*
X71533526Y-81765643D01*
X71384305Y-81857684D01*
X71260335Y-81981654D01*
X71168294Y-82130875D01*
X71168292Y-82130880D01*
X71113145Y-82297302D01*
X71113144Y-82297309D01*
X71102651Y-82400013D01*
X70056527Y-82400013D01*
X70014938Y-82318390D01*
X70014936Y-82318387D01*
X70014935Y-82318385D01*
X69894622Y-82152786D01*
X69749864Y-82008028D01*
X69584264Y-81887715D01*
X69584263Y-81887714D01*
X69584261Y-81887713D01*
X69525326Y-81857684D01*
X69401874Y-81794781D01*
X69207185Y-81731522D01*
X69032646Y-81703878D01*
X69005003Y-81699500D01*
X68800299Y-81699500D01*
X68775980Y-81703351D01*
X68598116Y-81731522D01*
X68403427Y-81794781D01*
X68221037Y-81887715D01*
X68055437Y-82008028D01*
X67910679Y-82152786D01*
X67790366Y-82318386D01*
X67697432Y-82500776D01*
X67634173Y-82695465D01*
X67602151Y-82897648D01*
X66000000Y-82897648D01*
X66000000Y-75320259D01*
X67799500Y-75320259D01*
X67799500Y-75679740D01*
X67839746Y-76036935D01*
X67839748Y-76036951D01*
X67919737Y-76387407D01*
X67919741Y-76387419D01*
X68038465Y-76726711D01*
X68194432Y-77050579D01*
X68194434Y-77050582D01*
X68385685Y-77354956D01*
X68609812Y-77636003D01*
X68863997Y-77890188D01*
X69145044Y-78114315D01*
X69449418Y-78305566D01*
X69773292Y-78461536D01*
X69942765Y-78520837D01*
X70112580Y-78580258D01*
X70112592Y-78580262D01*
X70463052Y-78660252D01*
X70820260Y-78700499D01*
X70820261Y-78700500D01*
X70820264Y-78700500D01*
X71179739Y-78700500D01*
X71179739Y-78700499D01*
X71536948Y-78660252D01*
X71887408Y-78580262D01*
X72226708Y-78461536D01*
X72550582Y-78305566D01*
X72854956Y-78114315D01*
X73136003Y-77890188D01*
X73390188Y-77636003D01*
X73614315Y-77354956D01*
X73805566Y-77050582D01*
X73961536Y-76726708D01*
X74080262Y-76387408D01*
X74160252Y-76036948D01*
X74200500Y-75679736D01*
X74200500Y-75320264D01*
X74160252Y-74963052D01*
X74080262Y-74612592D01*
X73961536Y-74273292D01*
X73805566Y-73949418D01*
X73614315Y-73645044D01*
X73390188Y-73363997D01*
X73136003Y-73109812D01*
X72854956Y-72885685D01*
X72550582Y-72694434D01*
X72550579Y-72694432D01*
X72226711Y-72538465D01*
X71887419Y-72419741D01*
X71887407Y-72419737D01*
X71536951Y-72339748D01*
X71536935Y-72339746D01*
X71179740Y-72299500D01*
X71179736Y-72299500D01*
X70820264Y-72299500D01*
X70820259Y-72299500D01*
X70463064Y-72339746D01*
X70463048Y-72339748D01*
X70112592Y-72419737D01*
X70112580Y-72419741D01*
X69773288Y-72538465D01*
X69449420Y-72694432D01*
X69145045Y-72885684D01*
X68863997Y-73109811D01*
X68609811Y-73363997D01*
X68385684Y-73645045D01*
X68194432Y-73949420D01*
X68038465Y-74273288D01*
X67919741Y-74612580D01*
X67919737Y-74612592D01*
X67839748Y-74963048D01*
X67839746Y-74963064D01*
X67799500Y-75320259D01*
X66000000Y-75320259D01*
X66000000Y-62624000D01*
X66019685Y-62556961D01*
X66072489Y-62511206D01*
X66124000Y-62500000D01*
X70634487Y-62500000D01*
X70701526Y-62519685D01*
G37*
%TD.AperFunction*%
%TA.AperFunction,Conductor*%
G36*
X100080703Y-156007045D02*
G01*
X100118477Y-156065823D01*
X100121117Y-156076567D01*
X100175791Y-156351437D01*
X100175792Y-156351443D01*
X100275623Y-156680540D01*
X100407219Y-156998241D01*
X100407226Y-156998255D01*
X100569322Y-157301518D01*
X100569333Y-157301536D01*
X100760377Y-157587453D01*
X100760387Y-157587467D01*
X100928785Y-157792659D01*
X100928786Y-157792660D01*
X101816777Y-156904668D01*
X101879731Y-156986711D01*
X102088289Y-157195269D01*
X102170329Y-157258221D01*
X101282338Y-158146212D01*
X101282339Y-158146213D01*
X101445537Y-158280147D01*
X101484871Y-158337893D01*
X101486742Y-158407737D01*
X101450554Y-158467506D01*
X101387798Y-158498221D01*
X101366872Y-158500000D01*
X100250000Y-158500000D01*
X99498769Y-158500000D01*
X99431730Y-158480315D01*
X99385975Y-158427511D01*
X99376031Y-158358353D01*
X99399502Y-158301690D01*
X99515890Y-158146213D01*
X99562226Y-158084315D01*
X99699367Y-157833161D01*
X99799369Y-157565046D01*
X99860196Y-157285428D01*
X99875500Y-157071448D01*
X99875500Y-156100758D01*
X99895185Y-156033719D01*
X99947989Y-155987964D01*
X100017147Y-155978020D01*
X100080703Y-156007045D01*
G37*
%TD.AperFunction*%
%TA.AperFunction,Conductor*%
G36*
X125741636Y-62509437D02*
G01*
X125766503Y-62519737D01*
X125766510Y-62519738D01*
X125766511Y-62519739D01*
X125921153Y-62550499D01*
X125921156Y-62550500D01*
X125921158Y-62550500D01*
X126078844Y-62550500D01*
X126078845Y-62550499D01*
X126155152Y-62535320D01*
X126233488Y-62519739D01*
X126233488Y-62519738D01*
X126233497Y-62519737D01*
X126258363Y-62509437D01*
X126305811Y-62500000D01*
X126744487Y-62500000D01*
X126811526Y-62519685D01*
X126857281Y-62572489D01*
X126867225Y-62641647D01*
X126844805Y-62696885D01*
X126775379Y-62792442D01*
X126678904Y-62981782D01*
X126613242Y-63183870D01*
X126613242Y-63183873D01*
X126602769Y-63250000D01*
X127650854Y-63250000D01*
X127612370Y-63316657D01*
X127580000Y-63437465D01*
X127580000Y-63562535D01*
X127612370Y-63683343D01*
X127650854Y-63750000D01*
X126602769Y-63750000D01*
X126613242Y-63816126D01*
X126613242Y-63816129D01*
X126678904Y-64018217D01*
X126775379Y-64207557D01*
X126900272Y-64379459D01*
X126900276Y-64379464D01*
X127039143Y-64518331D01*
X127072628Y-64579654D01*
X127067644Y-64649346D01*
X127025772Y-64705279D01*
X127016559Y-64711551D01*
X126861342Y-64807289D01*
X126737289Y-64931342D01*
X126645187Y-65080663D01*
X126645185Y-65080668D01*
X126590001Y-65247204D01*
X126590000Y-65247205D01*
X126585823Y-65288102D01*
X126559427Y-65352793D01*
X126502247Y-65392945D01*
X126462465Y-65399500D01*
X125124000Y-65399500D01*
X125056961Y-65379815D01*
X125011206Y-65327011D01*
X125000000Y-65275500D01*
X125000000Y-62624000D01*
X125019685Y-62556961D01*
X125072489Y-62511206D01*
X125124000Y-62500000D01*
X125694189Y-62500000D01*
X125741636Y-62509437D01*
G37*
%TD.AperFunction*%
%TD*%
M02*
